# awning_02
mtllib props.mtl
o awning_02
usemtl CorrugatedMetal
v -1.113283 0.009962 0.000000
v -1.033763 0.009421 0.000000
v -0.954242 0.008843 0.000000
v -0.874722 0.008231 0.000000
v -0.795202 0.007587 0.000000
v -0.715682 0.006914 0.000000
v -0.636162 0.006215 0.000000
v -0.556641 0.005491 0.000000
v -0.477121 0.004747 0.000000
v -0.397601 0.003984 0.000000
v -0.318081 0.003206 0.000000
v -0.238561 0.002415 0.000000
v -0.159040 0.001615 0.000000
v -0.079520 0.000809 0.000000
v 0.000000 0.000000 0.000000
v 0.079520 -0.000809 0.000000
v 0.159040 -0.001615 0.000000
v 0.238561 -0.002415 0.000000
v 0.318081 -0.003206 0.000000
v 0.397601 -0.003984 0.000000
v 0.477121 -0.004747 0.000000
v 0.556641 -0.005491 0.000000
v 0.636162 -0.006215 0.000000
v 0.715682 -0.006914 0.000000
v 0.795202 -0.007587 0.000000
v 0.874722 -0.008231 0.000000
v 0.954242 -0.008843 0.000000
v 1.033763 -0.009421 0.000000
v 1.113283 -0.009962 0.000000
v -1.113283 -0.022287 0.135857
v -1.033763 -0.022883 0.135857
v -0.954242 -0.023530 0.135857
v -0.874722 -0.024222 0.135857
v -0.795202 -0.024957 0.135857
v -0.715682 -0.025731 0.135857
v -0.636162 -0.026537 0.135857
v -0.556641 -0.027372 0.135857
v -0.477121 -0.028231 0.135857
v -0.397601 -0.029107 0.135857
v -0.318081 -0.029997 0.135857
v -0.238561 -0.030895 0.135857
v -0.159040 -0.031795 0.135857
v -0.079520 -0.032692 0.135857
v 0.000000 -0.033582 0.135857
v 0.079520 -0.034459 0.135857
v 0.159040 -0.035320 0.135857
v 0.238561 -0.036160 0.135857
v 0.318081 -0.036974 0.135857
v 0.397601 -0.037761 0.135857
v 0.477121 -0.038515 0.135857
v 0.556641 -0.039235 0.135857
v 0.636162 -0.039918 0.135857
v 0.715682 -0.040563 0.135857
v 0.795202 -0.041167 0.135857
v 0.874722 -0.041730 0.135857
v 0.954242 -0.042250 0.135857
v 1.033763 -0.042728 0.135857
v 1.113283 -0.043162 0.135857
v -1.113283 -0.054536 0.271713
v -1.033763 -0.055187 0.271713
v -0.954242 -0.055902 0.271713
v -0.874722 -0.056676 0.271713
v -0.795202 -0.057502 0.271713
v -0.715682 -0.058376 0.271713
v -0.636162 -0.059289 0.271713
v -0.556641 -0.060236 0.271713
v -0.477121 -0.061208 0.271713
v -0.397601 -0.062199 0.271713
v -0.318081 -0.063200 0.271713
v -0.238561 -0.064205 0.271713
v -0.159040 -0.065205 0.271713
v -0.079520 -0.066193 0.271713
v 0.000000 -0.067164 0.271713
v 0.079520 -0.068110 0.271713
v 0.159040 -0.069025 0.271713
v 0.238561 -0.069904 0.271713
v 0.318081 -0.070743 0.271713
v 0.397601 -0.071537 0.271713
v 0.477121 -0.072283 0.271713
v 0.556641 -0.072979 0.271713
v 0.636162 -0.073622 0.271713
v 0.715682 -0.074212 0.271713
v 0.795202 -0.074747 0.271713
v 0.874722 -0.075229 0.271713
v 0.954242 -0.075658 0.271713
v 1.033763 -0.076035 0.271713
v 1.113283 -0.076362 0.271713
v -1.113283 -0.086785 0.407570
v -1.033763 -0.087491 0.407570
v -0.954242 -0.088274 0.407570
v -0.874722 -0.089129 0.407570
v -0.795202 -0.090047 0.407570
v -0.715682 -0.091021 0.407570
v -0.636162 -0.092041 0.407570
v -0.556641 -0.093099 0.407570
v -0.477121 -0.094186 0.407570
v -0.397601 -0.095290 0.407570
v -0.318081 -0.096403 0.407570
v -0.238561 -0.097515 0.407570
v -0.159040 -0.098615 0.407570
v -0.079520 -0.099695 0.407570
v 0.000000 -0.100746 0.407570
v 0.079520 -0.101760 0.407570
v 0.159040 -0.102730 0.407570
v 0.238561 -0.103649 0.407570
v 0.318081 -0.104512 0.407570
v 0.397601 -0.105314 0.407570
v 0.477121 -0.106051 0.407570
v 0.556641 -0.106722 0.407570
v 0.636162 -0.107326 0.407570
v 0.715682 -0.107860 0.407570
v 0.795202 -0.108327 0.407570
v 0.874722 -0.108728 0.407570
v 0.954242 -0.109065 0.407570
v 1.033763 -0.109342 0.407570
v 1.113283 -0.109562 0.407570
v -1.113283 -0.119034 0.543426
v -1.033763 -0.119795 0.543426
v -0.954242 -0.120647 0.543426
v -0.874722 -0.121582 0.543426
v -0.795202 -0.122592 0.543426
v -0.715682 -0.123666 0.543426
v -0.636162 -0.124793 0.543426
v -0.556641 -0.125963 0.543426
v -0.477121 -0.127163 0.543426
v -0.397601 -0.128382 0.543426
v -0.318081 -0.129606 0.543426
v -0.238561 -0.130824 0.543426
v -0.159040 -0.132025 0.543426
v -0.079520 -0.133196 0.543426
v 0.000000 -0.134328 0.543426
v 0.079520 -0.135410 0.543426
v 0.159040 -0.136435 0.543426
v 0.238561 -0.137393 0.543426
v 0.318081 -0.138280 0.543426
v 0.397601 -0.139090 0.543426
v 0.477121 -0.139820 0.543426
v 0.556641 -0.140466 0.543426
v 0.636162 -0.141029 0.543426
v 0.715682 -0.141509 0.543426
v 0.795202 -0.141907 0.543426
v 0.874722 -0.142227 0.543426
v 0.954242 -0.142473 0.543426
v 1.033763 -0.142649 0.543426
v 1.113283 -0.142763 0.543426
v -1.113283 -0.151283 0.679283
v -1.033763 -0.152099 0.679283
v -0.954242 -0.153019 0.679283
v -0.874722 -0.154035 0.679283
v -0.795202 -0.155136 0.679283
v -0.715682 -0.156311 0.679283
v -0.636162 -0.157545 0.679283
v -0.556641 -0.158827 0.679283
v -0.477121 -0.160141 0.679283
v -0.397601 -0.161473 0.679283
v -0.318081 -0.162809 0.679283
v -0.238561 -0.164134 0.679283
v -0.159040 -0.165435 0.679283
v -0.079520 -0.166698 0.679283
v 0.000000 -0.167910 0.679283
v 0.079520 -0.169060 0.679283
v 0.159040 -0.170139 0.679283
v 0.238561 -0.171138 0.679283
v 0.318081 -0.172049 0.679283
v 0.397601 -0.172867 0.679283
v 0.477121 -0.173588 0.679283
v 0.556641 -0.174210 0.679283
v 0.636162 -0.174733 0.679283
v 0.715682 -0.175157 0.679283
v 0.795202 -0.175487 0.679283
v 0.874722 -0.175726 0.679283
v 0.954242 -0.175880 0.679283
v 1.033763 -0.175956 0.679283
v 1.113283 -0.175963 0.679283
v -1.113283 -0.183532 0.815139
v -1.033763 -0.184403 0.815139
v -0.954242 -0.185392 0.815139
v -0.874722 -0.186489 0.815139
v -0.795202 -0.187681 0.815139
v -0.715682 -0.188956 0.815139
v -0.636162 -0.190297 0.815139
v -0.556641 -0.191690 0.815139
v -0.477121 -0.193118 0.815139
v -0.397601 -0.194565 0.815139
v -0.318081 -0.196012 0.815139
v -0.238561 -0.197444 0.815139
v -0.159040 -0.198845 0.815139
v -0.079520 -0.200199 0.815139
v 0.000000 -0.201492 0.815139
v 0.079520 -0.202711 0.815139
v 0.159040 -0.203844 0.815139
v 0.238561 -0.204882 0.815139
v 0.318081 -0.205817 0.815139
v 0.397601 -0.206643 0.815139
v 0.477121 -0.207356 0.815139
v 0.556641 -0.207954 0.815139
v 0.636162 -0.208436 0.815139
v 0.715682 -0.208806 0.815139
v 0.795202 -0.209067 0.815139
v 0.874722 -0.209225 0.815139
v 0.954242 -0.209288 0.815139
v 1.033763 -0.209264 0.815139
v 1.113283 -0.209163 0.815139
v -1.113283 -0.215781 0.950996
v -1.033763 -0.216707 0.950996
v -0.954242 -0.217764 0.950996
v -0.874722 -0.218942 0.950996
v -0.795202 -0.220226 0.950996
v -0.715682 -0.221601 0.950996
v -0.636162 -0.223049 0.950996
v -0.556641 -0.224554 0.950996
v -0.477121 -0.226096 0.950996
v -0.397601 -0.227656 0.950996
v -0.318081 -0.229215 0.950996
v -0.238561 -0.230754 0.950996
v -0.159040 -0.232255 0.950996
v -0.079520 -0.233700 0.950996
v 0.000000 -0.235074 0.950996
v 0.079520 -0.236361 0.950996
v 0.159040 -0.237549 0.950996
v 0.238561 -0.238627 0.950996
v 0.318081 -0.239586 0.950996
v 0.397601 -0.240420 0.950996
v 0.477121 -0.241124 0.950996
v 0.556641 -0.241697 0.950996
v 0.636162 -0.242140 0.950996
v 0.715682 -0.242455 0.950996
v 0.795202 -0.242647 0.950996
v 0.874722 -0.242724 0.950996
v 0.954242 -0.242695 0.950996
v 1.033763 -0.242571 0.950996
v 1.113283 -0.242363 0.950996
v -1.113283 -0.248031 1.086852
v -1.033763 -0.249011 1.086852
v -0.954242 -0.250137 1.086852
v -0.874722 -0.251395 1.086852
v -0.795202 -0.252770 1.086852
v -0.715682 -0.254246 1.086852
v -0.636162 -0.255801 1.086852
v -0.556641 -0.257418 1.086852
v -0.477121 -0.259073 1.086852
v -0.397601 -0.260747 1.086852
v -0.318081 -0.262418 1.086852
v -0.238561 -0.264064 1.086852
v -0.159040 -0.265665 1.086852
v -0.079520 -0.267202 1.086852
v 0.000000 -0.268656 1.086852
v 0.079520 -0.270011 1.086852
v 0.159040 -0.271254 1.086852
v 0.238561 -0.272371 1.086852
v 0.318081 -0.273355 1.086852
v 0.397601 -0.274196 1.086852
v 0.477121 -0.274892 1.086852
v 0.556641 -0.275441 1.086852
v 0.636162 -0.275843 1.086852
v 0.715682 -0.276103 1.086852
v 0.795202 -0.276227 1.086852
v 0.874722 -0.276223 1.086852
v 0.954242 -0.276103 1.086852
v 1.033763 -0.275878 1.086852
v 1.113283 -0.275563 1.086852
v -1.113283 -0.280280 1.222709
v -1.033763 -0.281314 1.222709
v -0.954242 -0.282509 1.222709
v -0.874722 -0.283848 1.222709
v -0.795202 -0.285315 1.222709
v -0.715682 -0.286891 1.222709
v -0.636162 -0.288553 1.222709
v -0.556641 -0.290281 1.222709
v -0.477121 -0.292051 1.222709
v -0.397601 -0.293839 1.222709
v -0.318081 -0.295621 1.222709
v -0.238561 -0.297374 1.222709
v -0.159040 -0.299075 1.222709
v -0.079520 -0.300703 1.222709
v 0.000000 -0.302238 1.222709
v 0.079520 -0.303662 1.222709
v 0.159040 -0.304959 1.222709
v 0.238561 -0.306116 1.222709
v 0.318081 -0.307123 1.222709
v 0.397601 -0.307973 1.222709
v 0.477121 -0.308660 1.222709
v 0.556641 -0.309185 1.222709
v 0.636162 -0.309547 1.222709
v 0.715682 -0.309752 1.222709
v 0.795202 -0.309807 1.222709
v 0.874722 -0.309722 1.222709
v 0.954242 -0.309510 1.222709
v 1.033763 -0.309185 1.222709
v 1.113283 -0.308763 1.222709
v -1.113283 -0.312529 1.358565
v -1.033763 -0.313618 1.358565
v -0.954242 -0.314881 1.358565
v -0.874722 -0.316301 1.358565
v -0.795202 -0.317860 1.358565
v -0.715682 -0.319536 1.358565
v -0.636162 -0.321305 1.358565
v -0.556641 -0.323145 1.358565
v -0.477121 -0.325029 1.358565
v -0.397601 -0.326930 1.358565
v -0.318081 -0.328824 1.358565
v -0.238561 -0.330684 1.358565
v -0.159040 -0.332485 1.358565
v -0.079520 -0.334204 1.358565
v 0.000000 -0.335820 1.358565
v 0.079520 -0.337312 1.358565
v 0.159040 -0.338663 1.358565
v 0.238561 -0.339860 1.358565
v 0.318081 -0.340892 1.358565
v 0.397601 -0.341749 1.358565
v 0.477121 -0.342429 1.358565
v 0.556641 -0.342928 1.358565
v 0.636162 -0.343250 1.358565
v 0.715682 -0.343401 1.358565
v 0.795202 -0.343387 1.358565
v 0.874722 -0.343222 1.358565
v 0.954242 -0.342918 1.358565
v 1.033763 -0.342492 1.358565
v 1.113283 -0.341963 1.358565
v -1.068752 0.020000 0.036560
v -1.068752 0.008290 0.031710
v -1.068752 0.003440 0.020000
v -1.068752 0.008290 0.008290
v -1.068752 0.020000 0.003440
v -1.068752 0.031710 0.008290
v -1.068752 0.036560 0.020000
v -1.068752 0.031710 0.031710
v -1.068752 0.020000 0.038000
v -1.068752 0.007272 0.032728
v -1.068752 0.002000 0.020000
v -1.068752 0.007272 0.007272
v -1.068752 0.020000 0.002000
v -1.068752 0.032728 0.007272
v -1.068752 0.038000 0.020000
v -1.068752 0.032728 0.032728
v 1.068752 0.020000 0.038000
v 1.068752 0.007272 0.032728
v 1.068752 0.002000 0.020000
v 1.068752 0.007272 0.007272
v 1.068752 0.020000 0.002000
v 1.068752 0.032728 0.007272
v 1.068752 0.038000 0.020000
v 1.068752 0.032728 0.032728
v 1.068752 0.020000 0.036560
v 1.068752 0.008290 0.031710
v 1.068752 0.003440 0.020000
v 1.068752 0.008290 0.008290
v 1.068752 0.020000 0.003440
v 1.068752 0.031710 0.008290
v 1.068752 0.036560 0.020000
v 1.068752 0.031710 0.031710
v -1.068752 0.020000 0.020000
v 1.068752 0.020000 0.020000
v -1.068752 -0.329765 1.353285
v -1.068752 -0.340174 1.348974
v -1.068752 -0.344485 1.338565
v -1.068752 -0.340174 1.328157
v -1.068752 -0.329765 1.323845
v -1.068752 -0.319357 1.328157
v -1.068752 -0.315045 1.338565
v -1.068752 -0.319357 1.348974
v -1.068752 -0.329765 1.354565
v -1.068752 -0.341079 1.349879
v -1.068752 -0.345765 1.338565
v -1.068752 -0.341079 1.327251
v -1.068752 -0.329765 1.322565
v -1.068752 -0.318452 1.327251
v -1.068752 -0.313765 1.338565
v -1.068752 -0.318452 1.349879
v 1.068752 -0.329765 1.354565
v 1.068752 -0.341079 1.349879
v 1.068752 -0.345765 1.338565
v 1.068752 -0.341079 1.327251
v 1.068752 -0.329765 1.322565
v 1.068752 -0.318452 1.327251
v 1.068752 -0.313765 1.338565
v 1.068752 -0.318452 1.349879
v 1.068752 -0.329765 1.353285
v 1.068752 -0.340174 1.348974
v 1.068752 -0.344485 1.338565
v 1.068752 -0.340174 1.328157
v 1.068752 -0.329765 1.323845
v 1.068752 -0.319357 1.328157
v 1.068752 -0.315045 1.338565
v 1.068752 -0.319357 1.348974
v -1.068752 -0.329765 1.338565
v 1.068752 -0.329765 1.338565
v -0.901666 0.000000 0.020000
v -0.896146 -0.009275 0.017680
v -0.885106 -0.009275 0.017680
v -0.879586 -0.000000 0.020000
v -0.885106 0.009275 0.022320
v -0.896146 0.009275 0.022320
v -0.902626 0.000000 0.020000
v -0.896626 -0.010082 0.017479
v -0.884626 -0.010082 0.017479
v -0.878626 -0.000000 0.020000
v -0.884626 0.010082 0.022521
v -0.896626 0.010082 0.022521
v -0.902626 -0.329765 1.338565
v -0.896626 -0.339847 1.336044
v -0.884626 -0.339847 1.336044
v -0.878626 -0.329765 1.338565
v -0.884626 -0.319684 1.341087
v -0.896626 -0.319684 1.341087
v -0.901666 -0.329765 1.338565
v -0.896146 -0.339041 1.336245
v -0.885106 -0.339041 1.336245
v -0.879586 -0.329765 1.338565
v -0.885106 -0.320490 1.340885
v -0.896146 -0.320490 1.340885
v -0.890626 0.000000 0.020000
v -0.890626 -0.329765 1.338565
v -0.011040 0.000000 0.020000
v -0.005520 -0.009275 0.017680
v 0.005520 -0.009275 0.017680
v 0.011040 -0.000000 0.020000
v 0.005520 0.009275 0.022320
v -0.005520 0.009275 0.022320
v -0.012000 0.000000 0.020000
v -0.006000 -0.010082 0.017479
v 0.006000 -0.010082 0.017479
v 0.012000 -0.000000 0.020000
v 0.006000 0.010082 0.022521
v -0.006000 0.010082 0.022521
v -0.012000 -0.329765 1.338565
v -0.006000 -0.339847 1.336044
v 0.006000 -0.339847 1.336044
v 0.012000 -0.329765 1.338565
v 0.006000 -0.319684 1.341087
v -0.006000 -0.319684 1.341087
v -0.011040 -0.329765 1.338565
v -0.005520 -0.339041 1.336245
v 0.005520 -0.339041 1.336245
v 0.011040 -0.329765 1.338565
v 0.005520 -0.320490 1.340885
v -0.005520 -0.320490 1.340885
v 0.000000 0.000000 0.020000
v 0.000000 -0.329765 1.338565
v 0.879586 0.000000 0.020000
v 0.885106 -0.009275 0.017680
v 0.896146 -0.009275 0.017680
v 0.901666 -0.000000 0.020000
v 0.896146 0.009275 0.022320
v 0.885106 0.009275 0.022320
v 0.878626 0.000000 0.020000
v 0.884626 -0.010082 0.017479
v 0.896626 -0.010082 0.017479
v 0.902626 -0.000000 0.020000
v 0.896626 0.010082 0.022521
v 0.884626 0.010082 0.022521
v 0.878626 -0.329765 1.338565
v 0.884626 -0.339847 1.336044
v 0.896626 -0.339847 1.336044
v 0.902626 -0.329765 1.338565
v 0.896626 -0.319684 1.341087
v 0.884626 -0.319684 1.341087
v 0.879586 -0.329765 1.338565
v 0.885106 -0.339041 1.336245
v 0.896146 -0.339041 1.336245
v 0.901666 -0.329765 1.338565
v 0.896146 -0.320490 1.340885
v 0.885106 -0.320490 1.340885
v 0.890626 0.000000 0.020000
v 0.890626 -0.329765 1.338565
v -1.039955 -0.038000 0.020000
v -0.963955 -0.038000 0.020000
v -0.963955 0.038000 0.020000
v -1.039955 0.038000 0.020000
v -0.963955 -0.038000 0.000000
v -1.039955 -0.038000 0.000000
v -1.039955 0.038000 0.000000
v -0.963955 0.038000 0.000000
v -1.039955 0.040000 0.002000
v -0.963955 0.040000 0.002000
v -0.963955 0.040000 0.018000
v -1.039955 0.040000 0.018000
v -1.039955 -0.040000 0.018000
v -0.963955 -0.040000 0.018000
v -0.963955 -0.040000 0.002000
v -1.039955 -0.040000 0.002000
v -0.961955 -0.038000 0.002000
v -0.961955 -0.038000 0.018000
v -0.961955 0.038000 0.018000
v -0.961955 0.038000 0.002000
v -1.041955 -0.038000 0.018000
v -1.041955 -0.038000 0.002000
v -1.041955 0.038000 0.002000
v -1.041955 0.038000 0.018000
v -1.039955 0.040000 0.018000
v -0.963955 0.040000 0.018000
v -0.963955 0.038000 0.020000
v -1.039955 0.038000 0.020000
v -1.039955 0.040000 0.002000
v -0.963955 0.040000 0.002000
v -0.963955 0.038000 0.000000
v -1.039955 0.038000 0.000000
v -1.039955 -0.040000 0.018000
v -0.963955 -0.040000 0.018000
v -0.963955 -0.038000 0.020000
v -1.039955 -0.038000 0.020000
v -1.039955 -0.040000 0.002000
v -0.963955 -0.040000 0.002000
v -0.963955 -0.038000 0.000000
v -1.039955 -0.038000 0.000000
v -0.961955 -0.038000 0.018000
v -0.961955 0.038000 0.018000
v -0.963955 0.038000 0.020000
v -0.963955 -0.038000 0.020000
v -0.961955 -0.038000 0.002000
v -0.961955 0.038000 0.002000
v -0.963955 0.038000 0.000000
v -0.963955 -0.038000 0.000000
v -1.041955 -0.038000 0.018000
v -1.041955 0.038000 0.018000
v -1.039955 0.038000 0.020000
v -1.039955 -0.038000 0.020000
v -1.041955 -0.038000 0.002000
v -1.041955 0.038000 0.002000
v -1.039955 0.038000 0.000000
v -1.039955 -0.038000 0.000000
v -0.961955 0.038000 0.002000
v -0.961955 0.038000 0.018000
v -0.963955 0.040000 0.018000
v -0.963955 0.040000 0.002000
v -0.961955 -0.038000 0.002000
v -0.961955 -0.038000 0.018000
v -0.963955 -0.040000 0.018000
v -0.963955 -0.040000 0.002000
v -1.041955 0.038000 0.002000
v -1.041955 0.038000 0.018000
v -1.039955 0.040000 0.018000
v -1.039955 0.040000 0.002000
v -1.041955 -0.038000 0.002000
v -1.041955 -0.038000 0.018000
v -1.039955 -0.040000 0.018000
v -1.039955 -0.040000 0.002000
v -1.039955 -0.038000 0.000000
v -1.039955 -0.040000 0.002000
v -1.041955 -0.038000 0.002000
v -1.039955 -0.038000 0.020000
v -1.039955 -0.040000 0.018000
v -1.041955 -0.038000 0.018000
v -1.039955 0.038000 0.000000
v -1.039955 0.040000 0.002000
v -1.041955 0.038000 0.002000
v -1.039955 0.038000 0.020000
v -1.039955 0.040000 0.018000
v -1.041955 0.038000 0.018000
v -0.963955 -0.038000 0.000000
v -0.963955 -0.040000 0.002000
v -0.961955 -0.038000 0.002000
v -0.963955 -0.038000 0.020000
v -0.963955 -0.040000 0.018000
v -0.961955 -0.038000 0.018000
v -0.963955 0.038000 0.000000
v -0.963955 0.040000 0.002000
v -0.961955 0.038000 0.002000
v -0.963955 0.038000 0.020000
v -0.963955 0.040000 0.018000
v -0.961955 0.038000 0.018000
v 0.963955 -0.038000 0.020000
v 1.039955 -0.038000 0.020000
v 1.039955 0.038000 0.020000
v 0.963955 0.038000 0.020000
v 1.039955 -0.038000 0.000000
v 0.963955 -0.038000 0.000000
v 0.963955 0.038000 0.000000
v 1.039955 0.038000 0.000000
v 0.963955 0.040000 0.002000
v 1.039955 0.040000 0.002000
v 1.039955 0.040000 0.018000
v 0.963955 0.040000 0.018000
v 0.963955 -0.040000 0.018000
v 1.039955 -0.040000 0.018000
v 1.039955 -0.040000 0.002000
v 0.963955 -0.040000 0.002000
v 1.041955 -0.038000 0.002000
v 1.041955 -0.038000 0.018000
v 1.041955 0.038000 0.018000
v 1.041955 0.038000 0.002000
v 0.961955 -0.038000 0.018000
v 0.961955 -0.038000 0.002000
v 0.961955 0.038000 0.002000
v 0.961955 0.038000 0.018000
v 0.963955 0.040000 0.018000
v 1.039955 0.040000 0.018000
v 1.039955 0.038000 0.020000
v 0.963955 0.038000 0.020000
v 0.963955 0.040000 0.002000
v 1.039955 0.040000 0.002000
v 1.039955 0.038000 0.000000
v 0.963955 0.038000 0.000000
v 0.963955 -0.040000 0.018000
v 1.039955 -0.040000 0.018000
v 1.039955 -0.038000 0.020000
v 0.963955 -0.038000 0.020000
v 0.963955 -0.040000 0.002000
v 1.039955 -0.040000 0.002000
v 1.039955 -0.038000 0.000000
v 0.963955 -0.038000 0.000000
v 1.041955 -0.038000 0.018000
v 1.041955 0.038000 0.018000
v 1.039955 0.038000 0.020000
v 1.039955 -0.038000 0.020000
v 1.041955 -0.038000 0.002000
v 1.041955 0.038000 0.002000
v 1.039955 0.038000 0.000000
v 1.039955 -0.038000 0.000000
v 0.961955 -0.038000 0.018000
v 0.961955 0.038000 0.018000
v 0.963955 0.038000 0.020000
v 0.963955 -0.038000 0.020000
v 0.961955 -0.038000 0.002000
v 0.961955 0.038000 0.002000
v 0.963955 0.038000 0.000000
v 0.963955 -0.038000 0.000000
v 1.041955 0.038000 0.002000
v 1.041955 0.038000 0.018000
v 1.039955 0.040000 0.018000
v 1.039955 0.040000 0.002000
v 1.041955 -0.038000 0.002000
v 1.041955 -0.038000 0.018000
v 1.039955 -0.040000 0.018000
v 1.039955 -0.040000 0.002000
v 0.961955 0.038000 0.002000
v 0.961955 0.038000 0.018000
v 0.963955 0.040000 0.018000
v 0.963955 0.040000 0.002000
v 0.961955 -0.038000 0.002000
v 0.961955 -0.038000 0.018000
v 0.963955 -0.040000 0.018000
v 0.963955 -0.040000 0.002000
v 0.963955 -0.038000 0.000000
v 0.963955 -0.040000 0.002000
v 0.961955 -0.038000 0.002000
v 0.963955 -0.038000 0.020000
v 0.963955 -0.040000 0.018000
v 0.961955 -0.038000 0.018000
v 0.963955 0.038000 0.000000
v 0.963955 0.040000 0.002000
v 0.961955 0.038000 0.002000
v 0.963955 0.038000 0.020000
v 0.963955 0.040000 0.018000
v 0.961955 0.038000 0.018000
v 1.039955 -0.038000 0.000000
v 1.039955 -0.040000 0.002000
v 1.041955 -0.038000 0.002000
v 1.039955 -0.038000 0.020000
v 1.039955 -0.040000 0.018000
v 1.041955 -0.038000 0.018000
v 1.039955 0.038000 0.000000
v 1.039955 0.040000 0.002000
v 1.041955 0.038000 0.002000
v 1.039955 0.038000 0.020000
v 1.039955 0.040000 0.018000
v 1.041955 0.038000 0.018000
vt 0.000000 0.000000
vt 0.039760 0.000000
vt 0.079520 0.000000
vt 0.119280 0.000000
vt 0.159040 0.000000
vt 0.198801 0.000000
vt 0.238561 0.000000
vt 0.278321 0.000000
vt 0.318081 0.000000
vt 0.357841 0.000000
vt 0.397601 0.000000
vt 0.437361 0.000000
vt 0.477121 0.000000
vt 0.516881 0.000000
vt 0.556641 0.000000
vt 0.596402 0.000000
vt 0.636162 0.000000
vt 0.675922 0.000000
vt 0.715682 0.000000
vt 0.755442 0.000000
vt 0.795202 0.000000
vt 0.834962 0.000000
vt 0.874722 0.000000
vt 0.914482 0.000000
vt 0.954242 0.000000
vt 0.994003 0.000000
vt 1.033763 0.000000
vt 1.073523 0.000000
vt 1.113283 0.000000
vt 0.000000 0.067928
vt 0.039760 0.067928
vt 0.079520 0.067928
vt 0.119280 0.067928
vt 0.159040 0.067928
vt 0.198801 0.067928
vt 0.238561 0.067928
vt 0.278321 0.067928
vt 0.318081 0.067928
vt 0.357841 0.067928
vt 0.397601 0.067928
vt 0.437361 0.067928
vt 0.477121 0.067928
vt 0.516881 0.067928
vt 0.556641 0.067928
vt 0.596402 0.067928
vt 0.636162 0.067928
vt 0.675922 0.067928
vt 0.715682 0.067928
vt 0.755442 0.067928
vt 0.795202 0.067928
vt 0.834962 0.067928
vt 0.874722 0.067928
vt 0.914482 0.067928
vt 0.954242 0.067928
vt 0.994003 0.067928
vt 1.033763 0.067928
vt 1.073523 0.067928
vt 1.113283 0.067928
vt 0.000000 0.135857
vt 0.039760 0.135857
vt 0.079520 0.135857
vt 0.119280 0.135857
vt 0.159040 0.135857
vt 0.198801 0.135857
vt 0.238561 0.135857
vt 0.278321 0.135857
vt 0.318081 0.135857
vt 0.357841 0.135857
vt 0.397601 0.135857
vt 0.437361 0.135857
vt 0.477121 0.135857
vt 0.516881 0.135857
vt 0.556641 0.135857
vt 0.596402 0.135857
vt 0.636162 0.135857
vt 0.675922 0.135857
vt 0.715682 0.135857
vt 0.755442 0.135857
vt 0.795202 0.135857
vt 0.834962 0.135857
vt 0.874722 0.135857
vt 0.914482 0.135857
vt 0.954242 0.135857
vt 0.994003 0.135857
vt 1.033763 0.135857
vt 1.073523 0.135857
vt 1.113283 0.135857
vt 0.000000 0.203785
vt 0.039760 0.203785
vt 0.079520 0.203785
vt 0.119280 0.203785
vt 0.159040 0.203785
vt 0.198801 0.203785
vt 0.238561 0.203785
vt 0.278321 0.203785
vt 0.318081 0.203785
vt 0.357841 0.203785
vt 0.397601 0.203785
vt 0.437361 0.203785
vt 0.477121 0.203785
vt 0.516881 0.203785
vt 0.556641 0.203785
vt 0.596402 0.203785
vt 0.636162 0.203785
vt 0.675922 0.203785
vt 0.715682 0.203785
vt 0.755442 0.203785
vt 0.795202 0.203785
vt 0.834962 0.203785
vt 0.874722 0.203785
vt 0.914482 0.203785
vt 0.954242 0.203785
vt 0.994003 0.203785
vt 1.033763 0.203785
vt 1.073523 0.203785
vt 1.113283 0.203785
vt 0.000000 0.271713
vt 0.039760 0.271713
vt 0.079520 0.271713
vt 0.119280 0.271713
vt 0.159040 0.271713
vt 0.198801 0.271713
vt 0.238561 0.271713
vt 0.278321 0.271713
vt 0.318081 0.271713
vt 0.357841 0.271713
vt 0.397601 0.271713
vt 0.437361 0.271713
vt 0.477121 0.271713
vt 0.516881 0.271713
vt 0.556641 0.271713
vt 0.596402 0.271713
vt 0.636162 0.271713
vt 0.675922 0.271713
vt 0.715682 0.271713
vt 0.755442 0.271713
vt 0.795202 0.271713
vt 0.834962 0.271713
vt 0.874722 0.271713
vt 0.914482 0.271713
vt 0.954242 0.271713
vt 0.994003 0.271713
vt 1.033763 0.271713
vt 1.073523 0.271713
vt 1.113283 0.271713
vt 0.000000 0.339641
vt 0.039760 0.339641
vt 0.079520 0.339641
vt 0.119280 0.339641
vt 0.159040 0.339641
vt 0.198801 0.339641
vt 0.238561 0.339641
vt 0.278321 0.339641
vt 0.318081 0.339641
vt 0.357841 0.339641
vt 0.397601 0.339641
vt 0.437361 0.339641
vt 0.477121 0.339641
vt 0.516881 0.339641
vt 0.556641 0.339641
vt 0.596402 0.339641
vt 0.636162 0.339641
vt 0.675922 0.339641
vt 0.715682 0.339641
vt 0.755442 0.339641
vt 0.795202 0.339641
vt 0.834962 0.339641
vt 0.874722 0.339641
vt 0.914482 0.339641
vt 0.954242 0.339641
vt 0.994003 0.339641
vt 1.033763 0.339641
vt 1.073523 0.339641
vt 1.113283 0.339641
vt 0.000000 0.407570
vt 0.039760 0.407570
vt 0.079520 0.407570
vt 0.119280 0.407570
vt 0.159040 0.407570
vt 0.198801 0.407570
vt 0.238561 0.407570
vt 0.278321 0.407570
vt 0.318081 0.407570
vt 0.357841 0.407570
vt 0.397601 0.407570
vt 0.437361 0.407570
vt 0.477121 0.407570
vt 0.516881 0.407570
vt 0.556641 0.407570
vt 0.596402 0.407570
vt 0.636162 0.407570
vt 0.675922 0.407570
vt 0.715682 0.407570
vt 0.755442 0.407570
vt 0.795202 0.407570
vt 0.834962 0.407570
vt 0.874722 0.407570
vt 0.914482 0.407570
vt 0.954242 0.407570
vt 0.994003 0.407570
vt 1.033763 0.407570
vt 1.073523 0.407570
vt 1.113283 0.407570
vt 0.000000 0.475498
vt 0.039760 0.475498
vt 0.079520 0.475498
vt 0.119280 0.475498
vt 0.159040 0.475498
vt 0.198801 0.475498
vt 0.238561 0.475498
vt 0.278321 0.475498
vt 0.318081 0.475498
vt 0.357841 0.475498
vt 0.397601 0.475498
vt 0.437361 0.475498
vt 0.477121 0.475498
vt 0.516881 0.475498
vt 0.556641 0.475498
vt 0.596402 0.475498
vt 0.636162 0.475498
vt 0.675922 0.475498
vt 0.715682 0.475498
vt 0.755442 0.475498
vt 0.795202 0.475498
vt 0.834962 0.475498
vt 0.874722 0.475498
vt 0.914482 0.475498
vt 0.954242 0.475498
vt 0.994003 0.475498
vt 1.033763 0.475498
vt 1.073523 0.475498
vt 1.113283 0.475498
vt 0.000000 0.543426
vt 0.039760 0.543426
vt 0.079520 0.543426
vt 0.119280 0.543426
vt 0.159040 0.543426
vt 0.198801 0.543426
vt 0.238561 0.543426
vt 0.278321 0.543426
vt 0.318081 0.543426
vt 0.357841 0.543426
vt 0.397601 0.543426
vt 0.437361 0.543426
vt 0.477121 0.543426
vt 0.516881 0.543426
vt 0.556641 0.543426
vt 0.596402 0.543426
vt 0.636162 0.543426
vt 0.675922 0.543426
vt 0.715682 0.543426
vt 0.755442 0.543426
vt 0.795202 0.543426
vt 0.834962 0.543426
vt 0.874722 0.543426
vt 0.914482 0.543426
vt 0.954242 0.543426
vt 0.994003 0.543426
vt 1.033763 0.543426
vt 1.073523 0.543426
vt 1.113283 0.543426
vt 0.000000 0.611354
vt 0.039760 0.611354
vt 0.079520 0.611354
vt 0.119280 0.611354
vt 0.159040 0.611354
vt 0.198801 0.611354
vt 0.238561 0.611354
vt 0.278321 0.611354
vt 0.318081 0.611354
vt 0.357841 0.611354
vt 0.397601 0.611354
vt 0.437361 0.611354
vt 0.477121 0.611354
vt 0.516881 0.611354
vt 0.556641 0.611354
vt 0.596402 0.611354
vt 0.636162 0.611354
vt 0.675922 0.611354
vt 0.715682 0.611354
vt 0.755442 0.611354
vt 0.795202 0.611354
vt 0.834962 0.611354
vt 0.874722 0.611354
vt 0.914482 0.611354
vt 0.954242 0.611354
vt 0.994003 0.611354
vt 1.033763 0.611354
vt 1.073523 0.611354
vt 1.113283 0.611354
vt 0.000000 0.679283
vt 0.039760 0.679283
vt 0.079520 0.679283
vt 0.119280 0.679283
vt 0.159040 0.679283
vt 0.198801 0.679283
vt 0.238561 0.679283
vt 0.278321 0.679283
vt 0.318081 0.679283
vt 0.357841 0.679283
vt 0.397601 0.679283
vt 0.437361 0.679283
vt 0.477121 0.679283
vt 0.516881 0.679283
vt 0.556641 0.679283
vt 0.596402 0.679283
vt 0.636162 0.679283
vt 0.675922 0.679283
vt 0.715682 0.679283
vt 0.755442 0.679283
vt 0.795202 0.679283
vt 0.834962 0.679283
vt 0.874722 0.679283
vt 0.914482 0.679283
vt 0.954242 0.679283
vt 0.994003 0.679283
vt 1.033763 0.679283
vt 1.073523 0.679283
vt 1.113283 0.679283
vt 0.000000 0.000000
vt 0.125000 0.000000
vt 0.250000 0.000000
vt 0.375000 0.000000
vt 0.500000 0.000000
vt 0.625000 0.000000
vt 0.750000 0.000000
vt 0.875000 0.000000
vt 0.000000 0.000000
vt 0.125000 0.000000
vt 0.250000 0.000000
vt 0.375000 0.000000
vt 0.500000 0.000000
vt 0.625000 0.000000
vt 0.750000 0.000000
vt 0.875000 0.000000
vt 0.000000 2.137503
vt 0.125000 2.137503
vt 0.250000 2.137503
vt 0.375000 2.137503
vt 0.500000 2.137503
vt 0.625000 2.137503
vt 0.750000 2.137503
vt 0.875000 2.137503
vt 0.000000 2.137503
vt 0.125000 2.137503
vt 0.250000 2.137503
vt 0.375000 2.137503
vt 0.500000 2.137503
vt 0.625000 2.137503
vt 0.750000 2.137503
vt 0.875000 2.137503
vt 0.500000 0.500000
vt 0.500000 0.500000
vt 0.000000 0.000000
vt 0.125000 0.000000
vt 0.250000 0.000000
vt 0.375000 0.000000
vt 0.500000 0.000000
vt 0.625000 0.000000
vt 0.750000 0.000000
vt 0.875000 0.000000
vt 0.000000 0.000000
vt 0.125000 0.000000
vt 0.250000 0.000000
vt 0.375000 0.000000
vt 0.500000 0.000000
vt 0.625000 0.000000
vt 0.750000 0.000000
vt 0.875000 0.000000
vt 0.000000 2.137503
vt 0.125000 2.137503
vt 0.250000 2.137503
vt 0.375000 2.137503
vt 0.500000 2.137503
vt 0.625000 2.137503
vt 0.750000 2.137503
vt 0.875000 2.137503
vt 0.000000 2.137503
vt 0.125000 2.137503
vt 0.250000 2.137503
vt 0.375000 2.137503
vt 0.500000 2.137503
vt 0.625000 2.137503
vt 0.750000 2.137503
vt 0.875000 2.137503
vt 0.500000 0.500000
vt 0.500000 0.500000
vt 0.000000 0.000000
vt 0.166667 0.000000
vt 0.333333 0.000000
vt 0.500000 0.000000
vt 0.666667 0.000000
vt 0.833333 0.000000
vt 0.000000 0.000000
vt 0.166667 0.000000
vt 0.333333 0.000000
vt 0.500000 0.000000
vt 0.666667 0.000000
vt 0.833333 0.000000
vt 0.000000 1.359176
vt 0.166667 1.359176
vt 0.333333 1.359176
vt 0.500000 1.359176
vt 0.666667 1.359176
vt 0.833333 1.359176
vt 0.000000 1.359176
vt 0.166667 1.359176
vt 0.333333 1.359176
vt 0.500000 1.359176
vt 0.666667 1.359176
vt 0.833333 1.359176
vt 0.500000 0.500000
vt 0.500000 0.500000
vt 0.000000 0.000000
vt 0.166667 0.000000
vt 0.333333 0.000000
vt 0.500000 0.000000
vt 0.666667 0.000000
vt 0.833333 0.000000
vt 0.000000 0.000000
vt 0.166667 0.000000
vt 0.333333 0.000000
vt 0.500000 0.000000
vt 0.666667 0.000000
vt 0.833333 0.000000
vt 0.000000 1.359176
vt 0.166667 1.359176
vt 0.333333 1.359176
vt 0.500000 1.359176
vt 0.666667 1.359176
vt 0.833333 1.359176
vt 0.000000 1.359176
vt 0.166667 1.359176
vt 0.333333 1.359176
vt 0.500000 1.359176
vt 0.666667 1.359176
vt 0.833333 1.359176
vt 0.500000 0.500000
vt 0.500000 0.500000
vt 0.000000 0.000000
vt 0.166667 0.000000
vt 0.333333 0.000000
vt 0.500000 0.000000
vt 0.666667 0.000000
vt 0.833333 0.000000
vt 0.000000 0.000000
vt 0.166667 0.000000
vt 0.333333 0.000000
vt 0.500000 0.000000
vt 0.666667 0.000000
vt 0.833333 0.000000
vt 0.000000 1.359176
vt 0.166667 1.359176
vt 0.333333 1.359176
vt 0.500000 1.359176
vt 0.666667 1.359176
vt 0.833333 1.359176
vt 0.000000 1.359176
vt 0.166667 1.359176
vt 0.333333 1.359176
vt 0.500000 1.359176
vt 0.666667 1.359176
vt 0.833333 1.359176
vt 0.500000 0.500000
vt 0.500000 0.500000
vt -0.038000 -0.038000
vt 0.038000 -0.038000
vt 0.038000 0.038000
vt -0.038000 0.038000
vt 0.038000 -0.038000
vt -0.038000 -0.038000
vt -0.038000 0.038000
vt 0.038000 0.038000
vt -0.038000 -0.008000
vt 0.038000 -0.008000
vt 0.038000 0.008000
vt -0.038000 0.008000
vt -0.038000 0.008000
vt 0.038000 0.008000
vt 0.038000 -0.008000
vt -0.038000 -0.008000
vt -0.008000 -0.038000
vt 0.008000 -0.038000
vt 0.008000 0.038000
vt -0.008000 0.038000
vt 0.008000 -0.038000
vt -0.008000 -0.038000
vt -0.008000 0.038000
vt 0.008000 0.038000
vt -0.038000 0.040000
vt 0.038000 0.040000
vt 0.038000 0.038000
vt -0.038000 0.038000
vt -0.038000 0.040000
vt 0.038000 0.040000
vt 0.038000 0.038000
vt -0.038000 0.038000
vt -0.038000 -0.040000
vt 0.038000 -0.040000
vt 0.038000 -0.038000
vt -0.038000 -0.038000
vt -0.038000 -0.040000
vt 0.038000 -0.040000
vt 0.038000 -0.038000
vt -0.038000 -0.038000
vt 0.040000 -0.038000
vt 0.040000 0.038000
vt 0.038000 0.038000
vt 0.038000 -0.038000
vt 0.040000 -0.038000
vt 0.040000 0.038000
vt 0.038000 0.038000
vt 0.038000 -0.038000
vt -0.040000 -0.038000
vt -0.040000 0.038000
vt -0.038000 0.038000
vt -0.038000 -0.038000
vt -0.040000 -0.038000
vt -0.040000 0.038000
vt -0.038000 0.038000
vt -0.038000 -0.038000
vt 0.040000 0.038000
vt 0.040000 0.038000
vt 0.038000 0.040000
vt 0.038000 0.040000
vt 0.040000 -0.038000
vt 0.040000 -0.038000
vt 0.038000 -0.040000
vt 0.038000 -0.040000
vt -0.040000 0.038000
vt -0.040000 0.038000
vt -0.038000 0.040000
vt -0.038000 0.040000
vt -0.040000 -0.038000
vt -0.040000 -0.038000
vt -0.038000 -0.040000
vt -0.038000 -0.040000
vt -0.038000 -0.038000
vt -0.038000 -0.040000
vt -0.040000 -0.038000
vt -0.038000 -0.038000
vt -0.038000 -0.040000
vt -0.040000 -0.038000
vt -0.038000 0.038000
vt -0.038000 0.040000
vt -0.040000 0.038000
vt -0.038000 0.038000
vt -0.038000 0.040000
vt -0.040000 0.038000
vt 0.038000 -0.038000
vt 0.038000 -0.040000
vt 0.040000 -0.038000
vt 0.038000 -0.038000
vt 0.038000 -0.040000
vt 0.040000 -0.038000
vt 0.038000 0.038000
vt 0.038000 0.040000
vt 0.040000 0.038000
vt 0.038000 0.038000
vt 0.038000 0.040000
vt 0.040000 0.038000
vt -0.038000 -0.038000
vt 0.038000 -0.038000
vt 0.038000 0.038000
vt -0.038000 0.038000
vt 0.038000 -0.038000
vt -0.038000 -0.038000
vt -0.038000 0.038000
vt 0.038000 0.038000
vt -0.038000 -0.008000
vt 0.038000 -0.008000
vt 0.038000 0.008000
vt -0.038000 0.008000
vt -0.038000 0.008000
vt 0.038000 0.008000
vt 0.038000 -0.008000
vt -0.038000 -0.008000
vt -0.008000 -0.038000
vt 0.008000 -0.038000
vt 0.008000 0.038000
vt -0.008000 0.038000
vt 0.008000 -0.038000
vt -0.008000 -0.038000
vt -0.008000 0.038000
vt 0.008000 0.038000
vt -0.038000 0.040000
vt 0.038000 0.040000
vt 0.038000 0.038000
vt -0.038000 0.038000
vt -0.038000 0.040000
vt 0.038000 0.040000
vt 0.038000 0.038000
vt -0.038000 0.038000
vt -0.038000 -0.040000
vt 0.038000 -0.040000
vt 0.038000 -0.038000
vt -0.038000 -0.038000
vt -0.038000 -0.040000
vt 0.038000 -0.040000
vt 0.038000 -0.038000
vt -0.038000 -0.038000
vt 0.040000 -0.038000
vt 0.040000 0.038000
vt 0.038000 0.038000
vt 0.038000 -0.038000
vt 0.040000 -0.038000
vt 0.040000 0.038000
vt 0.038000 0.038000
vt 0.038000 -0.038000
vt -0.040000 -0.038000
vt -0.040000 0.038000
vt -0.038000 0.038000
vt -0.038000 -0.038000
vt -0.040000 -0.038000
vt -0.040000 0.038000
vt -0.038000 0.038000
vt -0.038000 -0.038000
vt 0.040000 0.038000
vt 0.040000 0.038000
vt 0.038000 0.040000
vt 0.038000 0.040000
vt 0.040000 -0.038000
vt 0.040000 -0.038000
vt 0.038000 -0.040000
vt 0.038000 -0.040000
vt -0.040000 0.038000
vt -0.040000 0.038000
vt -0.038000 0.040000
vt -0.038000 0.040000
vt -0.040000 -0.038000
vt -0.040000 -0.038000
vt -0.038000 -0.040000
vt -0.038000 -0.040000
vt -0.038000 -0.038000
vt -0.038000 -0.040000
vt -0.040000 -0.038000
vt -0.038000 -0.038000
vt -0.038000 -0.040000
vt -0.040000 -0.038000
vt -0.038000 0.038000
vt -0.038000 0.040000
vt -0.040000 0.038000
vt -0.038000 0.038000
vt -0.038000 0.040000
vt -0.040000 0.038000
vt 0.038000 -0.038000
vt 0.038000 -0.040000
vt 0.040000 -0.038000
vt 0.038000 -0.038000
vt 0.038000 -0.040000
vt 0.040000 -0.038000
vt 0.038000 0.038000
vt 0.038000 0.040000
vt 0.040000 0.038000
vt 0.038000 0.038000
vt 0.038000 0.040000
vt 0.040000 0.038000
vn -0.539151 0.818443 0.198661
vn -0.565642 0.801381 0.194520
vn -0.589098 0.785259 0.190606
vn -0.609760 0.770221 0.186956
vn -0.627854 0.756368 0.183594
vn -0.643595 0.743769 0.180536
vn -0.657176 0.732468 0.177793
vn -0.668768 0.722492 0.175371
vn -0.678523 0.713851 0.173273
vn -0.686567 0.706550 0.171501
vn -0.693008 0.700587 0.170054
vn -0.697930 0.695957 0.168930
vn -0.701400 0.692655 0.168128
vn -0.703464 0.690676 0.167648
vn -0.704149 0.690016 0.167488
vn -0.703464 0.690676 0.167648
vn -0.701400 0.692655 0.168128
vn -0.697930 0.695957 0.168930
vn -0.693008 0.700587 0.170054
vn -0.686567 0.706550 0.171501
vn -0.678523 0.713851 0.173273
vn -0.668768 0.722492 0.175371
vn -0.657176 0.732468 0.177793
vn -0.643595 0.743769 0.180536
vn -0.627854 0.756368 0.183594
vn -0.609760 0.770221 0.186956
vn -0.589098 0.785259 0.190606
vn -0.565642 0.801381 0.194520
vn -0.539151 0.818443 0.198661
vn -0.539151 0.818443 0.198661
vn -0.565642 0.801381 0.194520
vn -0.589098 0.785259 0.190606
vn -0.609760 0.770221 0.186956
vn -0.627854 0.756368 0.183594
vn -0.643595 0.743769 0.180536
vn -0.657176 0.732468 0.177793
vn -0.668768 0.722492 0.175371
vn -0.678523 0.713851 0.173273
vn -0.686567 0.706550 0.171501
vn -0.693008 0.700587 0.170054
vn -0.697930 0.695957 0.168930
vn -0.701400 0.692655 0.168128
vn -0.703464 0.690676 0.167648
vn -0.704149 0.690016 0.167488
vn -0.703464 0.690676 0.167648
vn -0.701400 0.692655 0.168128
vn -0.697930 0.695957 0.168930
vn -0.693008 0.700587 0.170054
vn -0.686567 0.706550 0.171501
vn -0.678523 0.713851 0.173273
vn -0.668768 0.722492 0.175371
vn -0.657176 0.732468 0.177793
vn -0.643595 0.743769 0.180536
vn -0.627854 0.756368 0.183594
vn -0.609760 0.770221 0.186956
vn -0.589098 0.785259 0.190606
vn -0.565642 0.801381 0.194520
vn -0.539151 0.818443 0.198661
vn -0.539151 0.818443 0.198661
vn -0.565642 0.801381 0.194520
vn -0.589098 0.785259 0.190606
vn -0.609760 0.770221 0.186956
vn -0.627854 0.756368 0.183594
vn -0.643595 0.743769 0.180536
vn -0.657176 0.732468 0.177793
vn -0.668768 0.722492 0.175371
vn -0.678523 0.713851 0.173273
vn -0.686567 0.706550 0.171501
vn -0.693008 0.700587 0.170054
vn -0.697930 0.695957 0.168930
vn -0.701400 0.692655 0.168128
vn -0.703464 0.690676 0.167648
vn -0.704149 0.690016 0.167488
vn -0.703464 0.690676 0.167648
vn -0.701400 0.692655 0.168128
vn -0.697930 0.695957 0.168930
vn -0.693008 0.700587 0.170054
vn -0.686567 0.706550 0.171501
vn -0.678523 0.713851 0.173273
vn -0.668768 0.722492 0.175371
vn -0.657176 0.732468 0.177793
vn -0.643595 0.743769 0.180536
vn -0.627854 0.756368 0.183594
vn -0.609760 0.770221 0.186956
vn -0.589098 0.785259 0.190606
vn -0.565642 0.801381 0.194520
vn -0.539151 0.818443 0.198661
vn -0.539151 0.818443 0.198661
vn -0.565642 0.801381 0.194520
vn -0.589098 0.785259 0.190606
vn -0.609760 0.770221 0.186956
vn -0.627854 0.756368 0.183594
vn -0.643595 0.743769 0.180536
vn -0.657176 0.732468 0.177793
vn -0.668768 0.722492 0.175371
vn -0.678523 0.713851 0.173273
vn -0.686567 0.706550 0.171501
vn -0.693008 0.700587 0.170054
vn -0.697930 0.695957 0.168930
vn -0.701400 0.692655 0.168128
vn -0.703464 0.690676 0.167648
vn -0.704149 0.690016 0.167488
vn -0.703464 0.690676 0.167648
vn -0.701400 0.692655 0.168128
vn -0.697930 0.695957 0.168930
vn -0.693008 0.700587 0.170054
vn -0.686567 0.706550 0.171501
vn -0.678523 0.713851 0.173273
vn -0.668768 0.722492 0.175371
vn -0.657176 0.732468 0.177793
vn -0.643595 0.743769 0.180536
vn -0.627854 0.756368 0.183594
vn -0.609760 0.770221 0.186956
vn -0.589098 0.785259 0.190606
vn -0.565642 0.801381 0.194520
vn -0.539151 0.818443 0.198661
vn -0.539151 0.818443 0.198661
vn -0.565642 0.801381 0.194520
vn -0.589098 0.785259 0.190606
vn -0.609760 0.770221 0.186956
vn -0.627854 0.756368 0.183594
vn -0.643595 0.743769 0.180536
vn -0.657176 0.732468 0.177793
vn -0.668768 0.722492 0.175371
vn -0.678523 0.713851 0.173273
vn -0.686567 0.706550 0.171501
vn -0.693008 0.700587 0.170054
vn -0.697930 0.695957 0.168930
vn -0.701400 0.692655 0.168128
vn -0.703464 0.690676 0.167648
vn -0.704149 0.690016 0.167488
vn -0.703464 0.690676 0.167648
vn -0.701400 0.692655 0.168128
vn -0.697930 0.695957 0.168930
vn -0.693008 0.700587 0.170054
vn -0.686567 0.706550 0.171501
vn -0.678523 0.713851 0.173273
vn -0.668768 0.722492 0.175371
vn -0.657176 0.732468 0.177793
vn -0.643595 0.743769 0.180536
vn -0.627854 0.756368 0.183594
vn -0.609760 0.770221 0.186956
vn -0.589098 0.785259 0.190606
vn -0.565642 0.801381 0.194520
vn -0.539151 0.818443 0.198661
vn -0.539151 0.818443 0.198661
vn -0.565642 0.801381 0.194520
vn -0.589098 0.785259 0.190606
vn -0.609760 0.770221 0.186956
vn -0.627854 0.756368 0.183594
vn -0.643595 0.743769 0.180536
vn -0.657176 0.732468 0.177793
vn -0.668768 0.722492 0.175371
vn -0.678523 0.713851 0.173273
vn -0.686567 0.706550 0.171501
vn -0.693008 0.700587 0.170054
vn -0.697930 0.695957 0.168930
vn -0.701400 0.692655 0.168128
vn -0.703464 0.690676 0.167648
vn -0.704149 0.690016 0.167488
vn -0.703464 0.690676 0.167648
vn -0.701400 0.692655 0.168128
vn -0.697930 0.695957 0.168930
vn -0.693008 0.700587 0.170054
vn -0.686567 0.706550 0.171501
vn -0.678523 0.713851 0.173273
vn -0.668768 0.722492 0.175371
vn -0.657176 0.732468 0.177793
vn -0.643595 0.743769 0.180536
vn -0.627854 0.756368 0.183594
vn -0.609760 0.770221 0.186956
vn -0.589098 0.785259 0.190606
vn -0.565642 0.801381 0.194520
vn -0.539151 0.818443 0.198661
vn -0.539151 0.818443 0.198661
vn -0.565642 0.801381 0.194520
vn -0.589098 0.785259 0.190606
vn -0.609760 0.770221 0.186956
vn -0.627854 0.756368 0.183594
vn -0.643595 0.743769 0.180536
vn -0.657176 0.732468 0.177793
vn -0.668768 0.722492 0.175371
vn -0.678523 0.713851 0.173273
vn -0.686567 0.706550 0.171501
vn -0.693008 0.700587 0.170054
vn -0.697930 0.695957 0.168930
vn -0.701400 0.692655 0.168128
vn -0.703464 0.690676 0.167648
vn -0.704149 0.690016 0.167488
vn -0.703464 0.690676 0.167648
vn -0.701400 0.692655 0.168128
vn -0.697930 0.695957 0.168930
vn -0.693008 0.700587 0.170054
vn -0.686567 0.706550 0.171501
vn -0.678523 0.713851 0.173273
vn -0.668768 0.722492 0.175371
vn -0.657176 0.732468 0.177793
vn -0.643595 0.743769 0.180536
vn -0.627854 0.756368 0.183594
vn -0.609760 0.770221 0.186956
vn -0.589098 0.785259 0.190606
vn -0.565642 0.801381 0.194520
vn -0.539151 0.818443 0.198661
vn -0.539151 0.818443 0.198661
vn -0.565642 0.801381 0.194520
vn -0.589098 0.785259 0.190606
vn -0.609760 0.770221 0.186956
vn -0.627854 0.756368 0.183594
vn -0.643595 0.743769 0.180536
vn -0.657176 0.732468 0.177793
vn -0.668768 0.722492 0.175371
vn -0.678523 0.713851 0.173273
vn -0.686567 0.706550 0.171501
vn -0.693008 0.700587 0.170054
vn -0.697930 0.695957 0.168930
vn -0.701400 0.692655 0.168128
vn -0.703464 0.690676 0.167648
vn -0.704149 0.690016 0.167488
vn -0.703464 0.690676 0.167648
vn -0.701400 0.692655 0.168128
vn -0.697930 0.695957 0.168930
vn -0.693008 0.700587 0.170054
vn -0.686567 0.706550 0.171501
vn -0.678523 0.713851 0.173273
vn -0.668768 0.722492 0.175371
vn -0.657176 0.732468 0.177793
vn -0.643595 0.743769 0.180536
vn -0.627854 0.756368 0.183594
vn -0.609760 0.770221 0.186956
vn -0.589098 0.785259 0.190606
vn -0.565642 0.801381 0.194520
vn -0.539151 0.818443 0.198661
vn -0.539151 0.818443 0.198661
vn -0.565642 0.801381 0.194520
vn -0.589098 0.785259 0.190606
vn -0.609760 0.770221 0.186956
vn -0.627854 0.756368 0.183594
vn -0.643595 0.743769 0.180536
vn -0.657176 0.732468 0.177793
vn -0.668768 0.722492 0.175371
vn -0.678523 0.713851 0.173273
vn -0.686567 0.706550 0.171501
vn -0.693008 0.700587 0.170054
vn -0.697930 0.695957 0.168930
vn -0.701400 0.692655 0.168128
vn -0.703464 0.690676 0.167648
vn -0.704149 0.690016 0.167488
vn -0.703464 0.690676 0.167648
vn -0.701400 0.692655 0.168128
vn -0.697930 0.695957 0.168930
vn -0.693008 0.700587 0.170054
vn -0.686567 0.706550 0.171501
vn -0.678523 0.713851 0.173273
vn -0.668768 0.722492 0.175371
vn -0.657176 0.732468 0.177793
vn -0.643595 0.743769 0.180536
vn -0.627854 0.756368 0.183594
vn -0.609760 0.770221 0.186956
vn -0.589098 0.785259 0.190606
vn -0.565642 0.801381 0.194520
vn -0.539151 0.818443 0.198661
vn -0.539151 0.818443 0.198661
vn -0.565642 0.801381 0.194520
vn -0.589098 0.785259 0.190606
vn -0.609760 0.770221 0.186956
vn -0.627854 0.756368 0.183594
vn -0.643595 0.743769 0.180536
vn -0.657176 0.732468 0.177793
vn -0.668768 0.722492 0.175371
vn -0.678523 0.713851 0.173273
vn -0.686567 0.706550 0.171501
vn -0.693008 0.700587 0.170054
vn -0.697930 0.695957 0.168930
vn -0.701400 0.692655 0.168128
vn -0.703464 0.690676 0.167648
vn -0.704149 0.690016 0.167488
vn -0.703464 0.690676 0.167648
vn -0.701400 0.692655 0.168128
vn -0.697930 0.695957 0.168930
vn -0.693008 0.700587 0.170054
vn -0.686567 0.706550 0.171501
vn -0.678523 0.713851 0.173273
vn -0.668768 0.722492 0.175371
vn -0.657176 0.732468 0.177793
vn -0.643595 0.743769 0.180536
vn -0.627854 0.756368 0.183594
vn -0.609760 0.770221 0.186956
vn -0.589098 0.785259 0.190606
vn -0.565642 0.801381 0.194520
vn -0.539151 0.818443 0.198661
vn -0.539151 0.818443 0.198661
vn -0.565642 0.801381 0.194520
vn -0.589098 0.785259 0.190606
vn -0.609760 0.770221 0.186956
vn -0.627854 0.756368 0.183594
vn -0.643595 0.743769 0.180536
vn -0.657176 0.732468 0.177793
vn -0.668768 0.722492 0.175371
vn -0.678523 0.713851 0.173273
vn -0.686567 0.706550 0.171501
vn -0.693008 0.700587 0.170054
vn -0.697930 0.695957 0.168930
vn -0.701400 0.692655 0.168128
vn -0.703464 0.690676 0.167648
vn -0.704149 0.690016 0.167488
vn -0.703464 0.690676 0.167648
vn -0.701400 0.692655 0.168128
vn -0.697930 0.695957 0.168930
vn -0.693008 0.700587 0.170054
vn -0.686567 0.706550 0.171501
vn -0.678523 0.713851 0.173273
vn -0.668768 0.722492 0.175371
vn -0.657176 0.732468 0.177793
vn -0.643595 0.743769 0.180536
vn -0.627854 0.756368 0.183594
vn -0.609760 0.770221 0.186956
vn -0.589098 0.785259 0.190606
vn -0.565642 0.801381 0.194520
vn -0.539151 0.818443 0.198661
vn 0.000000 0.000000 1.000000
vn 0.000000 -0.707107 0.707107
vn 0.000000 -1.000000 0.000000
vn 0.000000 -0.707107 -0.707107
vn 0.000000 -0.000000 -1.000000
vn -0.000000 0.707107 -0.707107
vn -0.000000 1.000000 -0.000000
vn 0.000000 0.707107 0.707107
vn 0.000000 0.000000 1.000000
vn 0.000000 -0.707107 0.707107
vn 0.000000 -1.000000 0.000000
vn 0.000000 -0.707107 -0.707107
vn 0.000000 -0.000000 -1.000000
vn -0.000000 0.707107 -0.707107
vn -0.000000 1.000000 -0.000000
vn 0.000000 0.707107 0.707107
vn 0.000000 0.000000 1.000000
vn 0.000000 -0.707107 0.707107
vn 0.000000 -1.000000 0.000000
vn 0.000000 -0.707107 -0.707107
vn 0.000000 -0.000000 -1.000000
vn -0.000000 0.707107 -0.707107
vn -0.000000 1.000000 -0.000000
vn 0.000000 0.707107 0.707107
vn 0.000000 0.000000 1.000000
vn 0.000000 -0.707107 0.707107
vn 0.000000 -1.000000 0.000000
vn 0.000000 -0.707107 -0.707107
vn 0.000000 -0.000000 -1.000000
vn -0.000000 0.707107 -0.707107
vn -0.000000 1.000000 -0.000000
vn 0.000000 0.707107 0.707107
vn -1.000000 -0.000000 -0.000000
vn 1.000000 0.000000 0.000000
vn 0.000000 0.000000 1.000000
vn 0.000000 -0.707107 0.707107
vn 0.000000 -1.000000 0.000000
vn 0.000000 -0.707107 -0.707107
vn 0.000000 -0.000000 -1.000000
vn -0.000000 0.707107 -0.707107
vn -0.000000 1.000000 -0.000000
vn 0.000000 0.707107 0.707107
vn 0.000000 0.000000 1.000000
vn 0.000000 -0.707107 0.707107
vn 0.000000 -1.000000 0.000000
vn 0.000000 -0.707107 -0.707107
vn 0.000000 -0.000000 -1.000000
vn -0.000000 0.707107 -0.707107
vn -0.000000 1.000000 -0.000000
vn 0.000000 0.707107 0.707107
vn 0.000000 0.000000 1.000000
vn 0.000000 -0.707107 0.707107
vn 0.000000 -1.000000 0.000000
vn 0.000000 -0.707107 -0.707107
vn 0.000000 -0.000000 -1.000000
vn -0.000000 0.707107 -0.707107
vn -0.000000 1.000000 -0.000000
vn 0.000000 0.707107 0.707107
vn 0.000000 0.000000 1.000000
vn 0.000000 -0.707107 0.707107
vn 0.000000 -1.000000 0.000000
vn 0.000000 -0.707107 -0.707107
vn 0.000000 -0.000000 -1.000000
vn -0.000000 0.707107 -0.707107
vn -0.000000 1.000000 -0.000000
vn 0.000000 0.707107 0.707107
vn -1.000000 -0.000000 -0.000000
vn 1.000000 0.000000 0.000000
vn -1.000000 0.000000 0.000000
vn -0.500000 -0.840149 -0.210116
vn 0.500000 -0.840149 -0.210116
vn 1.000000 -0.000000 -0.000000
vn 0.500000 0.840149 0.210116
vn -0.500000 0.840149 0.210116
vn -1.000000 0.000000 0.000000
vn -0.500000 -0.840149 -0.210116
vn 0.500000 -0.840149 -0.210116
vn 1.000000 -0.000000 -0.000000
vn 0.500000 0.840149 0.210116
vn -0.500000 0.840149 0.210116
vn -1.000000 0.000000 0.000000
vn -0.500000 -0.840149 -0.210116
vn 0.500000 -0.840149 -0.210116
vn 1.000000 -0.000000 -0.000000
vn 0.500000 0.840149 0.210116
vn -0.500000 0.840149 0.210116
vn -1.000000 0.000000 0.000000
vn -0.500000 -0.840149 -0.210116
vn 0.500000 -0.840149 -0.210116
vn 1.000000 -0.000000 -0.000000
vn 0.500000 0.840149 0.210116
vn -0.500000 0.840149 0.210116
vn -0.000000 0.242622 -0.970121
vn 0.000000 -0.242622 0.970121
vn -1.000000 0.000000 0.000000
vn -0.500000 -0.840149 -0.210116
vn 0.500000 -0.840149 -0.210116
vn 1.000000 -0.000000 -0.000000
vn 0.500000 0.840149 0.210116
vn -0.500000 0.840149 0.210116
vn -1.000000 0.000000 0.000000
vn -0.500000 -0.840149 -0.210116
vn 0.500000 -0.840149 -0.210116
vn 1.000000 -0.000000 -0.000000
vn 0.500000 0.840149 0.210116
vn -0.500000 0.840149 0.210116
vn -1.000000 0.000000 0.000000
vn -0.500000 -0.840149 -0.210116
vn 0.500000 -0.840149 -0.210116
vn 1.000000 -0.000000 -0.000000
vn 0.500000 0.840149 0.210116
vn -0.500000 0.840149 0.210116
vn -1.000000 0.000000 0.000000
vn -0.500000 -0.840149 -0.210116
vn 0.500000 -0.840149 -0.210116
vn 1.000000 -0.000000 -0.000000
vn 0.500000 0.840149 0.210116
vn -0.500000 0.840149 0.210116
vn -0.000000 0.242622 -0.970121
vn 0.000000 -0.242622 0.970121
vn -1.000000 0.000000 0.000000
vn -0.500000 -0.840149 -0.210116
vn 0.500000 -0.840149 -0.210116
vn 1.000000 -0.000000 -0.000000
vn 0.500000 0.840149 0.210116
vn -0.500000 0.840149 0.210116
vn -1.000000 0.000000 0.000000
vn -0.500000 -0.840149 -0.210116
vn 0.500000 -0.840149 -0.210116
vn 1.000000 -0.000000 -0.000000
vn 0.500000 0.840149 0.210116
vn -0.500000 0.840149 0.210116
vn -1.000000 0.000000 0.000000
vn -0.500000 -0.840149 -0.210116
vn 0.500000 -0.840149 -0.210116
vn 1.000000 -0.000000 -0.000000
vn 0.500000 0.840149 0.210116
vn -0.500000 0.840149 0.210116
vn -1.000000 0.000000 0.000000
vn -0.500000 -0.840149 -0.210116
vn 0.500000 -0.840149 -0.210116
vn 1.000000 -0.000000 -0.000000
vn 0.500000 0.840149 0.210116
vn -0.500000 0.840149 0.210116
vn -0.000000 0.242622 -0.970121
vn 0.000000 -0.242622 0.970121
vn 0.000000 0.000000 1.000000
vn 0.000000 0.000000 1.000000
vn 0.000000 0.000000 1.000000
vn 0.000000 0.000000 1.000000
vn 0.000000 0.000000 -1.000000
vn 0.000000 0.000000 -1.000000
vn 0.000000 0.000000 -1.000000
vn 0.000000 0.000000 -1.000000
vn 0.000000 1.000000 0.000000
vn 0.000000 1.000000 0.000000
vn 0.000000 1.000000 0.000000
vn 0.000000 1.000000 0.000000
vn 0.000000 -1.000000 0.000000
vn 0.000000 -1.000000 0.000000
vn 0.000000 -1.000000 0.000000
vn 0.000000 -1.000000 0.000000
vn 1.000000 0.000000 0.000000
vn 1.000000 0.000000 0.000000
vn 1.000000 0.000000 0.000000
vn 1.000000 0.000000 0.000000
vn -1.000000 0.000000 0.000000
vn -1.000000 0.000000 0.000000
vn -1.000000 0.000000 0.000000
vn -1.000000 0.000000 0.000000
vn 0.000000 0.707107 0.707107
vn 0.000000 0.707107 0.707107
vn 0.000000 0.707107 0.707107
vn 0.000000 0.707107 0.707107
vn 0.000000 0.707107 -0.707107
vn 0.000000 0.707107 -0.707107
vn 0.000000 0.707107 -0.707107
vn 0.000000 0.707107 -0.707107
vn 0.000000 -0.707107 0.707107
vn 0.000000 -0.707107 0.707107
vn 0.000000 -0.707107 0.707107
vn 0.000000 -0.707107 0.707107
vn 0.000000 -0.707107 -0.707107
vn 0.000000 -0.707107 -0.707107
vn 0.000000 -0.707107 -0.707107
vn 0.000000 -0.707107 -0.707107
vn 0.707107 0.000000 0.707107
vn 0.707107 0.000000 0.707107
vn 0.707107 0.000000 0.707107
vn 0.707107 0.000000 0.707107
vn 0.707107 0.000000 -0.707107
vn 0.707107 0.000000 -0.707107
vn 0.707107 0.000000 -0.707107
vn 0.707107 0.000000 -0.707107
vn -0.707107 0.000000 0.707107
vn -0.707107 0.000000 0.707107
vn -0.707107 0.000000 0.707107
vn -0.707107 0.000000 0.707107
vn -0.707107 0.000000 -0.707107
vn -0.707107 0.000000 -0.707107
vn -0.707107 0.000000 -0.707107
vn -0.707107 0.000000 -0.707107
vn 0.707107 0.707107 0.000000
vn 0.707107 0.707107 0.000000
vn 0.707107 0.707107 0.000000
vn 0.707107 0.707107 0.000000
vn 0.707107 -0.707107 0.000000
vn 0.707107 -0.707107 0.000000
vn 0.707107 -0.707107 0.000000
vn 0.707107 -0.707107 0.000000
vn -0.707107 0.707107 0.000000
vn -0.707107 0.707107 0.000000
vn -0.707107 0.707107 0.000000
vn -0.707107 0.707107 0.000000
vn -0.707107 -0.707107 0.000000
vn -0.707107 -0.707107 0.000000
vn -0.707107 -0.707107 0.000000
vn -0.707107 -0.707107 0.000000
vn -0.577350 -0.577350 -0.577350
vn -0.577350 -0.577350 -0.577350
vn -0.577350 -0.577350 -0.577350
vn -0.577350 -0.577350 0.577350
vn -0.577350 -0.577350 0.577350
vn -0.577350 -0.577350 0.577350
vn -0.577350 0.577350 -0.577350
vn -0.577350 0.577350 -0.577350
vn -0.577350 0.577350 -0.577350
vn -0.577350 0.577350 0.577350
vn -0.577350 0.577350 0.577350
vn -0.577350 0.577350 0.577350
vn 0.577350 -0.577350 -0.577350
vn 0.577350 -0.577350 -0.577350
vn 0.577350 -0.577350 -0.577350
vn 0.577350 -0.577350 0.577350
vn 0.577350 -0.577350 0.577350
vn 0.577350 -0.577350 0.577350
vn 0.577350 0.577350 -0.577350
vn 0.577350 0.577350 -0.577350
vn 0.577350 0.577350 -0.577350
vn 0.577350 0.577350 0.577350
vn 0.577350 0.577350 0.577350
vn 0.577350 0.577350 0.577350
vn 0.000000 0.000000 1.000000
vn 0.000000 0.000000 1.000000
vn 0.000000 0.000000 1.000000
vn 0.000000 0.000000 1.000000
vn 0.000000 0.000000 -1.000000
vn 0.000000 0.000000 -1.000000
vn 0.000000 0.000000 -1.000000
vn 0.000000 0.000000 -1.000000
vn 0.000000 1.000000 0.000000
vn 0.000000 1.000000 0.000000
vn 0.000000 1.000000 0.000000
vn 0.000000 1.000000 0.000000
vn 0.000000 -1.000000 0.000000
vn 0.000000 -1.000000 0.000000
vn 0.000000 -1.000000 0.000000
vn 0.000000 -1.000000 0.000000
vn 1.000000 0.000000 0.000000
vn 1.000000 0.000000 0.000000
vn 1.000000 0.000000 0.000000
vn 1.000000 0.000000 0.000000
vn -1.000000 0.000000 0.000000
vn -1.000000 0.000000 0.000000
vn -1.000000 0.000000 0.000000
vn -1.000000 0.000000 0.000000
vn 0.000000 0.707107 0.707107
vn 0.000000 0.707107 0.707107
vn 0.000000 0.707107 0.707107
vn 0.000000 0.707107 0.707107
vn 0.000000 0.707107 -0.707107
vn 0.000000 0.707107 -0.707107
vn 0.000000 0.707107 -0.707107
vn 0.000000 0.707107 -0.707107
vn 0.000000 -0.707107 0.707107
vn 0.000000 -0.707107 0.707107
vn 0.000000 -0.707107 0.707107
vn 0.000000 -0.707107 0.707107
vn 0.000000 -0.707107 -0.707107
vn 0.000000 -0.707107 -0.707107
vn 0.000000 -0.707107 -0.707107
vn 0.000000 -0.707107 -0.707107
vn 0.707107 0.000000 0.707107
vn 0.707107 0.000000 0.707107
vn 0.707107 0.000000 0.707107
vn 0.707107 0.000000 0.707107
vn 0.707107 0.000000 -0.707107
vn 0.707107 0.000000 -0.707107
vn 0.707107 0.000000 -0.707107
vn 0.707107 0.000000 -0.707107
vn -0.707107 0.000000 0.707107
vn -0.707107 0.000000 0.707107
vn -0.707107 0.000000 0.707107
vn -0.707107 0.000000 0.707107
vn -0.707107 0.000000 -0.707107
vn -0.707107 0.000000 -0.707107
vn -0.707107 0.000000 -0.707107
vn -0.707107 0.000000 -0.707107
vn 0.707107 0.707107 0.000000
vn 0.707107 0.707107 0.000000
vn 0.707107 0.707107 0.000000
vn 0.707107 0.707107 0.000000
vn 0.707107 -0.707107 0.000000
vn 0.707107 -0.707107 0.000000
vn 0.707107 -0.707107 0.000000
vn 0.707107 -0.707107 0.000000
vn -0.707107 0.707107 0.000000
vn -0.707107 0.707107 0.000000
vn -0.707107 0.707107 0.000000
vn -0.707107 0.707107 0.000000
vn -0.707107 -0.707107 0.000000
vn -0.707107 -0.707107 0.000000
vn -0.707107 -0.707107 0.000000
vn -0.707107 -0.707107 0.000000
vn -0.577350 -0.577350 -0.577350
vn -0.577350 -0.577350 -0.577350
vn -0.577350 -0.577350 -0.577350
vn -0.577350 -0.577350 0.577350
vn -0.577350 -0.577350 0.577350
vn -0.577350 -0.577350 0.577350
vn -0.577350 0.577350 -0.577350
vn -0.577350 0.577350 -0.577350
vn -0.577350 0.577350 -0.577350
vn -0.577350 0.577350 0.577350
vn -0.577350 0.577350 0.577350
vn -0.577350 0.577350 0.577350
vn 0.577350 -0.577350 -0.577350
vn 0.577350 -0.577350 -0.577350
vn 0.577350 -0.577350 -0.577350
vn 0.577350 -0.577350 0.577350
vn 0.577350 -0.577350 0.577350
vn 0.577350 -0.577350 0.577350
vn 0.577350 0.577350 -0.577350
vn 0.577350 0.577350 -0.577350
vn 0.577350 0.577350 -0.577350
vn 0.577350 0.577350 0.577350
vn 0.577350 0.577350 0.577350
vn 0.577350 0.577350 0.577350
f 1/1/1 2/2/2 31/31/31
f 1/1/1 31/31/31 30/30/30
f 2/2/2 3/3/3 32/32/32
f 2/2/2 32/32/32 31/31/31
f 3/3/3 4/4/4 33/33/33
f 3/3/3 33/33/33 32/32/32
f 4/4/4 5/5/5 34/34/34
f 4/4/4 34/34/34 33/33/33
f 5/5/5 6/6/6 35/35/35
f 5/5/5 35/35/35 34/34/34
f 6/6/6 7/7/7 36/36/36
f 6/6/6 36/36/36 35/35/35
f 7/7/7 8/8/8 37/37/37
f 7/7/7 37/37/37 36/36/36
f 8/8/8 9/9/9 38/38/38
f 8/8/8 38/38/38 37/37/37
f 9/9/9 10/10/10 39/39/39
f 9/9/9 39/39/39 38/38/38
f 10/10/10 11/11/11 40/40/40
f 10/10/10 40/40/40 39/39/39
f 11/11/11 12/12/12 41/41/41
f 11/11/11 41/41/41 40/40/40
f 12/12/12 13/13/13 42/42/42
f 12/12/12 42/42/42 41/41/41
f 13/13/13 14/14/14 43/43/43
f 13/13/13 43/43/43 42/42/42
f 14/14/14 15/15/15 44/44/44
f 14/14/14 44/44/44 43/43/43
f 15/15/15 16/16/16 45/45/45
f 15/15/15 45/45/45 44/44/44
f 16/16/16 17/17/17 46/46/46
f 16/16/16 46/46/46 45/45/45
f 17/17/17 18/18/18 47/47/47
f 17/17/17 47/47/47 46/46/46
f 18/18/18 19/19/19 48/48/48
f 18/18/18 48/48/48 47/47/47
f 19/19/19 20/20/20 49/49/49
f 19/19/19 49/49/49 48/48/48
f 20/20/20 21/21/21 50/50/50
f 20/20/20 50/50/50 49/49/49
f 21/21/21 22/22/22 51/51/51
f 21/21/21 51/51/51 50/50/50
f 22/22/22 23/23/23 52/52/52
f 22/22/22 52/52/52 51/51/51
f 23/23/23 24/24/24 53/53/53
f 23/23/23 53/53/53 52/52/52
f 24/24/24 25/25/25 54/54/54
f 24/24/24 54/54/54 53/53/53
f 25/25/25 26/26/26 55/55/55
f 25/25/25 55/55/55 54/54/54
f 26/26/26 27/27/27 56/56/56
f 26/26/26 56/56/56 55/55/55
f 27/27/27 28/28/28 57/57/57
f 27/27/27 57/57/57 56/56/56
f 28/28/28 29/29/29 58/58/58
f 28/28/28 58/58/58 57/57/57
f 30/30/30 31/31/31 60/60/60
f 30/30/30 60/60/60 59/59/59
f 31/31/31 32/32/32 61/61/61
f 31/31/31 61/61/61 60/60/60
f 32/32/32 33/33/33 62/62/62
f 32/32/32 62/62/62 61/61/61
f 33/33/33 34/34/34 63/63/63
f 33/33/33 63/63/63 62/62/62
f 34/34/34 35/35/35 64/64/64
f 34/34/34 64/64/64 63/63/63
f 35/35/35 36/36/36 65/65/65
f 35/35/35 65/65/65 64/64/64
f 36/36/36 37/37/37 66/66/66
f 36/36/36 66/66/66 65/65/65
f 37/37/37 38/38/38 67/67/67
f 37/37/37 67/67/67 66/66/66
f 38/38/38 39/39/39 68/68/68
f 38/38/38 68/68/68 67/67/67
f 39/39/39 40/40/40 69/69/69
f 39/39/39 69/69/69 68/68/68
f 40/40/40 41/41/41 70/70/70
f 40/40/40 70/70/70 69/69/69
f 41/41/41 42/42/42 71/71/71
f 41/41/41 71/71/71 70/70/70
f 42/42/42 43/43/43 72/72/72
f 42/42/42 72/72/72 71/71/71
f 43/43/43 44/44/44 73/73/73
f 43/43/43 73/73/73 72/72/72
f 44/44/44 45/45/45 74/74/74
f 44/44/44 74/74/74 73/73/73
f 45/45/45 46/46/46 75/75/75
f 45/45/45 75/75/75 74/74/74
f 46/46/46 47/47/47 76/76/76
f 46/46/46 76/76/76 75/75/75
f 47/47/47 48/48/48 77/77/77
f 47/47/47 77/77/77 76/76/76
f 48/48/48 49/49/49 78/78/78
f 48/48/48 78/78/78 77/77/77
f 49/49/49 50/50/50 79/79/79
f 49/49/49 79/79/79 78/78/78
f 50/50/50 51/51/51 80/80/80
f 50/50/50 80/80/80 79/79/79
f 51/51/51 52/52/52 81/81/81
f 51/51/51 81/81/81 80/80/80
f 52/52/52 53/53/53 82/82/82
f 52/52/52 82/82/82 81/81/81
f 53/53/53 54/54/54 83/83/83
f 53/53/53 83/83/83 82/82/82
f 54/54/54 55/55/55 84/84/84
f 54/54/54 84/84/84 83/83/83
f 55/55/55 56/56/56 85/85/85
f 55/55/55 85/85/85 84/84/84
f 56/56/56 57/57/57 86/86/86
f 56/56/56 86/86/86 85/85/85
f 57/57/57 58/58/58 87/87/87
f 57/57/57 87/87/87 86/86/86
f 59/59/59 60/60/60 89/89/89
f 59/59/59 89/89/89 88/88/88
f 60/60/60 61/61/61 90/90/90
f 60/60/60 90/90/90 89/89/89
f 61/61/61 62/62/62 91/91/91
f 61/61/61 91/91/91 90/90/90
f 62/62/62 63/63/63 92/92/92
f 62/62/62 92/92/92 91/91/91
f 63/63/63 64/64/64 93/93/93
f 63/63/63 93/93/93 92/92/92
f 64/64/64 65/65/65 94/94/94
f 64/64/64 94/94/94 93/93/93
f 65/65/65 66/66/66 95/95/95
f 65/65/65 95/95/95 94/94/94
f 66/66/66 67/67/67 96/96/96
f 66/66/66 96/96/96 95/95/95
f 67/67/67 68/68/68 97/97/97
f 67/67/67 97/97/97 96/96/96
f 68/68/68 69/69/69 98/98/98
f 68/68/68 98/98/98 97/97/97
f 69/69/69 70/70/70 99/99/99
f 69/69/69 99/99/99 98/98/98
f 70/70/70 71/71/71 100/100/100
f 70/70/70 100/100/100 99/99/99
f 71/71/71 72/72/72 101/101/101
f 71/71/71 101/101/101 100/100/100
f 72/72/72 73/73/73 102/102/102
f 72/72/72 102/102/102 101/101/101
f 73/73/73 74/74/74 103/103/103
f 73/73/73 103/103/103 102/102/102
f 74/74/74 75/75/75 104/104/104
f 74/74/74 104/104/104 103/103/103
f 75/75/75 76/76/76 105/105/105
f 75/75/75 105/105/105 104/104/104
f 76/76/76 77/77/77 106/106/106
f 76/76/76 106/106/106 105/105/105
f 77/77/77 78/78/78 107/107/107
f 77/77/77 107/107/107 106/106/106
f 78/78/78 79/79/79 108/108/108
f 78/78/78 108/108/108 107/107/107
f 79/79/79 80/80/80 109/109/109
f 79/79/79 109/109/109 108/108/108
f 80/80/80 81/81/81 110/110/110
f 80/80/80 110/110/110 109/109/109
f 81/81/81 82/82/82 111/111/111
f 81/81/81 111/111/111 110/110/110
f 82/82/82 83/83/83 112/112/112
f 82/82/82 112/112/112 111/111/111
f 83/83/83 84/84/84 113/113/113
f 83/83/83 113/113/113 112/112/112
f 84/84/84 85/85/85 114/114/114
f 84/84/84 114/114/114 113/113/113
f 85/85/85 86/86/86 115/115/115
f 85/85/85 115/115/115 114/114/114
f 86/86/86 87/87/87 116/116/116
f 86/86/86 116/116/116 115/115/115
f 88/88/88 89/89/89 118/118/118
f 88/88/88 118/118/118 117/117/117
f 89/89/89 90/90/90 119/119/119
f 89/89/89 119/119/119 118/118/118
f 90/90/90 91/91/91 120/120/120
f 90/90/90 120/120/120 119/119/119
f 91/91/91 92/92/92 121/121/121
f 91/91/91 121/121/121 120/120/120
f 92/92/92 93/93/93 122/122/122
f 92/92/92 122/122/122 121/121/121
f 93/93/93 94/94/94 123/123/123
f 93/93/93 123/123/123 122/122/122
f 94/94/94 95/95/95 124/124/124
f 94/94/94 124/124/124 123/123/123
f 95/95/95 96/96/96 125/125/125
f 95/95/95 125/125/125 124/124/124
f 96/96/96 97/97/97 126/126/126
f 96/96/96 126/126/126 125/125/125
f 97/97/97 98/98/98 127/127/127
f 97/97/97 127/127/127 126/126/126
f 98/98/98 99/99/99 128/128/128
f 98/98/98 128/128/128 127/127/127
f 99/99/99 100/100/100 129/129/129
f 99/99/99 129/129/129 128/128/128
f 100/100/100 101/101/101 130/130/130
f 100/100/100 130/130/130 129/129/129
f 101/101/101 102/102/102 131/131/131
f 101/101/101 131/131/131 130/130/130
f 102/102/102 103/103/103 132/132/132
f 102/102/102 132/132/132 131/131/131
f 103/103/103 104/104/104 133/133/133
f 103/103/103 133/133/133 132/132/132
f 104/104/104 105/105/105 134/134/134
f 104/104/104 134/134/134 133/133/133
f 105/105/105 106/106/106 135/135/135
f 105/105/105 135/135/135 134/134/134
f 106/106/106 107/107/107 136/136/136
f 106/106/106 136/136/136 135/135/135
f 107/107/107 108/108/108 137/137/137
f 107/107/107 137/137/137 136/136/136
f 108/108/108 109/109/109 138/138/138
f 108/108/108 138/138/138 137/137/137
f 109/109/109 110/110/110 139/139/139
f 109/109/109 139/139/139 138/138/138
f 110/110/110 111/111/111 140/140/140
f 110/110/110 140/140/140 139/139/139
f 111/111/111 112/112/112 141/141/141
f 111/111/111 141/141/141 140/140/140
f 112/112/112 113/113/113 142/142/142
f 112/112/112 142/142/142 141/141/141
f 113/113/113 114/114/114 143/143/143
f 113/113/113 143/143/143 142/142/142
f 114/114/114 115/115/115 144/144/144
f 114/114/114 144/144/144 143/143/143
f 115/115/115 116/116/116 145/145/145
f 115/115/115 145/145/145 144/144/144
f 117/117/117 118/118/118 147/147/147
f 117/117/117 147/147/147 146/146/146
f 118/118/118 119/119/119 148/148/148
f 118/118/118 148/148/148 147/147/147
f 119/119/119 120/120/120 149/149/149
f 119/119/119 149/149/149 148/148/148
f 120/120/120 121/121/121 150/150/150
f 120/120/120 150/150/150 149/149/149
f 121/121/121 122/122/122 151/151/151
f 121/121/121 151/151/151 150/150/150
f 122/122/122 123/123/123 152/152/152
f 122/122/122 152/152/152 151/151/151
f 123/123/123 124/124/124 153/153/153
f 123/123/123 153/153/153 152/152/152
f 124/124/124 125/125/125 154/154/154
f 124/124/124 154/154/154 153/153/153
f 125/125/125 126/126/126 155/155/155
f 125/125/125 155/155/155 154/154/154
f 126/126/126 127/127/127 156/156/156
f 126/126/126 156/156/156 155/155/155
f 127/127/127 128/128/128 157/157/157
f 127/127/127 157/157/157 156/156/156
f 128/128/128 129/129/129 158/158/158
f 128/128/128 158/158/158 157/157/157
f 129/129/129 130/130/130 159/159/159
f 129/129/129 159/159/159 158/158/158
f 130/130/130 131/131/131 160/160/160
f 130/130/130 160/160/160 159/159/159
f 131/131/131 132/132/132 161/161/161
f 131/131/131 161/161/161 160/160/160
f 132/132/132 133/133/133 162/162/162
f 132/132/132 162/162/162 161/161/161
f 133/133/133 134/134/134 163/163/163
f 133/133/133 163/163/163 162/162/162
f 134/134/134 135/135/135 164/164/164
f 134/134/134 164/164/164 163/163/163
f 135/135/135 136/136/136 165/165/165
f 135/135/135 165/165/165 164/164/164
f 136/136/136 137/137/137 166/166/166
f 136/136/136 166/166/166 165/165/165
f 137/137/137 138/138/138 167/167/167
f 137/137/137 167/167/167 166/166/166
f 138/138/138 139/139/139 168/168/168
f 138/138/138 168/168/168 167/167/167
f 139/139/139 140/140/140 169/169/169
f 139/139/139 169/169/169 168/168/168
f 140/140/140 141/141/141 170/170/170
f 140/140/140 170/170/170 169/169/169
f 141/141/141 142/142/142 171/171/171
f 141/141/141 171/171/171 170/170/170
f 142/142/142 143/143/143 172/172/172
f 142/142/142 172/172/172 171/171/171
f 143/143/143 144/144/144 173/173/173
f 143/143/143 173/173/173 172/172/172
f 144/144/144 145/145/145 174/174/174
f 144/144/144 174/174/174 173/173/173
f 146/146/146 147/147/147 176/176/176
f 146/146/146 176/176/176 175/175/175
f 147/147/147 148/148/148 177/177/177
f 147/147/147 177/177/177 176/176/176
f 148/148/148 149/149/149 178/178/178
f 148/148/148 178/178/178 177/177/177
f 149/149/149 150/150/150 179/179/179
f 149/149/149 179/179/179 178/178/178
f 150/150/150 151/151/151 180/180/180
f 150/150/150 180/180/180 179/179/179
f 151/151/151 152/152/152 181/181/181
f 151/151/151 181/181/181 180/180/180
f 152/152/152 153/153/153 182/182/182
f 152/152/152 182/182/182 181/181/181
f 153/153/153 154/154/154 183/183/183
f 153/153/153 183/183/183 182/182/182
f 154/154/154 155/155/155 184/184/184
f 154/154/154 184/184/184 183/183/183
f 155/155/155 156/156/156 185/185/185
f 155/155/155 185/185/185 184/184/184
f 156/156/156 157/157/157 186/186/186
f 156/156/156 186/186/186 185/185/185
f 157/157/157 158/158/158 187/187/187
f 157/157/157 187/187/187 186/186/186
f 158/158/158 159/159/159 188/188/188
f 158/158/158 188/188/188 187/187/187
f 159/159/159 160/160/160 189/189/189
f 159/159/159 189/189/189 188/188/188
f 160/160/160 161/161/161 190/190/190
f 160/160/160 190/190/190 189/189/189
f 161/161/161 162/162/162 191/191/191
f 161/161/161 191/191/191 190/190/190
f 162/162/162 163/163/163 192/192/192
f 162/162/162 192/192/192 191/191/191
f 163/163/163 164/164/164 193/193/193
f 163/163/163 193/193/193 192/192/192
f 164/164/164 165/165/165 194/194/194
f 164/164/164 194/194/194 193/193/193
f 165/165/165 166/166/166 195/195/195
f 165/165/165 195/195/195 194/194/194
f 166/166/166 167/167/167 196/196/196
f 166/166/166 196/196/196 195/195/195
f 167/167/167 168/168/168 197/197/197
f 167/167/167 197/197/197 196/196/196
f 168/168/168 169/169/169 198/198/198
f 168/168/168 198/198/198 197/197/197
f 169/169/169 170/170/170 199/199/199
f 169/169/169 199/199/199 198/198/198
f 170/170/170 171/171/171 200/200/200
f 170/170/170 200/200/200 199/199/199
f 171/171/171 172/172/172 201/201/201
f 171/171/171 201/201/201 200/200/200
f 172/172/172 173/173/173 202/202/202
f 172/172/172 202/202/202 201/201/201
f 173/173/173 174/174/174 203/203/203
f 173/173/173 203/203/203 202/202/202
f 175/175/175 176/176/176 205/205/205
f 175/175/175 205/205/205 204/204/204
f 176/176/176 177/177/177 206/206/206
f 176/176/176 206/206/206 205/205/205
f 177/177/177 178/178/178 207/207/207
f 177/177/177 207/207/207 206/206/206
f 178/178/178 179/179/179 208/208/208
f 178/178/178 208/208/208 207/207/207
f 179/179/179 180/180/180 209/209/209
f 179/179/179 209/209/209 208/208/208
f 180/180/180 181/181/181 210/210/210
f 180/180/180 210/210/210 209/209/209
f 181/181/181 182/182/182 211/211/211
f 181/181/181 211/211/211 210/210/210
f 182/182/182 183/183/183 212/212/212
f 182/182/182 212/212/212 211/211/211
f 183/183/183 184/184/184 213/213/213
f 183/183/183 213/213/213 212/212/212
f 184/184/184 185/185/185 214/214/214
f 184/184/184 214/214/214 213/213/213
f 185/185/185 186/186/186 215/215/215
f 185/185/185 215/215/215 214/214/214
f 186/186/186 187/187/187 216/216/216
f 186/186/186 216/216/216 215/215/215
f 187/187/187 188/188/188 217/217/217
f 187/187/187 217/217/217 216/216/216
f 188/188/188 189/189/189 218/218/218
f 188/188/188 218/218/218 217/217/217
f 189/189/189 190/190/190 219/219/219
f 189/189/189 219/219/219 218/218/218
f 190/190/190 191/191/191 220/220/220
f 190/190/190 220/220/220 219/219/219
f 191/191/191 192/192/192 221/221/221
f 191/191/191 221/221/221 220/220/220
f 192/192/192 193/193/193 222/222/222
f 192/192/192 222/222/222 221/221/221
f 193/193/193 194/194/194 223/223/223
f 193/193/193 223/223/223 222/222/222
f 194/194/194 195/195/195 224/224/224
f 194/194/194 224/224/224 223/223/223
f 195/195/195 196/196/196 225/225/225
f 195/195/195 225/225/225 224/224/224
f 196/196/196 197/197/197 226/226/226
f 196/196/196 226/226/226 225/225/225
f 197/197/197 198/198/198 227/227/227
f 197/197/197 227/227/227 226/226/226
f 198/198/198 199/199/199 228/228/228
f 198/198/198 228/228/228 227/227/227
f 199/199/199 200/200/200 229/229/229
f 199/199/199 229/229/229 228/228/228
f 200/200/200 201/201/201 230/230/230
f 200/200/200 230/230/230 229/229/229
f 201/201/201 202/202/202 231/231/231
f 201/201/201 231/231/231 230/230/230
f 202/202/202 203/203/203 232/232/232
f 202/202/202 232/232/232 231/231/231
f 204/204/204 205/205/205 234/234/234
f 204/204/204 234/234/234 233/233/233
f 205/205/205 206/206/206 235/235/235
f 205/205/205 235/235/235 234/234/234
f 206/206/206 207/207/207 236/236/236
f 206/206/206 236/236/236 235/235/235
f 207/207/207 208/208/208 237/237/237
f 207/207/207 237/237/237 236/236/236
f 208/208/208 209/209/209 238/238/238
f 208/208/208 238/238/238 237/237/237
f 209/209/209 210/210/210 239/239/239
f 209/209/209 239/239/239 238/238/238
f 210/210/210 211/211/211 240/240/240
f 210/210/210 240/240/240 239/239/239
f 211/211/211 212/212/212 241/241/241
f 211/211/211 241/241/241 240/240/240
f 212/212/212 213/213/213 242/242/242
f 212/212/212 242/242/242 241/241/241
f 213/213/213 214/214/214 243/243/243
f 213/213/213 243/243/243 242/242/242
f 214/214/214 215/215/215 244/244/244
f 214/214/214 244/244/244 243/243/243
f 215/215/215 216/216/216 245/245/245
f 215/215/215 245/245/245 244/244/244
f 216/216/216 217/217/217 246/246/246
f 216/216/216 246/246/246 245/245/245
f 217/217/217 218/218/218 247/247/247
f 217/217/217 247/247/247 246/246/246
f 218/218/218 219/219/219 248/248/248
f 218/218/218 248/248/248 247/247/247
f 219/219/219 220/220/220 249/249/249
f 219/219/219 249/249/249 248/248/248
f 220/220/220 221/221/221 250/250/250
f 220/220/220 250/250/250 249/249/249
f 221/221/221 222/222/222 251/251/251
f 221/221/221 251/251/251 250/250/250
f 222/222/222 223/223/223 252/252/252
f 222/222/222 252/252/252 251/251/251
f 223/223/223 224/224/224 253/253/253
f 223/223/223 253/253/253 252/252/252
f 224/224/224 225/225/225 254/254/254
f 224/224/224 254/254/254 253/253/253
f 225/225/225 226/226/226 255/255/255
f 225/225/225 255/255/255 254/254/254
f 226/226/226 227/227/227 256/256/256
f 226/226/226 256/256/256 255/255/255
f 227/227/227 228/228/228 257/257/257
f 227/227/227 257/257/257 256/256/256
f 228/228/228 229/229/229 258/258/258
f 228/228/228 258/258/258 257/257/257
f 229/229/229 230/230/230 259/259/259
f 229/229/229 259/259/259 258/258/258
f 230/230/230 231/231/231 260/260/260
f 230/230/230 260/260/260 259/259/259
f 231/231/231 232/232/232 261/261/261
f 231/231/231 261/261/261 260/260/260
f 233/233/233 234/234/234 263/263/263
f 233/233/233 263/263/263 262/262/262
f 234/234/234 235/235/235 264/264/264
f 234/234/234 264/264/264 263/263/263
f 235/235/235 236/236/236 265/265/265
f 235/235/235 265/265/265 264/264/264
f 236/236/236 237/237/237 266/266/266
f 236/236/236 266/266/266 265/265/265
f 237/237/237 238/238/238 267/267/267
f 237/237/237 267/267/267 266/266/266
f 238/238/238 239/239/239 268/268/268
f 238/238/238 268/268/268 267/267/267
f 239/239/239 240/240/240 269/269/269
f 239/239/239 269/269/269 268/268/268
f 240/240/240 241/241/241 270/270/270
f 240/240/240 270/270/270 269/269/269
f 241/241/241 242/242/242 271/271/271
f 241/241/241 271/271/271 270/270/270
f 242/242/242 243/243/243 272/272/272
f 242/242/242 272/272/272 271/271/271
f 243/243/243 244/244/244 273/273/273
f 243/243/243 273/273/273 272/272/272
f 244/244/244 245/245/245 274/274/274
f 244/244/244 274/274/274 273/273/273
f 245/245/245 246/246/246 275/275/275
f 245/245/245 275/275/275 274/274/274
f 246/246/246 247/247/247 276/276/276
f 246/246/246 276/276/276 275/275/275
f 247/247/247 248/248/248 277/277/277
f 247/247/247 277/277/277 276/276/276
f 248/248/248 249/249/249 278/278/278
f 248/248/248 278/278/278 277/277/277
f 249/249/249 250/250/250 279/279/279
f 249/249/249 279/279/279 278/278/278
f 250/250/250 251/251/251 280/280/280
f 250/250/250 280/280/280 279/279/279
f 251/251/251 252/252/252 281/281/281
f 251/251/251 281/281/281 280/280/280
f 252/252/252 253/253/253 282/282/282
f 252/252/252 282/282/282 281/281/281
f 253/253/253 254/254/254 283/283/283
f 253/253/253 283/283/283 282/282/282
f 254/254/254 255/255/255 284/284/284
f 254/254/254 284/284/284 283/283/283
f 255/255/255 256/256/256 285/285/285
f 255/255/255 285/285/285 284/284/284
f 256/256/256 257/257/257 286/286/286
f 256/256/256 286/286/286 285/285/285
f 257/257/257 258/258/258 287/287/287
f 257/257/257 287/287/287 286/286/286
f 258/258/258 259/259/259 288/288/288
f 258/258/258 288/288/288 287/287/287
f 259/259/259 260/260/260 289/289/289
f 259/259/259 289/289/289 288/288/288
f 260/260/260 261/261/261 290/290/290
f 260/260/260 290/290/290 289/289/289
f 262/262/262 263/263/263 292/292/292
f 262/262/262 292/292/292 291/291/291
f 263/263/263 264/264/264 293/293/293
f 263/263/263 293/293/293 292/292/292
f 264/264/264 265/265/265 294/294/294
f 264/264/264 294/294/294 293/293/293
f 265/265/265 266/266/266 295/295/295
f 265/265/265 295/295/295 294/294/294
f 266/266/266 267/267/267 296/296/296
f 266/266/266 296/296/296 295/295/295
f 267/267/267 268/268/268 297/297/297
f 267/267/267 297/297/297 296/296/296
f 268/268/268 269/269/269 298/298/298
f 268/268/268 298/298/298 297/297/297
f 269/269/269 270/270/270 299/299/299
f 269/269/269 299/299/299 298/298/298
f 270/270/270 271/271/271 300/300/300
f 270/270/270 300/300/300 299/299/299
f 271/271/271 272/272/272 301/301/301
f 271/271/271 301/301/301 300/300/300
f 272/272/272 273/273/273 302/302/302
f 272/272/272 302/302/302 301/301/301
f 273/273/273 274/274/274 303/303/303
f 273/273/273 303/303/303 302/302/302
f 274/274/274 275/275/275 304/304/304
f 274/274/274 304/304/304 303/303/303
f 275/275/275 276/276/276 305/305/305
f 275/275/275 305/305/305 304/304/304
f 276/276/276 277/277/277 306/306/306
f 276/276/276 306/306/306 305/305/305
f 277/277/277 278/278/278 307/307/307
f 277/277/277 307/307/307 306/306/306
f 278/278/278 279/279/279 308/308/308
f 278/278/278 308/308/308 307/307/307
f 279/279/279 280/280/280 309/309/309
f 279/279/279 309/309/309 308/308/308
f 280/280/280 281/281/281 310/310/310
f 280/280/280 310/310/310 309/309/309
f 281/281/281 282/282/282 311/311/311
f 281/281/281 311/311/311 310/310/310
f 282/282/282 283/283/283 312/312/312
f 282/282/282 312/312/312 311/311/311
f 283/283/283 284/284/284 313/313/313
f 283/283/283 313/313/313 312/312/312
f 284/284/284 285/285/285 314/314/314
f 284/284/284 314/314/314 313/313/313
f 285/285/285 286/286/286 315/315/315
f 285/285/285 315/315/315 314/314/314
f 286/286/286 287/287/287 316/316/316
f 286/286/286 316/316/316 315/315/315
f 287/287/287 288/288/288 317/317/317
f 287/287/287 317/317/317 316/316/316
f 288/288/288 289/289/289 318/318/318
f 288/288/288 318/318/318 317/317/317
f 289/289/289 290/290/290 319/319/319
f 289/289/289 319/319/319 318/318/318
f 320/320/320 328/328/328 329/329/329
f 320/320/320 329/329/329 321/321/321
f 321/321/321 329/329/329 330/330/330
f 321/321/321 330/330/330 322/322/322
f 322/322/322 330/330/330 331/331/331
f 322/322/322 331/331/331 323/323/323
f 323/323/323 331/331/331 332/332/332
f 323/323/323 332/332/332 324/324/324
f 324/324/324 332/332/332 333/333/333
f 324/324/324 333/333/333 325/325/325
f 325/325/325 333/333/333 334/334/334
f 325/325/325 334/334/334 326/326/326
f 326/326/326 334/334/334 335/335/335
f 326/326/326 335/335/335 327/327/327
f 327/327/327 335/335/335 328/328/328
f 327/327/327 328/328/328 320/320/320
f 328/328/328 336/336/336 337/337/337
f 328/328/328 337/337/337 329/329/329
f 329/329/329 337/337/337 338/338/338
f 329/329/329 338/338/338 330/330/330
f 330/330/330 338/338/338 339/339/339
f 330/330/330 339/339/339 331/331/331
f 331/331/331 339/339/339 340/340/340
f 331/331/331 340/340/340 332/332/332
f 332/332/332 340/340/340 341/341/341
f 332/332/332 341/341/341 333/333/333
f 333/333/333 341/341/341 342/342/342
f 333/333/333 342/342/342 334/334/334
f 334/334/334 342/342/342 343/343/343
f 334/334/334 343/343/343 335/335/335
f 335/335/335 343/343/343 336/336/336
f 335/335/335 336/336/336 328/328/328
f 336/336/336 344/344/344 345/345/345
f 336/336/336 345/345/345 337/337/337
f 337/337/337 345/345/345 346/346/346
f 337/337/337 346/346/346 338/338/338
f 338/338/338 346/346/346 347/347/347
f 338/338/338 347/347/347 339/339/339
f 339/339/339 347/347/347 348/348/348
f 339/339/339 348/348/348 340/340/340
f 340/340/340 348/348/348 349/349/349
f 340/340/340 349/349/349 341/341/341
f 341/341/341 349/349/349 350/350/350
f 341/341/341 350/350/350 342/342/342
f 342/342/342 350/350/350 351/351/351
f 342/342/342 351/351/351 343/343/343
f 343/343/343 351/351/351 344/344/344
f 343/343/343 344/344/344 336/336/336
f 352/352/352 321/321/321 320/320/320
f 352/352/352 322/322/322 321/321/321
f 352/352/352 323/323/323 322/322/322
f 352/352/352 324/324/324 323/323/323
f 352/352/352 325/325/325 324/324/324
f 352/352/352 326/326/326 325/325/325
f 352/352/352 327/327/327 326/326/326
f 352/352/352 320/320/320 327/327/327
f 353/353/353 344/344/344 345/345/345
f 353/353/353 345/345/345 346/346/346
f 353/353/353 346/346/346 347/347/347
f 353/353/353 347/347/347 348/348/348
f 353/353/353 348/348/348 349/349/349
f 353/353/353 349/349/349 350/350/350
f 353/353/353 350/350/350 351/351/351
f 353/353/353 351/351/351 344/344/344
f 354/354/354 362/362/362 363/363/363
f 354/354/354 363/363/363 355/355/355
f 355/355/355 363/363/363 364/364/364
f 355/355/355 364/364/364 356/356/356
f 356/356/356 364/364/364 365/365/365
f 356/356/356 365/365/365 357/357/357
f 357/357/357 365/365/365 366/366/366
f 357/357/357 366/366/366 358/358/358
f 358/358/358 366/366/366 367/367/367
f 358/358/358 367/367/367 359/359/359
f 359/359/359 367/367/367 368/368/368
f 359/359/359 368/368/368 360/360/360
f 360/360/360 368/368/368 369/369/369
f 360/360/360 369/369/369 361/361/361
f 361/361/361 369/369/369 362/362/362
f 361/361/361 362/362/362 354/354/354
f 362/362/362 370/370/370 371/371/371
f 362/362/362 371/371/371 363/363/363
f 363/363/363 371/371/371 372/372/372
f 363/363/363 372/372/372 364/364/364
f 364/364/364 372/372/372 373/373/373
f 364/364/364 373/373/373 365/365/365
f 365/365/365 373/373/373 374/374/374
f 365/365/365 374/374/374 366/366/366
f 366/366/366 374/374/374 375/375/375
f 366/366/366 375/375/375 367/367/367
f 367/367/367 375/375/375 376/376/376
f 367/367/367 376/376/376 368/368/368
f 368/368/368 376/376/376 377/377/377
f 368/368/368 377/377/377 369/369/369
f 369/369/369 377/377/377 370/370/370
f 369/369/369 370/370/370 362/362/362
f 370/370/370 378/378/378 379/379/379
f 370/370/370 379/379/379 371/371/371
f 371/371/371 379/379/379 380/380/380
f 371/371/371 380/380/380 372/372/372
f 372/372/372 380/380/380 381/381/381
f 372/372/372 381/381/381 373/373/373
f 373/373/373 381/381/381 382/382/382
f 373/373/373 382/382/382 374/374/374
f 374/374/374 382/382/382 383/383/383
f 374/374/374 383/383/383 375/375/375
f 375/375/375 383/383/383 384/384/384
f 375/375/375 384/384/384 376/376/376
f 376/376/376 384/384/384 385/385/385
f 376/376/376 385/385/385 377/377/377
f 377/377/377 385/385/385 378/378/378
f 377/377/377 378/378/378 370/370/370
f 386/386/386 355/355/355 354/354/354
f 386/386/386 356/356/356 355/355/355
f 386/386/386 357/357/357 356/356/356
f 386/386/386 358/358/358 357/357/357
f 386/386/386 359/359/359 358/358/358
f 386/386/386 360/360/360 359/359/359
f 386/386/386 361/361/361 360/360/360
f 386/386/386 354/354/354 361/361/361
f 387/387/387 378/378/378 379/379/379
f 387/387/387 379/379/379 380/380/380
f 387/387/387 380/380/380 381/381/381
f 387/387/387 381/381/381 382/382/382
f 387/387/387 382/382/382 383/383/383
f 387/387/387 383/383/383 384/384/384
f 387/387/387 384/384/384 385/385/385
f 387/387/387 385/385/385 378/378/378
f 388/388/388 394/394/394 395/395/395
f 388/388/388 395/395/395 389/389/389
f 389/389/389 395/395/395 396/396/396
f 389/389/389 396/396/396 390/390/390
f 390/390/390 396/396/396 397/397/397
f 390/390/390 397/397/397 391/391/391
f 391/391/391 397/397/397 398/398/398
f 391/391/391 398/398/398 392/392/392
f 392/392/392 398/398/398 399/399/399
f 392/392/392 399/399/399 393/393/393
f 393/393/393 399/399/399 394/394/394
f 393/393/393 394/394/394 388/388/388
f 394/394/394 400/400/400 401/401/401
f 394/394/394 401/401/401 395/395/395
f 395/395/395 401/401/401 402/402/402
f 395/395/395 402/402/402 396/396/396
f 396/396/396 402/402/402 403/403/403
f 396/396/396 403/403/403 397/397/397
f 397/397/397 403/403/403 404/404/404
f 397/397/397 404/404/404 398/398/398
f 398/398/398 404/404/404 405/405/405
f 398/398/398 405/405/405 399/399/399
f 399/399/399 405/405/405 400/400/400
f 399/399/399 400/400/400 394/394/394
f 400/400/400 406/406/406 407/407/407
f 400/400/400 407/407/407 401/401/401
f 401/401/401 407/407/407 408/408/408
f 401/401/401 408/408/408 402/402/402
f 402/402/402 408/408/408 409/409/409
f 402/402/402 409/409/409 403/403/403
f 403/403/403 409/409/409 410/410/410
f 403/403/403 410/410/410 404/404/404
f 404/404/404 410/410/410 411/411/411
f 404/404/404 411/411/411 405/405/405
f 405/405/405 411/411/411 406/406/406
f 405/405/405 406/406/406 400/400/400
f 412/412/412 389/389/389 388/388/388
f 412/412/412 390/390/390 389/389/389
f 412/412/412 391/391/391 390/390/390
f 412/412/412 392/392/392 391/391/391
f 412/412/412 393/393/393 392/392/392
f 412/412/412 388/388/388 393/393/393
f 413/413/413 406/406/406 407/407/407
f 413/413/413 407/407/407 408/408/408
f 413/413/413 408/408/408 409/409/409
f 413/413/413 409/409/409 410/410/410
f 413/413/413 410/410/410 411/411/411
f 413/413/413 411/411/411 406/406/406
f 414/414/414 420/420/420 421/421/421
f 414/414/414 421/421/421 415/415/415
f 415/415/415 421/421/421 422/422/422
f 415/415/415 422/422/422 416/416/416
f 416/416/416 422/422/422 423/423/423
f 416/416/416 423/423/423 417/417/417
f 417/417/417 423/423/423 424/424/424
f 417/417/417 424/424/424 418/418/418
f 418/418/418 424/424/424 425/425/425
f 418/418/418 425/425/425 419/419/419
f 419/419/419 425/425/425 420/420/420
f 419/419/419 420/420/420 414/414/414
f 420/420/420 426/426/426 427/427/427
f 420/420/420 427/427/427 421/421/421
f 421/421/421 427/427/427 428/428/428
f 421/421/421 428/428/428 422/422/422
f 422/422/422 428/428/428 429/429/429
f 422/422/422 429/429/429 423/423/423
f 423/423/423 429/429/429 430/430/430
f 423/423/423 430/430/430 424/424/424
f 424/424/424 430/430/430 431/431/431
f 424/424/424 431/431/431 425/425/425
f 425/425/425 431/431/431 426/426/426
f 425/425/425 426/426/426 420/420/420
f 426/426/426 432/432/432 433/433/433
f 426/426/426 433/433/433 427/427/427
f 427/427/427 433/433/433 434/434/434
f 427/427/427 434/434/434 428/428/428
f 428/428/428 434/434/434 435/435/435
f 428/428/428 435/435/435 429/429/429
f 429/429/429 435/435/435 436/436/436
f 429/429/429 436/436/436 430/430/430
f 430/430/430 436/436/436 437/437/437
f 430/430/430 437/437/437 431/431/431
f 431/431/431 437/437/437 432/432/432
f 431/431/431 432/432/432 426/426/426
f 438/438/438 415/415/415 414/414/414
f 438/438/438 416/416/416 415/415/415
f 438/438/438 417/417/417 416/416/416
f 438/438/438 418/418/418 417/417/417
f 438/438/438 419/419/419 418/418/418
f 438/438/438 414/414/414 419/419/419
f 439/439/439 432/432/432 433/433/433
f 439/439/439 433/433/433 434/434/434
f 439/439/439 434/434/434 435/435/435
f 439/439/439 435/435/435 436/436/436
f 439/439/439 436/436/436 437/437/437
f 439/439/439 437/437/437 432/432/432
f 440/440/440 446/446/446 447/447/447
f 440/440/440 447/447/447 441/441/441
f 441/441/441 447/447/447 448/448/448
f 441/441/441 448/448/448 442/442/442
f 442/442/442 448/448/448 449/449/449
f 442/442/442 449/449/449 443/443/443
f 443/443/443 449/449/449 450/450/450
f 443/443/443 450/450/450 444/444/444
f 444/444/444 450/450/450 451/451/451
f 444/444/444 451/451/451 445/445/445
f 445/445/445 451/451/451 446/446/446
f 445/445/445 446/446/446 440/440/440
f 446/446/446 452/452/452 453/453/453
f 446/446/446 453/453/453 447/447/447
f 447/447/447 453/453/453 454/454/454
f 447/447/447 454/454/454 448/448/448
f 448/448/448 454/454/454 455/455/455
f 448/448/448 455/455/455 449/449/449
f 449/449/449 455/455/455 456/456/456
f 449/449/449 456/456/456 450/450/450
f 450/450/450 456/456/456 457/457/457
f 450/450/450 457/457/457 451/451/451
f 451/451/451 457/457/457 452/452/452
f 451/451/451 452/452/452 446/446/446
f 452/452/452 458/458/458 459/459/459
f 452/452/452 459/459/459 453/453/453
f 453/453/453 459/459/459 460/460/460
f 453/453/453 460/460/460 454/454/454
f 454/454/454 460/460/460 461/461/461
f 454/454/454 461/461/461 455/455/455
f 455/455/455 461/461/461 462/462/462
f 455/455/455 462/462/462 456/456/456
f 456/456/456 462/462/462 463/463/463
f 456/456/456 463/463/463 457/457/457
f 457/457/457 463/463/463 458/458/458
f 457/457/457 458/458/458 452/452/452
f 464/464/464 441/441/441 440/440/440
f 464/464/464 442/442/442 441/441/441
f 464/464/464 443/443/443 442/442/442
f 464/464/464 444/444/444 443/443/443
f 464/464/464 445/445/445 444/444/444
f 464/464/464 440/440/440 445/445/445
f 465/465/465 458/458/458 459/459/459
f 465/465/465 459/459/459 460/460/460
f 465/465/465 460/460/460 461/461/461
f 465/465/465 461/461/461 462/462/462
f 465/465/465 462/462/462 463/463/463
f 465/465/465 463/463/463 458/458/458
f 466/466/466 467/467/467 468/468/468
f 466/466/466 468/468/468 469/469/469
f 470/470/470 471/471/471 472/472/472
f 470/470/470 472/472/472 473/473/473
f 474/474/474 475/475/475 476/476/476
f 474/474/474 476/476/476 477/477/477
f 478/478/478 479/479/479 480/480/480
f 478/478/478 480/480/480 481/481/481
f 482/482/482 483/483/483 484/484/484
f 482/482/482 484/484/484 485/485/485
f 486/486/486 487/487/487 488/488/488
f 486/486/486 488/488/488 489/489/489
f 490/490/490 491/491/491 492/492/492
f 490/490/490 492/492/492 493/493/493
f 494/494/494 495/495/495 496/496/496
f 494/494/494 496/496/496 497/497/497
f 498/498/498 499/499/499 500/500/500
f 498/498/498 500/500/500 501/501/501
f 502/502/502 503/503/503 504/504/504
f 502/502/502 504/504/504 505/505/505
f 506/506/506 507/507/507 508/508/508
f 506/506/506 508/508/508 509/509/509
f 510/510/510 511/511/511 512/512/512
f 510/510/510 512/512/512 513/513/513
f 514/514/514 515/515/515 516/516/516
f 514/514/514 516/516/516 517/517/517
f 518/518/518 519/519/519 520/520/520
f 518/518/518 520/520/520 521/521/521
f 522/522/522 523/523/523 524/524/524
f 522/522/522 524/524/524 525/525/525
f 526/526/526 527/527/527 528/528/528
f 526/526/526 528/528/528 529/529/529
f 530/530/530 531/531/531 532/532/532
f 530/530/530 532/532/532 533/533/533
f 534/534/534 535/535/535 536/536/536
f 534/534/534 536/536/536 537/537/537
f 538/538/538 540/540/540 539/539/539
f 541/541/541 542/542/542 543/543/543
f 544/544/544 545/545/545 546/546/546
f 547/547/547 549/549/549 548/548/548
f 550/550/550 551/551/551 552/552/552
f 553/553/553 555/555/555 554/554/554
f 556/556/556 558/558/558 557/557/557
f 559/559/559 560/560/560 561/561/561
f 562/562/562 563/563/563 564/564/564
f 562/562/562 564/564/564 565/565/565
f 566/566/566 567/567/567 568/568/568
f 566/566/566 568/568/568 569/569/569
f 570/570/570 571/571/571 572/572/572
f 570/570/570 572/572/572 573/573/573
f 574/574/574 575/575/575 576/576/576
f 574/574/574 576/576/576 577/577/577
f 578/578/578 579/579/579 580/580/580
f 578/578/578 580/580/580 581/581/581
f 582/582/582 583/583/583 584/584/584
f 582/582/582 584/584/584 585/585/585
f 586/586/586 587/587/587 588/588/588
f 586/586/586 588/588/588 589/589/589
f 590/590/590 591/591/591 592/592/592
f 590/590/590 592/592/592 593/593/593
f 594/594/594 595/595/595 596/596/596
f 594/594/594 596/596/596 597/597/597
f 598/598/598 599/599/599 600/600/600
f 598/598/598 600/600/600 601/601/601
f 602/602/602 603/603/603 604/604/604
f 602/602/602 604/604/604 605/605/605
f 606/606/606 607/607/607 608/608/608
f 606/606/606 608/608/608 609/609/609
f 610/610/610 611/611/611 612/612/612
f 610/610/610 612/612/612 613/613/613
f 614/614/614 615/615/615 616/616/616
f 614/614/614 616/616/616 617/617/617
f 618/618/618 619/619/619 620/620/620
f 618/618/618 620/620/620 621/621/621
f 622/622/622 623/623/623 624/624/624
f 622/622/622 624/624/624 625/625/625
f 626/626/626 627/627/627 628/628/628
f 626/626/626 628/628/628 629/629/629
f 630/630/630 631/631/631 632/632/632
f 630/630/630 632/632/632 633/633/633
f 634/634/634 636/636/636 635/635/635
f 637/637/637 638/638/638 639/639/639
f 640/640/640 641/641/641 642/642/642
f 643/643/643 645/645/645 644/644/644
f 646/646/646 647/647/647 648/648/648
f 649/649/649 651/651/651 650/650/650
f 652/652/652 654/654/654 653/653/653
f 655/655/655 656/656/656 657/657/657
