# sandbag_01
mtllib props.mtl
o sandbag_01
usemtl Burlap
v -0.130255 0.209608 -0.011675
v -0.123535 0.206842 -0.011970
v -0.119855 0.220770 -0.015382
v -0.128518 0.216415 -0.008894
v -0.136160 0.213276 0.001315
v -0.127556 0.220620 0.002384
v -0.117245 0.213019 -0.015982
v -0.133035 0.221572 0.000753
v -0.117781 0.214612 0.002479
v -0.124131 0.218063 -0.012602
v -0.130186 0.213322 -0.019026
v -0.130341 0.219567 -0.009747
v -0.018121 0.211572 0.014833
v -0.032932 0.201173 0.050984
v -0.083729 0.198150 0.067541
v -0.148807 0.203120 0.043312
v -0.198098 0.192924 0.027697
v -0.227419 0.194059 0.005697
v -0.228315 0.189021 -0.044725
v -0.230302 0.195437 -0.055739
v -0.173541 0.201668 -0.069928
v -0.108511 0.209364 -0.056592
v -0.057908 0.195305 -0.053273
v -0.028262 0.214798 -0.010511
v 0.072716 0.177478 0.056907
v 0.025324 0.183863 0.104606
v -0.066433 0.188044 0.136117
v -0.164647 0.160752 0.110248
v -0.248181 0.175929 0.071207
v -0.308926 0.143428 0.010364
v -0.324666 0.130301 -0.053299
v -0.275007 0.152540 -0.116580
v -0.185208 0.168297 -0.138987
v -0.091168 0.165525 -0.126175
v 0.002090 0.185774 -0.074953
v 0.059478 0.189280 -0.010716
v 0.142612 0.138485 0.068813
v 0.083588 0.147136 0.118244
v -0.033435 0.137434 0.182996
v -0.169189 0.131687 0.164806
v -0.273650 0.124401 0.106049
v -0.343853 0.094655 0.004473
v -0.367877 0.088148 -0.083344
v -0.313577 0.089435 -0.130998
v -0.200983 0.107055 -0.177790
v -0.063381 0.115056 -0.186398
v 0.059106 0.122115 -0.109319
v 0.117810 0.139351 0.000839
v 0.138249 0.107425 0.077118
v 0.069332 0.094462 0.126718
v -0.042519 0.092646 0.183080
v -0.166962 0.079836 0.180762
v -0.283970 0.075540 0.110746
v -0.354262 0.056703 -0.003672
v -0.382495 0.065659 -0.068607
v -0.328335 0.056765 -0.128592
v -0.197664 0.077189 -0.187380
v -0.070142 0.065155 -0.185220
v 0.050531 0.077779 -0.130786
v 0.120403 0.095540 0.008585
v 0.091944 0.076785 0.047944
v 0.048045 0.064142 0.120897
v -0.045179 0.054586 0.139752
v -0.160544 0.036134 0.139237
v -0.245525 0.046628 0.082843
v -0.313122 0.037026 -0.000254
v -0.326267 0.039290 -0.063936
v -0.265554 0.025253 -0.100078
v -0.181915 0.041787 -0.147444
v -0.077117 0.041649 -0.131525
v 0.028480 0.064002 -0.086970
v 0.080938 0.065646 -0.004463
v 0.013024 0.025054 0.028899
v -0.018571 0.022549 0.055392
v -0.082084 0.014835 0.071229
v -0.127449 0.018264 0.062679
v -0.180298 0.023753 0.043686
v -0.217928 0.025338 0.015004
v -0.226332 0.017050 -0.019760
v -0.204834 0.014360 -0.057111
v -0.141945 0.024838 -0.080700
v -0.103214 0.015705 -0.062382
v -0.035266 0.020608 -0.049451
v -0.003902 0.034929 0.006157
v -0.109603 0.013512 -0.008487
v -0.121778 0.011240 -0.005774
v -0.120465 0.003684 0.010800
v -0.107621 0.016471 0.013890
v -0.099545 0.018848 -0.001015
v -0.123297 0.019122 -0.002613
v -0.107483 0.024027 -0.005538
v -0.110556 0.017242 0.001518
v -0.120510 0.009315 -0.005110
v -0.107916 0.022716 -0.001909
v -0.110394 0.009274 0.013099
v -0.104865 0.015620 0.002211
v 0.166333 0.206591 -0.003764
v 0.164026 0.202359 0.009788
v 0.162314 0.211688 -0.006807
v 0.164851 0.215678 -0.001594
v 0.176273 0.196740 0.005096
v 0.161363 0.199392 -0.007257
v 0.159266 0.206765 -0.007435
v 0.172746 0.215351 -0.008472
v 0.158536 0.213416 0.006525
v 0.165041 0.205776 -0.007099
v 0.166492 0.216900 -0.009581
v 0.172904 0.202913 0.006618
v 0.256594 0.203548 -0.076365
v 0.256826 0.201552 -0.045466
v 0.260148 0.195066 -0.001723
v 0.208768 0.190027 0.052711
v 0.164869 0.194339 0.068508
v 0.115623 0.190742 0.095928
v 0.077600 0.193065 0.079317
v 0.064385 0.198615 0.054422
v 0.070990 0.200290 -0.002921
v 0.128552 0.198810 -0.045733
v 0.171196 0.197973 -0.074442
v 0.216513 0.194132 -0.110487
v 0.325353 0.150933 -0.142309
v 0.346591 0.156732 -0.091521
v 0.316997 0.168961 0.005583
v 0.256988 0.155508 0.089786
v 0.177564 0.159612 0.150038
v 0.081868 0.165869 0.175577
v 0.014684 0.145190 0.140539
v 0.001340 0.163292 0.088370
v 0.006616 0.151726 0.003562
v 0.086978 0.173764 -0.094683
v 0.164556 0.152800 -0.149371
v 0.265544 0.156431 -0.173382
v 0.369256 0.095995 -0.186755
v 0.368074 0.108101 -0.114592
v 0.375771 0.120128 0.027739
v 0.293763 0.108578 0.144077
v 0.190622 0.112042 0.211134
v 0.036274 0.109384 0.210397
v -0.025242 0.094221 0.195719
v -0.044021 0.113865 0.098793
v -0.037416 0.112369 -0.020930
v 0.036255 0.114235 -0.137618
v 0.152066 0.109329 -0.211134
v 0.283754 0.104277 -0.205057
v 0.355472 0.093968 -0.189842
v 0.382495 0.083572 -0.122934
v 0.377133 0.079810 0.027963
v 0.287331 0.077824 0.141467
v 0.195233 0.069966 0.206053
v 0.051226 0.075630 0.209963
v -0.020371 0.085717 0.188328
v -0.040797 0.086045 0.110180
v -0.035272 0.076275 -0.034578
v 0.039459 0.074798 -0.127685
v 0.144029 0.068452 -0.193798
v 0.277564 0.070104 -0.201012
v 0.334589 0.053267 -0.148923
v 0.354341 0.040755 -0.082214
v 0.329058 0.050135 0.017118
v 0.266824 0.033793 0.110369
v 0.172522 0.053563 0.172466
v 0.088660 0.057220 0.179705
v 0.022097 0.048635 0.149818
v -0.019675 0.045524 0.090083
v 0.011885 0.045030 -0.013167
v 0.069142 0.051338 -0.110044
v 0.160296 0.030132 -0.146960
v 0.249983 0.055056 -0.178913
v 0.250811 0.027502 -0.067660
v 0.255590 0.017792 -0.048053
v 0.259083 0.015518 -0.003631
v 0.202711 0.029150 0.052372
v 0.169479 0.023981 0.091328
v 0.128442 0.017825 0.094922
v 0.068365 0.017334 0.082555
v 0.075002 0.017113 0.054703
v 0.072151 0.016030 0.004588
v 0.117765 0.027492 -0.064258
v 0.176754 0.020440 -0.079227
v 0.207690 0.017095 -0.098870
v 0.159015 0.019853 0.006400
v 0.170546 0.015027 -0.000046
v 0.153848 0.018371 0.004481
v 0.152778 0.013104 -0.000182
v 0.166081 0.004717 -0.008152
v 0.166713 0.007575 -0.011038
v 0.178953 0.000000 0.000532
v 0.156144 0.002877 0.002632
v 0.152885 0.015376 -0.001714
v 0.153645 0.018445 0.004492
v 0.155918 0.003897 -0.003673
v 0.174338 0.012325 0.001185
vt 0.000000 0.000000
vt 0.125000 0.000000
vt 0.250000 0.000000
vt 0.375000 0.000000
vt 0.500000 0.000000
vt 0.625000 0.000000
vt 0.750000 0.000000
vt 0.875000 0.000000
vt 1.000000 0.000000
vt 1.125000 0.000000
vt 1.250000 0.000000
vt 1.375000 0.000000
vt 0.000000 0.142857
vt 0.125000 0.142857
vt 0.250000 0.142857
vt 0.375000 0.142857
vt 0.500000 0.142857
vt 0.625000 0.142857
vt 0.750000 0.142857
vt 0.875000 0.142857
vt 1.000000 0.142857
vt 1.125000 0.142857
vt 1.250000 0.142857
vt 1.375000 0.142857
vt 0.000000 0.285714
vt 0.125000 0.285714
vt 0.250000 0.285714
vt 0.375000 0.285714
vt 0.500000 0.285714
vt 0.625000 0.285714
vt 0.750000 0.285714
vt 0.875000 0.285714
vt 1.000000 0.285714
vt 1.125000 0.285714
vt 1.250000 0.285714
vt 1.375000 0.285714
vt 0.000000 0.428571
vt 0.125000 0.428571
vt 0.250000 0.428571
vt 0.375000 0.428571
vt 0.500000 0.428571
vt 0.625000 0.428571
vt 0.750000 0.428571
vt 0.875000 0.428571
vt 1.000000 0.428571
vt 1.125000 0.428571
vt 1.250000 0.428571
vt 1.375000 0.428571
vt 0.000000 0.571429
vt 0.125000 0.571429
vt 0.250000 0.571429
vt 0.375000 0.571429
vt 0.500000 0.571429
vt 0.625000 0.571429
vt 0.750000 0.571429
vt 0.875000 0.571429
vt 1.000000 0.571429
vt 1.125000 0.571429
vt 1.250000 0.571429
vt 1.375000 0.571429
vt 0.000000 0.714286
vt 0.125000 0.714286
vt 0.250000 0.714286
vt 0.375000 0.714286
vt 0.500000 0.714286
vt 0.625000 0.714286
vt 0.750000 0.714286
vt 0.875000 0.714286
vt 1.000000 0.714286
vt 1.125000 0.714286
vt 1.250000 0.714286
vt 1.375000 0.714286
vt 0.000000 0.857143
vt 0.125000 0.857143
vt 0.250000 0.857143
vt 0.375000 0.857143
vt 0.500000 0.857143
vt 0.625000 0.857143
vt 0.750000 0.857143
vt 0.875000 0.857143
vt 1.000000 0.857143
vt 1.125000 0.857143
vt 1.250000 0.857143
vt 1.375000 0.857143
vt 0.000000 1.000000
vt 0.125000 1.000000
vt 0.250000 1.000000
vt 0.375000 1.000000
vt 0.500000 1.000000
vt 0.625000 1.000000
vt 0.750000 1.000000
vt 0.875000 1.000000
vt 1.000000 1.000000
vt 1.125000 1.000000
vt 1.250000 1.000000
vt 1.375000 1.000000
vt 0.000000 0.000000
vt 0.125000 0.000000
vt 0.250000 0.000000
vt 0.375000 0.000000
vt 0.500000 0.000000
vt 0.625000 0.000000
vt 0.750000 0.000000
vt 0.875000 0.000000
vt 1.000000 0.000000
vt 1.125000 0.000000
vt 1.250000 0.000000
vt 1.375000 0.000000
vt 0.000000 0.142857
vt 0.125000 0.142857
vt 0.250000 0.142857
vt 0.375000 0.142857
vt 0.500000 0.142857
vt 0.625000 0.142857
vt 0.750000 0.142857
vt 0.875000 0.142857
vt 1.000000 0.142857
vt 1.125000 0.142857
vt 1.250000 0.142857
vt 1.375000 0.142857
vt 0.000000 0.285714
vt 0.125000 0.285714
vt 0.250000 0.285714
vt 0.375000 0.285714
vt 0.500000 0.285714
vt 0.625000 0.285714
vt 0.750000 0.285714
vt 0.875000 0.285714
vt 1.000000 0.285714
vt 1.125000 0.285714
vt 1.250000 0.285714
vt 1.375000 0.285714
vt 0.000000 0.428571
vt 0.125000 0.428571
vt 0.250000 0.428571
vt 0.375000 0.428571
vt 0.500000 0.428571
vt 0.625000 0.428571
vt 0.750000 0.428571
vt 0.875000 0.428571
vt 1.000000 0.428571
vt 1.125000 0.428571
vt 1.250000 0.428571
vt 1.375000 0.428571
vt 0.000000 0.571429
vt 0.125000 0.571429
vt 0.250000 0.571429
vt 0.375000 0.571429
vt 0.500000 0.571429
vt 0.625000 0.571429
vt 0.750000 0.571429
vt 0.875000 0.571429
vt 1.000000 0.571429
vt 1.125000 0.571429
vt 1.250000 0.571429
vt 1.375000 0.571429
vt 0.000000 0.714286
vt 0.125000 0.714286
vt 0.250000 0.714286
vt 0.375000 0.714286
vt 0.500000 0.714286
vt 0.625000 0.714286
vt 0.750000 0.714286
vt 0.875000 0.714286
vt 1.000000 0.714286
vt 1.125000 0.714286
vt 1.250000 0.714286
vt 1.375000 0.714286
vt 0.000000 0.857143
vt 0.125000 0.857143
vt 0.250000 0.857143
vt 0.375000 0.857143
vt 0.500000 0.857143
vt 0.625000 0.857143
vt 0.750000 0.857143
vt 0.875000 0.857143
vt 1.000000 0.857143
vt 1.125000 0.857143
vt 1.250000 0.857143
vt 1.375000 0.857143
vt 0.000000 1.000000
vt 0.125000 1.000000
vt 0.250000 1.000000
vt 0.375000 1.000000
vt 0.500000 1.000000
vt 0.625000 1.000000
vt 0.750000 1.000000
vt 0.875000 1.000000
vt 1.000000 1.000000
vt 1.125000 1.000000
vt 1.250000 1.000000
vt 1.375000 1.000000
vn -0.071563 0.996734 -0.037425
vn -0.071563 0.996734 -0.037425
vn -0.071563 0.996734 -0.037425
vn -0.071563 0.996734 -0.037425
vn -0.071563 0.996734 -0.037425
vn -0.071563 0.996734 -0.037425
vn -0.071563 0.996734 -0.037425
vn -0.071563 0.996734 -0.037425
vn -0.071563 0.996734 -0.037425
vn -0.071563 0.996734 -0.037425
vn -0.071563 0.996734 -0.037425
vn -0.071563 0.996734 -0.037425
vn 0.079067 0.971980 0.221365
vn -0.022243 0.975108 0.220610
vn 0.002507 0.977634 0.210300
vn -0.171851 0.911480 0.373725
vn -0.201714 0.960818 0.190106
vn -0.385029 0.916172 0.111274
vn -0.376107 0.925780 0.038413
vn -0.301349 0.935271 -0.185627
vn -0.111489 0.958931 -0.260811
vn 0.106714 0.913855 -0.391767
vn 0.087590 0.960057 -0.265741
vn 0.148210 0.938841 -0.310823
vn 0.366484 0.917981 0.151655
vn 0.246489 0.918044 0.310547
vn -0.090517 0.864656 0.494142
vn -0.223461 0.856158 0.465896
vn -0.368193 0.846261 0.385066
vn -0.645337 0.754421 0.119957
vn -0.566330 0.818967 -0.092535
vn -0.492304 0.726804 -0.478950
vn -0.087291 0.759804 -0.644265
vn 0.113956 0.822170 -0.557719
vn 0.264720 0.816331 -0.513349
vn 0.462079 0.865574 -0.193039
vn 0.698165 0.698468 0.157186
vn 0.489779 0.428842 0.759086
vn 0.132908 0.464366 0.875614
vn -0.266166 0.637602 0.722925
vn -0.649495 0.467674 0.599530
vn -0.852336 0.388980 0.349597
vn -0.710275 0.679205 -0.184907
vn -0.488817 0.371190 -0.789478
vn -0.236209 0.480814 -0.844407
vn 0.187707 0.526947 -0.828911
vn 0.555233 0.564719 -0.610580
vn 0.799602 0.434296 -0.414757
vn 0.688501 -0.664032 0.291595
vn 0.507976 -0.190693 0.839998
vn 0.223989 -0.475734 0.850591
vn -0.258503 -0.271471 0.927081
vn -0.609543 -0.420877 0.671803
vn -0.772563 -0.448813 0.449126
vn -0.722415 -0.674934 -0.150269
vn -0.395625 -0.621682 -0.676012
vn -0.176373 -0.456885 -0.871865
vn 0.177488 -0.610312 -0.772021
vn 0.638863 -0.545363 -0.542617
vn 0.860380 -0.408493 -0.304761
vn 0.511533 -0.850267 0.124019
vn 0.386642 -0.843164 0.373607
vn 0.158440 -0.835922 0.525482
vn -0.088599 -0.895055 0.437065
vn -0.270735 -0.917849 0.290268
vn -0.244060 -0.952552 0.181878
vn -0.289884 -0.956727 -0.025299
vn -0.153756 -0.943363 -0.293983
vn 0.004220 -0.896849 -0.442316
vn 0.190483 -0.927364 -0.322043
vn 0.348834 -0.899205 -0.264095
vn 0.436957 -0.891293 -0.121098
vn 0.331225 -0.933685 -0.136098
vn 0.178172 -0.969866 0.166178
vn 0.059499 -0.939886 0.336266
vn -0.118997 -0.987364 0.104650
vn -0.130035 -0.986411 0.100416
vn -0.090463 -0.981403 0.169309
vn -0.103808 -0.985901 0.131234
vn 0.016723 -0.994444 -0.103926
vn 0.001338 -0.974823 -0.222975
vn 0.002898 -0.989594 -0.143858
vn 0.277429 -0.951186 -0.135195
vn 0.255165 -0.961428 -0.102703
vn 0.071563 -0.996734 0.037425
vn 0.071563 -0.996734 0.037425
vn 0.071563 -0.996734 0.037425
vn 0.071563 -0.996734 0.037425
vn 0.071563 -0.996734 0.037425
vn 0.071563 -0.996734 0.037425
vn 0.071563 -0.996734 0.037425
vn 0.071563 -0.996734 0.037425
vn 0.071563 -0.996734 0.037425
vn 0.071563 -0.996734 0.037425
vn 0.071563 -0.996734 0.037425
vn 0.071563 -0.996734 0.037425
vn -0.005772 0.999977 -0.003573
vn -0.005772 0.999977 -0.003573
vn -0.005772 0.999977 -0.003573
vn -0.005772 0.999977 -0.003573
vn -0.005772 0.999977 -0.003573
vn -0.005772 0.999977 -0.003573
vn -0.005772 0.999977 -0.003573
vn -0.005772 0.999977 -0.003573
vn -0.005772 0.999977 -0.003573
vn -0.005772 0.999977 -0.003573
vn -0.005772 0.999977 -0.003573
vn -0.005772 0.999977 -0.003573
vn 0.157092 0.965524 -0.207572
vn 0.290364 0.952250 0.094390
vn 0.242069 0.942806 0.229170
vn 0.248002 0.904936 0.345811
vn 0.121205 0.961840 0.245303
vn 0.008421 0.982913 0.183879
vn -0.097172 0.948994 0.299947
vn -0.234892 0.966464 0.103789
vn -0.362256 0.903171 -0.230333
vn -0.140029 0.963679 -0.227410
vn -0.248256 0.881833 -0.400922
vn -0.068828 0.956795 -0.282501
vn 0.398838 0.826192 -0.397913
vn 0.619775 0.782455 -0.060357
vn 0.482800 0.840970 0.244282
vn 0.365225 0.837371 0.406720
vn 0.268385 0.854560 0.444631
vn -0.105398 0.843600 0.526527
vn -0.409180 0.841413 0.352981
vn -0.595469 0.800032 0.073249
vn -0.589327 0.774039 -0.231425
vn -0.381804 0.838664 -0.388417
vn -0.149159 0.839034 -0.523234
vn 0.038163 0.737827 -0.673910
vn 0.512135 0.693547 -0.506665
vn 0.881022 0.466393 -0.079233
vn 0.781170 0.583003 0.223341
vn 0.549107 0.600908 0.580854
vn 0.210319 0.547533 0.809922
vn -0.097219 0.383051 0.918597
vn -0.573047 0.691356 0.440050
vn -0.863403 0.496404 0.090100
vn -0.780407 0.566756 -0.264107
vn -0.610209 0.498360 -0.615859
vn -0.209809 0.495131 -0.843105
vn 0.125019 0.318183 -0.939750
vn 0.442589 -0.768392 -0.462265
vn 0.961779 -0.249920 -0.111894
vn 0.781729 -0.562556 0.269131
vn 0.620672 -0.496941 0.606478
vn 0.230909 -0.585360 0.777197
vn -0.108785 -0.582986 0.805166
vn -0.460742 -0.820113 0.339311
vn -0.936059 -0.343288 0.077119
vn -0.771804 -0.591861 -0.232421
vn -0.563373 -0.560632 -0.606880
vn -0.240757 -0.626025 -0.741707
vn 0.077419 -0.508590 -0.857521
vn 0.188535 -0.921427 -0.339745
vn 0.459519 -0.888167 -0.001446
vn 0.436849 -0.883979 0.166568
vn 0.248997 -0.929696 0.271415
vn 0.020947 -0.929624 0.367914
vn -0.035147 -0.902254 0.429770
vn -0.225134 -0.893420 0.388736
vn -0.493034 -0.868566 0.050101
vn -0.418349 -0.883359 -0.211331
vn -0.331054 -0.905219 -0.266425
vn -0.116291 -0.927439 -0.355435
vn 0.116615 -0.911904 -0.393487
vn 0.109294 -0.989979 -0.089427
vn 0.052185 -0.980352 -0.190228
vn 0.161388 -0.967554 0.194403
vn 0.049119 -0.989689 0.134549
vn 0.279936 -0.929197 0.241307
vn 0.040130 -0.962854 0.267023
vn -0.126189 -0.974617 0.184925
vn -0.233410 -0.972366 0.004921
vn -0.191428 -0.969446 -0.153396
vn -0.115063 -0.974062 -0.194844
vn -0.181951 -0.966230 -0.182465
vn 0.121296 -0.976042 -0.180637
vn 0.005772 -0.999977 0.003573
vn 0.005772 -0.999977 0.003573
vn 0.005772 -0.999977 0.003573
vn 0.005772 -0.999977 0.003573
vn 0.005772 -0.999977 0.003573
vn 0.005772 -0.999977 0.003573
vn 0.005772 -0.999977 0.003573
vn 0.005772 -0.999977 0.003573
vn 0.005772 -0.999977 0.003573
vn 0.005772 -0.999977 0.003573
vn 0.005772 -0.999977 0.003573
vn 0.005772 -0.999977 0.003573
f 1/1/1 2/2/2 14/14/14
f 1/1/1 14/14/14 13/13/13
f 2/2/2 3/3/3 15/15/15
f 2/2/2 15/15/15 14/14/14
f 3/3/3 4/4/4 16/16/16
f 3/3/3 16/16/16 15/15/15
f 4/4/4 5/5/5 17/17/17
f 4/4/4 17/17/17 16/16/16
f 5/5/5 6/6/6 18/18/18
f 5/5/5 18/18/18 17/17/17
f 6/6/6 7/7/7 19/19/19
f 6/6/6 19/19/19 18/18/18
f 7/7/7 8/8/8 20/20/20
f 7/7/7 20/20/20 19/19/19
f 8/8/8 9/9/9 21/21/21
f 8/8/8 21/21/21 20/20/20
f 9/9/9 10/10/10 22/22/22
f 9/9/9 22/22/22 21/21/21
f 10/10/10 11/11/11 23/23/23
f 10/10/10 23/23/23 22/22/22
f 11/11/11 12/12/12 24/24/24
f 11/11/11 24/24/24 23/23/23
f 12/12/12 1/1/1 13/13/13
f 12/12/12 13/13/13 24/24/24
f 13/13/13 14/14/14 26/26/26
f 13/13/13 26/26/26 25/25/25
f 14/14/14 15/15/15 27/27/27
f 14/14/14 27/27/27 26/26/26
f 15/15/15 16/16/16 28/28/28
f 15/15/15 28/28/28 27/27/27
f 16/16/16 17/17/17 29/29/29
f 16/16/16 29/29/29 28/28/28
f 17/17/17 18/18/18 30/30/30
f 17/17/17 30/30/30 29/29/29
f 18/18/18 19/19/19 31/31/31
f 18/18/18 31/31/31 30/30/30
f 19/19/19 20/20/20 32/32/32
f 19/19/19 32/32/32 31/31/31
f 20/20/20 21/21/21 33/33/33
f 20/20/20 33/33/33 32/32/32
f 21/21/21 22/22/22 34/34/34
f 21/21/21 34/34/34 33/33/33
f 22/22/22 23/23/23 35/35/35
f 22/22/22 35/35/35 34/34/34
f 23/23/23 24/24/24 36/36/36
f 23/23/23 36/36/36 35/35/35
f 24/24/24 13/13/13 25/25/25
f 24/24/24 25/25/25 36/36/36
f 25/25/25 26/26/26 38/38/38
f 25/25/25 38/38/38 37/37/37
f 26/26/26 27/27/27 39/39/39
f 26/26/26 39/39/39 38/38/38
f 27/27/27 28/28/28 40/40/40
f 27/27/27 40/40/40 39/39/39
f 28/28/28 29/29/29 41/41/41
f 28/28/28 41/41/41 40/40/40
f 29/29/29 30/30/30 42/42/42
f 29/29/29 42/42/42 41/41/41
f 30/30/30 31/31/31 43/43/43
f 30/30/30 43/43/43 42/42/42
f 31/31/31 32/32/32 44/44/44
f 31/31/31 44/44/44 43/43/43
f 32/32/32 33/33/33 45/45/45
f 32/32/32 45/45/45 44/44/44
f 33/33/33 34/34/34 46/46/46
f 33/33/33 46/46/46 45/45/45
f 34/34/34 35/35/35 47/47/47
f 34/34/34 47/47/47 46/46/46
f 35/35/35 36/36/36 48/48/48
f 35/35/35 48/48/48 47/47/47
f 36/36/36 25/25/25 37/37/37
f 36/36/36 37/37/37 48/48/48
f 37/37/37 38/38/38 50/50/50
f 37/37/37 50/50/50 49/49/49
f 38/38/38 39/39/39 51/51/51
f 38/38/38 51/51/51 50/50/50
f 39/39/39 40/40/40 52/52/52
f 39/39/39 52/52/52 51/51/51
f 40/40/40 41/41/41 53/53/53
f 40/40/40 53/53/53 52/52/52
f 41/41/41 42/42/42 54/54/54
f 41/41/41 54/54/54 53/53/53
f 42/42/42 43/43/43 55/55/55
f 42/42/42 55/55/55 54/54/54
f 43/43/43 44/44/44 56/56/56
f 43/43/43 56/56/56 55/55/55
f 44/44/44 45/45/45 57/57/57
f 44/44/44 57/57/57 56/56/56
f 45/45/45 46/46/46 58/58/58
f 45/45/45 58/58/58 57/57/57
f 46/46/46 47/47/47 59/59/59
f 46/46/46 59/59/59 58/58/58
f 47/47/47 48/48/48 60/60/60
f 47/47/47 60/60/60 59/59/59
f 48/48/48 37/37/37 49/49/49
f 48/48/48 49/49/49 60/60/60
f 49/49/49 50/50/50 62/62/62
f 49/49/49 62/62/62 61/61/61
f 50/50/50 51/51/51 63/63/63
f 50/50/50 63/63/63 62/62/62
f 51/51/51 52/52/52 64/64/64
f 51/51/51 64/64/64 63/63/63
f 52/52/52 53/53/53 65/65/65
f 52/52/52 65/65/65 64/64/64
f 53/53/53 54/54/54 66/66/66
f 53/53/53 66/66/66 65/65/65
f 54/54/54 55/55/55 67/67/67
f 54/54/54 67/67/67 66/66/66
f 55/55/55 56/56/56 68/68/68
f 55/55/55 68/68/68 67/67/67
f 56/56/56 57/57/57 69/69/69
f 56/56/56 69/69/69 68/68/68
f 57/57/57 58/58/58 70/70/70
f 57/57/57 70/70/70 69/69/69
f 58/58/58 59/59/59 71/71/71
f 58/58/58 71/71/71 70/70/70
f 59/59/59 60/60/60 72/72/72
f 59/59/59 72/72/72 71/71/71
f 60/60/60 49/49/49 61/61/61
f 60/60/60 61/61/61 72/72/72
f 61/61/61 62/62/62 74/74/74
f 61/61/61 74/74/74 73/73/73
f 62/62/62 63/63/63 75/75/75
f 62/62/62 75/75/75 74/74/74
f 63/63/63 64/64/64 76/76/76
f 63/63/63 76/76/76 75/75/75
f 64/64/64 65/65/65 77/77/77
f 64/64/64 77/77/77 76/76/76
f 65/65/65 66/66/66 78/78/78
f 65/65/65 78/78/78 77/77/77
f 66/66/66 67/67/67 79/79/79
f 66/66/66 79/79/79 78/78/78
f 67/67/67 68/68/68 80/80/80
f 67/67/67 80/80/80 79/79/79
f 68/68/68 69/69/69 81/81/81
f 68/68/68 81/81/81 80/80/80
f 69/69/69 70/70/70 82/82/82
f 69/69/69 82/82/82 81/81/81
f 70/70/70 71/71/71 83/83/83
f 70/70/70 83/83/83 82/82/82
f 71/71/71 72/72/72 84/84/84
f 71/71/71 84/84/84 83/83/83
f 72/72/72 61/61/61 73/73/73
f 72/72/72 73/73/73 84/84/84
f 73/73/73 74/74/74 86/86/86
f 73/73/73 86/86/86 85/85/85
f 74/74/74 75/75/75 87/87/87
f 74/74/74 87/87/87 86/86/86
f 75/75/75 76/76/76 88/88/88
f 75/75/75 88/88/88 87/87/87
f 76/76/76 77/77/77 89/89/89
f 76/76/76 89/89/89 88/88/88
f 77/77/77 78/78/78 90/90/90
f 77/77/77 90/90/90 89/89/89
f 78/78/78 79/79/79 91/91/91
f 78/78/78 91/91/91 90/90/90
f 79/79/79 80/80/80 92/92/92
f 79/79/79 92/92/92 91/91/91
f 80/80/80 81/81/81 93/93/93
f 80/80/80 93/93/93 92/92/92
f 81/81/81 82/82/82 94/94/94
f 81/81/81 94/94/94 93/93/93
f 82/82/82 83/83/83 95/95/95
f 82/82/82 95/95/95 94/94/94
f 83/83/83 84/84/84 96/96/96
f 83/83/83 96/96/96 95/95/95
f 84/84/84 73/73/73 85/85/85
f 84/84/84 85/85/85 96/96/96
f 97/97/97 98/98/98 110/110/110
f 97/97/97 110/110/110 109/109/109
f 98/98/98 99/99/99 111/111/111
f 98/98/98 111/111/111 110/110/110
f 99/99/99 100/100/100 112/112/112
f 99/99/99 112/112/112 111/111/111
f 100/100/100 101/101/101 113/113/113
f 100/100/100 113/113/113 112/112/112
f 101/101/101 102/102/102 114/114/114
f 101/101/101 114/114/114 113/113/113
f 102/102/102 103/103/103 115/115/115
f 102/102/102 115/115/115 114/114/114
f 103/103/103 104/104/104 116/116/116
f 103/103/103 116/116/116 115/115/115
f 104/104/104 105/105/105 117/117/117
f 104/104/104 117/117/117 116/116/116
f 105/105/105 106/106/106 118/118/118
f 105/105/105 118/118/118 117/117/117
f 106/106/106 107/107/107 119/119/119
f 106/106/106 119/119/119 118/118/118
f 107/107/107 108/108/108 120/120/120
f 107/107/107 120/120/120 119/119/119
f 108/108/108 97/97/97 109/109/109
f 108/108/108 109/109/109 120/120/120
f 109/109/109 110/110/110 122/122/122
f 109/109/109 122/122/122 121/121/121
f 110/110/110 111/111/111 123/123/123
f 110/110/110 123/123/123 122/122/122
f 111/111/111 112/112/112 124/124/124
f 111/111/111 124/124/124 123/123/123
f 112/112/112 113/113/113 125/125/125
f 112/112/112 125/125/125 124/124/124
f 113/113/113 114/114/114 126/126/126
f 113/113/113 126/126/126 125/125/125
f 114/114/114 115/115/115 127/127/127
f 114/114/114 127/127/127 126/126/126
f 115/115/115 116/116/116 128/128/128
f 115/115/115 128/128/128 127/127/127
f 116/116/116 117/117/117 129/129/129
f 116/116/116 129/129/129 128/128/128
f 117/117/117 118/118/118 130/130/130
f 117/117/117 130/130/130 129/129/129
f 118/118/118 119/119/119 131/131/131
f 118/118/118 131/131/131 130/130/130
f 119/119/119 120/120/120 132/132/132
f 119/119/119 132/132/132 131/131/131
f 120/120/120 109/109/109 121/121/121
f 120/120/120 121/121/121 132/132/132
f 121/121/121 122/122/122 134/134/134
f 121/121/121 134/134/134 133/133/133
f 122/122/122 123/123/123 135/135/135
f 122/122/122 135/135/135 134/134/134
f 123/123/123 124/124/124 136/136/136
f 123/123/123 136/136/136 135/135/135
f 124/124/124 125/125/125 137/137/137
f 124/124/124 137/137/137 136/136/136
f 125/125/125 126/126/126 138/138/138
f 125/125/125 138/138/138 137/137/137
f 126/126/126 127/127/127 139/139/139
f 126/126/126 139/139/139 138/138/138
f 127/127/127 128/128/128 140/140/140
f 127/127/127 140/140/140 139/139/139
f 128/128/128 129/129/129 141/141/141
f 128/128/128 141/141/141 140/140/140
f 129/129/129 130/130/130 142/142/142
f 129/129/129 142/142/142 141/141/141
f 130/130/130 131/131/131 143/143/143
f 130/130/130 143/143/143 142/142/142
f 131/131/131 132/132/132 144/144/144
f 131/131/131 144/144/144 143/143/143
f 132/132/132 121/121/121 133/133/133
f 132/132/132 133/133/133 144/144/144
f 133/133/133 134/134/134 146/146/146
f 133/133/133 146/146/146 145/145/145
f 134/134/134 135/135/135 147/147/147
f 134/134/134 147/147/147 146/146/146
f 135/135/135 136/136/136 148/148/148
f 135/135/135 148/148/148 147/147/147
f 136/136/136 137/137/137 149/149/149
f 136/136/136 149/149/149 148/148/148
f 137/137/137 138/138/138 150/150/150
f 137/137/137 150/150/150 149/149/149
f 138/138/138 139/139/139 151/151/151
f 138/138/138 151/151/151 150/150/150
f 139/139/139 140/140/140 152/152/152
f 139/139/139 152/152/152 151/151/151
f 140/140/140 141/141/141 153/153/153
f 140/140/140 153/153/153 152/152/152
f 141/141/141 142/142/142 154/154/154
f 141/141/141 154/154/154 153/153/153
f 142/142/142 143/143/143 155/155/155
f 142/142/142 155/155/155 154/154/154
f 143/143/143 144/144/144 156/156/156
f 143/143/143 156/156/156 155/155/155
f 144/144/144 133/133/133 145/145/145
f 144/144/144 145/145/145 156/156/156
f 145/145/145 146/146/146 158/158/158
f 145/145/145 158/158/158 157/157/157
f 146/146/146 147/147/147 159/159/159
f 146/146/146 159/159/159 158/158/158
f 147/147/147 148/148/148 160/160/160
f 147/147/147 160/160/160 159/159/159
f 148/148/148 149/149/149 161/161/161
f 148/148/148 161/161/161 160/160/160
f 149/149/149 150/150/150 162/162/162
f 149/149/149 162/162/162 161/161/161
f 150/150/150 151/151/151 163/163/163
f 150/150/150 163/163/163 162/162/162
f 151/151/151 152/152/152 164/164/164
f 151/151/151 164/164/164 163/163/163
f 152/152/152 153/153/153 165/165/165
f 152/152/152 165/165/165 164/164/164
f 153/153/153 154/154/154 166/166/166
f 153/153/153 166/166/166 165/165/165
f 154/154/154 155/155/155 167/167/167
f 154/154/154 167/167/167 166/166/166
f 155/155/155 156/156/156 168/168/168
f 155/155/155 168/168/168 167/167/167
f 156/156/156 145/145/145 157/157/157
f 156/156/156 157/157/157 168/168/168
f 157/157/157 158/158/158 170/170/170
f 157/157/157 170/170/170 169/169/169
f 158/158/158 159/159/159 171/171/171
f 158/158/158 171/171/171 170/170/170
f 159/159/159 160/160/160 172/172/172
f 159/159/159 172/172/172 171/171/171
f 160/160/160 161/161/161 173/173/173
f 160/160/160 173/173/173 172/172/172
f 161/161/161 162/162/162 174/174/174
f 161/161/161 174/174/174 173/173/173
f 162/162/162 163/163/163 175/175/175
f 162/162/162 175/175/175 174/174/174
f 163/163/163 164/164/164 176/176/176
f 163/163/163 176/176/176 175/175/175
f 164/164/164 165/165/165 177/177/177
f 164/164/164 177/177/177 176/176/176
f 165/165/165 166/166/166 178/178/178
f 165/165/165 178/178/178 177/177/177
f 166/166/166 167/167/167 179/179/179
f 166/166/166 179/179/179 178/178/178
f 167/167/167 168/168/168 180/180/180
f 167/167/167 180/180/180 179/179/179
f 168/168/168 157/157/157 169/169/169
f 168/168/168 169/169/169 180/180/180
f 169/169/169 170/170/170 182/182/182
f 169/169/169 182/182/182 181/181/181
f 170/170/170 171/171/171 183/183/183
f 170/170/170 183/183/183 182/182/182
f 171/171/171 172/172/172 184/184/184
f 171/171/171 184/184/184 183/183/183
f 172/172/172 173/173/173 185/185/185
f 172/172/172 185/185/185 184/184/184
f 173/173/173 174/174/174 186/186/186
f 173/173/173 186/186/186 185/185/185
f 174/174/174 175/175/175 187/187/187
f 174/174/174 187/187/187 186/186/186
f 175/175/175 176/176/176 188/188/188
f 175/175/175 188/188/188 187/187/187
f 176/176/176 177/177/177 189/189/189
f 176/176/176 189/189/189 188/188/188
f 177/177/177 178/178/178 190/190/190
f 177/177/177 190/190/190 189/189/189
f 178/178/178 179/179/179 191/191/191
f 178/178/178 191/191/191 190/190/190
f 179/179/179 180/180/180 192/192/192
f 179/179/179 192/192/192 191/191/191
f 180/180/180 169/169/169 181/181/181
f 180/180/180 181/181/181 192/192/192
