# sandbag_00
mtllib props.mtl
o sandbag_00
usemtl Burlap
v -0.016153 0.224716 -0.020465
v -0.020515 0.231419 -0.012801
v -0.013367 0.228403 -0.005470
v -0.017760 0.211080 -0.014810
v -0.013898 0.220595 -0.007153
v -0.005564 0.232684 -0.021662
v -0.014883 0.217629 -0.003937
v -0.016538 0.213416 -0.014249
v -0.011600 0.215527 -0.018305
v -0.002605 0.220711 -0.001743
v -0.011743 0.210967 0.000356
v -0.005437 0.233384 -0.001251
v 0.103654 0.206138 0.009918
v 0.070655 0.211619 0.029056
v 0.029577 0.225490 0.052197
v -0.016789 0.211215 0.057592
v -0.065931 0.221673 0.041318
v -0.103503 0.197882 0.002329
v -0.105384 0.206494 -0.028575
v -0.088391 0.192825 -0.059893
v -0.049468 0.211954 -0.090364
v 0.015420 0.195807 -0.086261
v 0.055872 0.212650 -0.068385
v 0.078123 0.220278 -0.037705
v 0.183917 0.174506 0.025016
v 0.147256 0.182460 0.097759
v 0.060997 0.188987 0.119289
v -0.037133 0.184421 0.121290
v -0.133527 0.180606 0.078466
v -0.194131 0.178196 0.034350
v -0.208100 0.146281 -0.052281
v -0.149055 0.173073 -0.097137
v -0.082503 0.156809 -0.137603
v 0.019219 0.171722 -0.134089
v 0.107249 0.161970 -0.102053
v 0.157475 0.182120 -0.037607
v 0.223627 0.115252 0.027565
v 0.192313 0.125397 0.109048
v 0.089802 0.131270 0.190083
v -0.052250 0.133329 0.196772
v -0.155695 0.116910 0.138710
v -0.239763 0.099047 0.031924
v -0.242144 0.097985 -0.044856
v -0.187345 0.104363 -0.134980
v -0.100068 0.120967 -0.190547
v 0.030155 0.124013 -0.200963
v 0.130141 0.112610 -0.160949
v 0.213963 0.132998 -0.038741
v 0.242144 0.088988 0.035796
v 0.181087 0.102484 0.115770
v 0.085563 0.093588 0.181421
v -0.035847 0.096338 0.205945
v -0.154172 0.088600 0.132720
v -0.228822 0.072676 0.040081
v -0.237987 0.083238 -0.041684
v -0.193200 0.074698 -0.133434
v -0.075841 0.073428 -0.202862
v 0.040383 0.067863 -0.205945
v 0.148808 0.068338 -0.164685
v 0.199110 0.082774 -0.040320
v 0.196150 0.055092 0.038219
v 0.148231 0.068071 0.098251
v 0.079022 0.044798 0.156524
v -0.039536 0.059947 0.136275
v -0.138260 0.042123 0.109237
v -0.191642 0.043189 0.033936
v -0.196870 0.043545 -0.045762
v -0.147787 0.021261 -0.094278
v -0.071826 0.038385 -0.141734
v 0.029591 0.032577 -0.159130
v 0.115778 0.037130 -0.116449
v 0.178820 0.052995 -0.048832
v 0.097967 0.021009 0.015134
v 0.077706 0.015331 0.051220
v 0.046385 0.029295 0.085245
v -0.015375 0.017415 0.075767
v -0.081561 0.013304 0.049900
v -0.101686 0.019819 0.017900
v -0.110292 0.006721 -0.022199
v -0.075909 0.019976 -0.062974
v -0.053233 0.013341 -0.075658
v 0.005426 0.022999 -0.072508
v 0.066121 0.011291 -0.063498
v 0.082815 0.014402 -0.024915
v 0.005729 0.000000 -0.001215
v -0.000881 0.002996 0.004341
v -0.003958 0.004001 0.002715
v -0.016535 0.015828 0.002594
v -0.011156 0.007434 -0.010654
v 0.009557 0.010479 -0.009939
v -0.009413 0.018112 -0.003884
v 0.001458 0.014925 0.011439
v -0.003247 0.021416 0.007869
v -0.000883 0.015448 -0.000945
v 0.002667 0.011969 0.009566
v 0.003557 0.009422 -0.005883
vt 0.000000 0.000000
vt 0.125000 0.000000
vt 0.250000 0.000000
vt 0.375000 0.000000
vt 0.500000 0.000000
vt 0.625000 0.000000
vt 0.750000 0.000000
vt 0.875000 0.000000
vt 1.000000 0.000000
vt 1.125000 0.000000
vt 1.250000 0.000000
vt 1.375000 0.000000
vt 0.000000 0.142857
vt 0.125000 0.142857
vt 0.250000 0.142857
vt 0.375000 0.142857
vt 0.500000 0.142857
vt 0.625000 0.142857
vt 0.750000 0.142857
vt 0.875000 0.142857
vt 1.000000 0.142857
vt 1.125000 0.142857
vt 1.250000 0.142857
vt 1.375000 0.142857
vt 0.000000 0.285714
vt 0.125000 0.285714
vt 0.250000 0.285714
vt 0.375000 0.285714
vt 0.500000 0.285714
vt 0.625000 0.285714
vt 0.750000 0.285714
vt 0.875000 0.285714
vt 1.000000 0.285714
vt 1.125000 0.285714
vt 1.250000 0.285714
vt 1.375000 0.285714
vt 0.000000 0.428571
vt 0.125000 0.428571
vt 0.250000 0.428571
vt 0.375000 0.428571
vt 0.500000 0.428571
vt 0.625000 0.428571
vt 0.750000 0.428571
vt 0.875000 0.428571
vt 1.000000 0.428571
vt 1.125000 0.428571
vt 1.250000 0.428571
vt 1.375000 0.428571
vt 0.000000 0.571429
vt 0.125000 0.571429
vt 0.250000 0.571429
vt 0.375000 0.571429
vt 0.500000 0.571429
vt 0.625000 0.571429
vt 0.750000 0.571429
vt 0.875000 0.571429
vt 1.000000 0.571429
vt 1.125000 0.571429
vt 1.250000 0.571429
vt 1.375000 0.571429
vt 0.000000 0.714286
vt 0.125000 0.714286
vt 0.250000 0.714286
vt 0.375000 0.714286
vt 0.500000 0.714286
vt 0.625000 0.714286
vt 0.750000 0.714286
vt 0.875000 0.714286
vt 1.000000 0.714286
vt 1.125000 0.714286
vt 1.250000 0.714286
vt 1.375000 0.714286
vt 0.000000 0.857143
vt 0.125000 0.857143
vt 0.250000 0.857143
vt 0.375000 0.857143
vt 0.500000 0.857143
vt 0.625000 0.857143
vt 0.750000 0.857143
vt 0.875000 0.857143
vt 1.000000 0.857143
vt 1.125000 0.857143
vt 1.250000 0.857143
vt 1.375000 0.857143
vt 0.000000 1.000000
vt 0.125000 1.000000
vt 0.250000 1.000000
vt 0.375000 1.000000
vt 0.500000 1.000000
vt 0.625000 1.000000
vt 0.750000 1.000000
vt 0.875000 1.000000
vt 1.000000 1.000000
vt 1.125000 1.000000
vt 1.250000 1.000000
vt 1.375000 1.000000
vn -0.036524 0.997979 -0.051998
vn -0.036524 0.997979 -0.051998
vn -0.036524 0.997979 -0.051998
vn -0.036524 0.997979 -0.051998
vn -0.036524 0.997979 -0.051998
vn -0.036524 0.997979 -0.051998
vn -0.036524 0.997979 -0.051998
vn -0.036524 0.997979 -0.051998
vn -0.036524 0.997979 -0.051998
vn -0.036524 0.997979 -0.051998
vn -0.036524 0.997979 -0.051998
vn -0.036524 0.997979 -0.051998
vn 0.208773 0.966591 0.148713
vn 0.265467 0.963822 0.023970
vn 0.079398 0.963153 0.256968
vn -0.060129 0.981155 0.183627
vn -0.230322 0.964568 0.128690
vn -0.289443 0.956171 -0.044273
vn -0.308875 0.938988 -0.151323
vn -0.222361 0.968077 -0.115679
vn -0.122540 0.917371 -0.378701
vn 0.064129 0.939282 -0.337102
vn -0.009343 0.897762 -0.440382
vn 0.280258 0.955549 -0.091554
vn 0.599234 0.799406 0.043228
vn 0.373544 0.856813 0.355438
vn 0.077722 0.838641 0.539111
vn -0.133928 0.878943 0.457737
vn -0.327440 0.778436 0.535556
vn -0.567875 0.815768 0.109727
vn -0.587571 0.775310 -0.231637
vn -0.376544 0.807139 -0.454688
vn -0.131993 0.766057 -0.629075
vn 0.074718 0.849568 -0.522160
vn 0.331460 0.761480 -0.557030
vn 0.498470 0.780288 -0.377729
vn 0.808753 0.569286 0.147756
vn 0.718106 0.427444 0.549196
vn 0.292981 0.573633 0.764923
vn -0.188192 0.679126 0.709487
vn -0.622581 0.496418 0.604948
vn -0.872687 0.307512 0.379282
vn -0.887447 0.375878 -0.266744
vn -0.657343 0.502265 -0.561810
vn -0.284438 0.576683 -0.765853
vn 0.124469 0.581564 -0.803922
vn 0.499827 0.623788 -0.600884
vn 0.833538 0.360755 -0.418415
vn 0.908795 -0.387819 0.153908
vn 0.560895 -0.548165 0.620412
vn 0.364731 -0.376040 0.851801
vn -0.139379 -0.644170 0.752076
vn -0.563895 -0.413245 0.715018
vn -0.712899 -0.601155 0.361092
vn -0.759875 -0.629217 -0.163329
vn -0.599218 -0.563682 -0.568507
vn -0.261249 -0.555822 -0.789184
vn 0.143533 -0.412457 -0.899598
vn 0.657486 -0.471571 -0.587651
vn 0.867112 -0.334312 -0.369259
vn 0.399206 -0.899953 0.175269
vn 0.449650 -0.810846 0.374624
vn 0.140033 -0.848570 0.510216
vn -0.099218 -0.857740 0.504419
vn -0.257585 -0.816585 0.516564
vn -0.361565 -0.923485 0.128243
vn -0.510690 -0.859318 -0.027713
vn -0.258157 -0.922565 -0.286756
vn -0.092711 -0.906566 -0.411757
vn 0.035442 -0.950031 -0.310136
vn 0.315223 -0.913445 -0.257395
vn 0.485800 -0.860665 -0.152495
vn 0.272054 -0.961814 0.029999
vn 0.230537 -0.931980 0.279760
vn 0.040430 -0.970976 0.235734
vn 0.030585 -0.947596 0.318003
vn -0.127163 -0.980638 0.148922
vn -0.128840 -0.981594 0.140974
vn -0.125149 -0.991257 -0.041806
vn 0.025647 -0.995066 -0.095848
vn 0.022477 -0.992172 -0.122842
vn -0.005991 -0.994046 -0.108796
vn 0.007406 -0.981872 -0.189399
vn 0.245878 -0.969090 0.020191
vn 0.036524 -0.997979 0.051998
vn 0.036524 -0.997979 0.051998
vn 0.036524 -0.997979 0.051998
vn 0.036524 -0.997979 0.051998
vn 0.036524 -0.997979 0.051998
vn 0.036524 -0.997979 0.051998
vn 0.036524 -0.997979 0.051998
vn 0.036524 -0.997979 0.051998
vn 0.036524 -0.997979 0.051998
vn 0.036524 -0.997979 0.051998
vn 0.036524 -0.997979 0.051998
vn 0.036524 -0.997979 0.051998
f 1/1/1 2/2/2 14/14/14
f 1/1/1 14/14/14 13/13/13
f 2/2/2 3/3/3 15/15/15
f 2/2/2 15/15/15 14/14/14
f 3/3/3 4/4/4 16/16/16
f 3/3/3 16/16/16 15/15/15
f 4/4/4 5/5/5 17/17/17
f 4/4/4 17/17/17 16/16/16
f 5/5/5 6/6/6 18/18/18
f 5/5/5 18/18/18 17/17/17
f 6/6/6 7/7/7 19/19/19
f 6/6/6 19/19/19 18/18/18
f 7/7/7 8/8/8 20/20/20
f 7/7/7 20/20/20 19/19/19
f 8/8/8 9/9/9 21/21/21
f 8/8/8 21/21/21 20/20/20
f 9/9/9 10/10/10 22/22/22
f 9/9/9 22/22/22 21/21/21
f 10/10/10 11/11/11 23/23/23
f 10/10/10 23/23/23 22/22/22
f 11/11/11 12/12/12 24/24/24
f 11/11/11 24/24/24 23/23/23
f 12/12/12 1/1/1 13/13/13
f 12/12/12 13/13/13 24/24/24
f 13/13/13 14/14/14 26/26/26
f 13/13/13 26/26/26 25/25/25
f 14/14/14 15/15/15 27/27/27
f 14/14/14 27/27/27 26/26/26
f 15/15/15 16/16/16 28/28/28
f 15/15/15 28/28/28 27/27/27
f 16/16/16 17/17/17 29/29/29
f 16/16/16 29/29/29 28/28/28
f 17/17/17 18/18/18 30/30/30
f 17/17/17 30/30/30 29/29/29
f 18/18/18 19/19/19 31/31/31
f 18/18/18 31/31/31 30/30/30
f 19/19/19 20/20/20 32/32/32
f 19/19/19 32/32/32 31/31/31
f 20/20/20 21/21/21 33/33/33
f 20/20/20 33/33/33 32/32/32
f 21/21/21 22/22/22 34/34/34
f 21/21/21 34/34/34 33/33/33
f 22/22/22 23/23/23 35/35/35
f 22/22/22 35/35/35 34/34/34
f 23/23/23 24/24/24 36/36/36
f 23/23/23 36/36/36 35/35/35
f 24/24/24 13/13/13 25/25/25
f 24/24/24 25/25/25 36/36/36
f 25/25/25 26/26/26 38/38/38
f 25/25/25 38/38/38 37/37/37
f 26/26/26 27/27/27 39/39/39
f 26/26/26 39/39/39 38/38/38
f 27/27/27 28/28/28 40/40/40
f 27/27/27 40/40/40 39/39/39
f 28/28/28 29/29/29 41/41/41
f 28/28/28 41/41/41 40/40/40
f 29/29/29 30/30/30 42/42/42
f 29/29/29 42/42/42 41/41/41
f 30/30/30 31/31/31 43/43/43
f 30/30/30 43/43/43 42/42/42
f 31/31/31 32/32/32 44/44/44
f 31/31/31 44/44/44 43/43/43
f 32/32/32 33/33/33 45/45/45
f 32/32/32 45/45/45 44/44/44
f 33/33/33 34/34/34 46/46/46
f 33/33/33 46/46/46 45/45/45
f 34/34/34 35/35/35 47/47/47
f 34/34/34 47/47/47 46/46/46
f 35/35/35 36/36/36 48/48/48
f 35/35/35 48/48/48 47/47/47
f 36/36/36 25/25/25 37/37/37
f 36/36/36 37/37/37 48/48/48
f 37/37/37 38/38/38 50/50/50
f 37/37/37 50/50/50 49/49/49
f 38/38/38 39/39/39 51/51/51
f 38/38/38 51/51/51 50/50/50
f 39/39/39 40/40/40 52/52/52
f 39/39/39 52/52/52 51/51/51
f 40/40/40 41/41/41 53/53/53
f 40/40/40 53/53/53 52/52/52
f 41/41/41 42/42/42 54/54/54
f 41/41/41 54/54/54 53/53/53
f 42/42/42 43/43/43 55/55/55
f 42/42/42 55/55/55 54/54/54
f 43/43/43 44/44/44 56/56/56
f 43/43/43 56/56/56 55/55/55
f 44/44/44 45/45/45 57/57/57
f 44/44/44 57/57/57 56/56/56
f 45/45/45 46/46/46 58/58/58
f 45/45/45 58/58/58 57/57/57
f 46/46/46 47/47/47 59/59/59
f 46/46/46 59/59/59 58/58/58
f 47/47/47 48/48/48 60/60/60
f 47/47/47 60/60/60 59/59/59
f 48/48/48 37/37/37 49/49/49
f 48/48/48 49/49/49 60/60/60
f 49/49/49 50/50/50 62/62/62
f 49/49/49 62/62/62 61/61/61
f 50/50/50 51/51/51 63/63/63
f 50/50/50 63/63/63 62/62/62
f 51/51/51 52/52/52 64/64/64
f 51/51/51 64/64/64 63/63/63
f 52/52/52 53/53/53 65/65/65
f 52/52/52 65/65/65 64/64/64
f 53/53/53 54/54/54 66/66/66
f 53/53/53 66/66/66 65/65/65
f 54/54/54 55/55/55 67/67/67
f 54/54/54 67/67/67 66/66/66
f 55/55/55 56/56/56 68/68/68
f 55/55/55 68/68/68 67/67/67
f 56/56/56 57/57/57 69/69/69
f 56/56/56 69/69/69 68/68/68
f 57/57/57 58/58/58 70/70/70
f 57/57/57 70/70/70 69/69/69
f 58/58/58 59/59/59 71/71/71
f 58/58/58 71/71/71 70/70/70
f 59/59/59 60/60/60 72/72/72
f 59/59/59 72/72/72 71/71/71
f 60/60/60 49/49/49 61/61/61
f 60/60/60 61/61/61 72/72/72
f 61/61/61 62/62/62 74/74/74
f 61/61/61 74/74/74 73/73/73
f 62/62/62 63/63/63 75/75/75
f 62/62/62 75/75/75 74/74/74
f 63/63/63 64/64/64 76/76/76
f 63/63/63 76/76/76 75/75/75
f 64/64/64 65/65/65 77/77/77
f 64/64/64 77/77/77 76/76/76
f 65/65/65 66/66/66 78/78/78
f 65/65/65 78/78/78 77/77/77
f 66/66/66 67/67/67 79/79/79
f 66/66/66 79/79/79 78/78/78
f 67/67/67 68/68/68 80/80/80
f 67/67/67 80/80/80 79/79/79
f 68/68/68 69/69/69 81/81/81
f 68/68/68 81/81/81 80/80/80
f 69/69/69 70/70/70 82/82/82
f 69/69/69 82/82/82 81/81/81
f 70/70/70 71/71/71 83/83/83
f 70/70/70 83/83/83 82/82/82
f 71/71/71 72/72/72 84/84/84
f 71/71/71 84/84/84 83/83/83
f 72/72/72 61/61/61 73/73/73
f 72/72/72 73/73/73 84/84/84
f 73/73/73 74/74/74 86/86/86
f 73/73/73 86/86/86 85/85/85
f 74/74/74 75/75/75 87/87/87
f 74/74/74 87/87/87 86/86/86
f 75/75/75 76/76/76 88/88/88
f 75/75/75 88/88/88 87/87/87
f 76/76/76 77/77/77 89/89/89
f 76/76/76 89/89/89 88/88/88
f 77/77/77 78/78/78 90/90/90
f 77/77/77 90/90/90 89/89/89
f 78/78/78 79/79/79 91/91/91
f 78/78/78 91/91/91 90/90/90
f 79/79/79 80/80/80 92/92/92
f 79/79/79 92/92/92 91/91/91
f 80/80/80 81/81/81 93/93/93
f 80/80/80 93/93/93 92/92/92
f 81/81/81 82/82/82 94/94/94
f 81/81/81 94/94/94 93/93/93
f 82/82/82 83/83/83 95/95/95
f 82/82/82 95/95/95 94/94/94
f 83/83/83 84/84/84 96/96/96
f 83/83/83 96/96/96 95/95/95
f 84/84/84 73/73/73 85/85/85
f 84/84/84 85/85/85 96/96/96
