# stall_frame_00
mtllib props.mtl
o stall_frame_00
usemtl MetalGrey
v -1.181268 0.000000 -0.815157
v -1.198458 0.000000 -0.808036
v -1.205579 0.000000 -0.790846
v -1.198458 0.000000 -0.773656
v -1.181268 0.000000 -0.766536
v -1.164078 0.000000 -0.773656
v -1.156958 0.000000 -0.790846
v -1.164078 0.000000 -0.808036
v -1.181268 0.000000 -0.817271
v -1.199953 0.000000 -0.809531
v -1.207693 0.000000 -0.790846
v -1.199953 0.000000 -0.772162
v -1.181268 0.000000 -0.764422
v -1.162584 0.000000 -0.772162
v -1.154844 0.000000 -0.790846
v -1.162584 0.000000 -0.809531
v -1.181268 2.216162 -0.817271
v -1.199953 2.216162 -0.809531
v -1.207693 2.216162 -0.790846
v -1.199953 2.216162 -0.772162
v -1.181268 2.216162 -0.764422
v -1.162584 2.216162 -0.772162
v -1.154844 2.216162 -0.790846
v -1.162584 2.216162 -0.809531
v -1.181268 2.216162 -0.815157
v -1.198458 2.216162 -0.808036
v -1.205579 2.216162 -0.790846
v -1.198458 2.216162 -0.773656
v -1.181268 2.216162 -0.766536
v -1.164078 2.216162 -0.773656
v -1.156958 2.216162 -0.790846
v -1.164078 2.216162 -0.808036
v -1.181268 0.000000 -0.790846
v -1.181268 2.216162 -0.790846
v 1.181268 0.000000 -0.815157
v 1.164078 0.000000 -0.808036
v 1.156958 0.000000 -0.790846
v 1.164078 0.000000 -0.773656
v 1.181268 0.000000 -0.766536
v 1.198458 0.000000 -0.773656
v 1.205579 0.000000 -0.790846
v 1.198458 0.000000 -0.808036
v 1.181268 0.000000 -0.817271
v 1.162584 0.000000 -0.809531
v 1.154844 0.000000 -0.790846
v 1.162584 0.000000 -0.772162
v 1.181268 0.000000 -0.764422
v 1.199953 0.000000 -0.772162
v 1.207693 0.000000 -0.790846
v 1.199953 0.000000 -0.809531
v 1.181268 2.216162 -0.817271
v 1.162584 2.216162 -0.809531
v 1.154844 2.216162 -0.790846
v 1.162584 2.216162 -0.772162
v 1.181268 2.216162 -0.764422
v 1.199953 2.216162 -0.772162
v 1.207693 2.216162 -0.790846
v 1.199953 2.216162 -0.809531
v 1.181268 2.216162 -0.815157
v 1.164078 2.216162 -0.808036
v 1.156958 2.216162 -0.790846
v 1.164078 2.216162 -0.773656
v 1.181268 2.216162 -0.766536
v 1.198458 2.216162 -0.773656
v 1.205579 2.216162 -0.790846
v 1.198458 2.216162 -0.808036
v 1.181268 0.000000 -0.790846
v 1.181268 2.216162 -0.790846
v 1.181268 0.000000 0.766536
v 1.164078 0.000000 0.773656
v 1.156958 0.000000 0.790846
v 1.164078 0.000000 0.808036
v 1.181268 0.000000 0.815157
v 1.198458 0.000000 0.808036
v 1.205579 0.000000 0.790846
v 1.198458 0.000000 0.773656
v 1.181268 0.000000 0.764422
v 1.162584 0.000000 0.772162
v 1.154844 0.000000 0.790846
v 1.162584 0.000000 0.809531
v 1.181268 0.000000 0.817271
v 1.199953 0.000000 0.809531
v 1.207693 0.000000 0.790846
v 1.199953 0.000000 0.772162
v 1.181268 2.216162 0.764422
v 1.162584 2.216162 0.772162
v 1.154844 2.216162 0.790846
v 1.162584 2.216162 0.809531
v 1.181268 2.216162 0.817271
v 1.199953 2.216162 0.809531
v 1.207693 2.216162 0.790846
v 1.199953 2.216162 0.772162
v 1.181268 2.216162 0.766536
v 1.164078 2.216162 0.773656
v 1.156958 2.216162 0.790846
v 1.164078 2.216162 0.808036
v 1.181268 2.216162 0.815157
v 1.198458 2.216162 0.808036
v 1.205579 2.216162 0.790846
v 1.198458 2.216162 0.773656
v 1.181268 0.000000 0.790846
v 1.181268 2.216162 0.790846
v -1.181268 0.000000 0.766536
v -1.198458 0.000000 0.773656
v -1.205579 0.000000 0.790846
v -1.198458 0.000000 0.808036
v -1.181268 0.000000 0.815157
v -1.164078 0.000000 0.808036
v -1.156958 0.000000 0.790846
v -1.164078 0.000000 0.773656
v -1.181268 0.000000 0.764422
v -1.199953 0.000000 0.772162
v -1.207693 0.000000 0.790846
v -1.199953 0.000000 0.809531
v -1.181268 0.000000 0.817271
v -1.162584 0.000000 0.809531
v -1.154844 0.000000 0.790846
v -1.162584 0.000000 0.772162
v -1.181268 2.216162 0.764422
v -1.199953 2.216162 0.772162
v -1.207693 2.216162 0.790846
v -1.199953 2.216162 0.809531
v -1.181268 2.216162 0.817271
v -1.162584 2.216162 0.809531
v -1.154844 2.216162 0.790846
v -1.162584 2.216162 0.772162
v -1.181268 2.216162 0.766536
v -1.198458 2.216162 0.773656
v -1.205579 2.216162 0.790846
v -1.198458 2.216162 0.808036
v -1.181268 2.216162 0.815157
v -1.164078 2.216162 0.808036
v -1.156958 2.216162 0.790846
v -1.164078 2.216162 0.773656
v -1.181268 0.000000 0.790846
v -1.181268 2.216162 0.790846
v -1.181268 2.216162 -0.768967
v -1.181268 2.197214 -0.779907
v -1.181268 2.197214 -0.801786
v -1.181268 2.216162 -0.812726
v -1.181268 2.235110 -0.801786
v -1.181268 2.235110 -0.779907
v -1.181268 2.216162 -0.767065
v -1.181268 2.195566 -0.778956
v -1.181268 2.195566 -0.802737
v -1.181268 2.216162 -0.814628
v -1.181268 2.236758 -0.802737
v -1.181268 2.236758 -0.778956
v 1.181268 2.216162 -0.767065
v 1.181268 2.195566 -0.778956
v 1.181268 2.195566 -0.802737
v 1.181268 2.216162 -0.814628
v 1.181268 2.236758 -0.802737
v 1.181268 2.236758 -0.778956
v 1.181268 2.216162 -0.768967
v 1.181268 2.197214 -0.779907
v 1.181268 2.197214 -0.801786
v 1.181268 2.216162 -0.812726
v 1.181268 2.235110 -0.801786
v 1.181268 2.235110 -0.779907
v -1.181268 2.216162 -0.790846
v 1.181268 2.216162 -0.790846
v 1.159389 2.216162 -0.790846
v 1.170329 2.197214 -0.790846
v 1.192208 2.197214 -0.790846
v 1.203148 2.216162 -0.790846
v 1.192208 2.235110 -0.790846
v 1.170329 2.235110 -0.790846
v 1.157487 2.216162 -0.790846
v 1.169377 2.195566 -0.790846
v 1.193159 2.195566 -0.790846
v 1.205050 2.216162 -0.790846
v 1.193159 2.236758 -0.790846
v 1.169377 2.236758 -0.790846
v 1.157487 2.216162 0.790846
v 1.169377 2.195566 0.790846
v 1.193159 2.195566 0.790846
v 1.205050 2.216162 0.790846
v 1.193159 2.236758 0.790846
v 1.169377 2.236758 0.790846
v 1.159389 2.216162 0.790846
v 1.170329 2.197214 0.790846
v 1.192208 2.197214 0.790846
v 1.203148 2.216162 0.790846
v 1.192208 2.235110 0.790846
v 1.170329 2.235110 0.790846
v 1.181268 2.216162 -0.790846
v 1.181268 2.216162 0.790846
v 1.181268 2.216162 0.768967
v 1.181268 2.197214 0.779907
v 1.181268 2.197214 0.801786
v 1.181268 2.216162 0.812726
v 1.181268 2.235110 0.801786
v 1.181268 2.235110 0.779907
v 1.181268 2.216162 0.767065
v 1.181268 2.195566 0.778956
v 1.181268 2.195566 0.802737
v 1.181268 2.216162 0.814628
v 1.181268 2.236758 0.802737
v 1.181268 2.236758 0.778956
v -1.181268 2.216162 0.767065
v -1.181268 2.195566 0.778956
v -1.181268 2.195566 0.802737
v -1.181268 2.216162 0.814628
v -1.181268 2.236758 0.802737
v -1.181268 2.236758 0.778956
v -1.181268 2.216162 0.768967
v -1.181268 2.197214 0.779907
v -1.181268 2.197214 0.801786
v -1.181268 2.216162 0.812726
v -1.181268 2.235110 0.801786
v -1.181268 2.235110 0.779907
v 1.181268 2.216162 0.790846
v -1.181268 2.216162 0.790846
v -1.159389 2.216162 0.790846
v -1.170329 2.197214 0.790846
v -1.192208 2.197214 0.790846
v -1.203148 2.216162 0.790846
v -1.192208 2.235110 0.790846
v -1.170329 2.235110 0.790846
v -1.157487 2.216162 0.790846
v -1.169377 2.195566 0.790846
v -1.193159 2.195566 0.790846
v -1.205050 2.216162 0.790846
v -1.193159 2.236758 0.790846
v -1.169377 2.236758 0.790846
v -1.157487 2.216162 -0.790846
v -1.169377 2.195566 -0.790846
v -1.193159 2.195566 -0.790846
v -1.205050 2.216162 -0.790846
v -1.193159 2.236758 -0.790846
v -1.169377 2.236758 -0.790846
v -1.159389 2.216162 -0.790846
v -1.170329 2.197214 -0.790846
v -1.192208 2.197214 -0.790846
v -1.203148 2.216162 -0.790846
v -1.192208 2.235110 -0.790846
v -1.170329 2.235110 -0.790846
v -1.181268 2.216162 0.790846
v -1.181268 2.216162 -0.790846
v -1.181268 0.997273 -0.771398
v -1.181268 0.980430 -0.781122
v -1.181268 0.980430 -0.800571
v -1.181268 0.997273 -0.810295
v -1.181268 1.014116 -0.800571
v -1.181268 1.014116 -0.781122
v -1.181268 0.997273 -0.769707
v -1.181268 0.978966 -0.780277
v -1.181268 0.978966 -0.801416
v -1.181268 0.997273 -0.811986
v -1.181268 1.015580 -0.801416
v -1.181268 1.015580 -0.780277
v 1.181268 0.997273 -0.769707
v 1.181268 0.978966 -0.780277
v 1.181268 0.978966 -0.801416
v 1.181268 0.997273 -0.811986
v 1.181268 1.015580 -0.801416
v 1.181268 1.015580 -0.780277
v 1.181268 0.997273 -0.771398
v 1.181268 0.980430 -0.781122
v 1.181268 0.980430 -0.800571
v 1.181268 0.997273 -0.810295
v 1.181268 1.014116 -0.800571
v 1.181268 1.014116 -0.781122
v -1.181268 0.997273 -0.790846
v 1.181268 0.997273 -0.790846
v -1.181268 0.997273 0.810295
v -1.181268 0.980430 0.800571
v -1.181268 0.980430 0.781122
v -1.181268 0.997273 0.771398
v -1.181268 1.014116 0.781122
v -1.181268 1.014116 0.800571
v -1.181268 0.997273 0.811986
v -1.181268 0.978966 0.801416
v -1.181268 0.978966 0.780277
v -1.181268 0.997273 0.769707
v -1.181268 1.015580 0.780277
v -1.181268 1.015580 0.801416
v 1.181268 0.997273 0.811986
v 1.181268 0.978966 0.801416
v 1.181268 0.978966 0.780277
v 1.181268 0.997273 0.769707
v 1.181268 1.015580 0.780277
v 1.181268 1.015580 0.801416
v 1.181268 0.997273 0.810295
v 1.181268 0.980430 0.800571
v 1.181268 0.980430 0.781122
v 1.181268 0.997273 0.771398
v 1.181268 1.014116 0.781122
v 1.181268 1.014116 0.800571
v -1.181268 0.997273 0.790846
v 1.181268 0.997273 0.790846
v -1.240332 2.149873 -0.830389
v -1.085290 2.154260 -0.830389
v -0.930249 2.175671 -0.830389
v -0.775207 2.159051 -0.830389
v -0.620166 2.147136 -0.830389
v -0.465124 2.170563 -0.830389
v -0.310083 2.169094 -0.830389
v -0.155041 2.146506 -0.830389
v 0.000000 2.160881 -0.830389
v 0.155041 2.175256 -0.830389
v 0.310083 2.152668 -0.830389
v 0.465124 2.151198 -0.830389
v 0.620166 2.174626 -0.830389
v 0.775207 2.162710 -0.830389
v 0.930249 2.146090 -0.830389
v 1.085290 2.167501 -0.830389
v 1.240332 2.171888 -0.830389
v -1.240332 2.168693 -0.622792
v -1.085290 2.173081 -0.622792
v -0.930249 2.194491 -0.622792
v -0.775207 2.177871 -0.622792
v -0.620166 2.165956 -0.622792
v -0.465124 2.189384 -0.622792
v -0.310083 2.187914 -0.622792
v -0.155041 2.165326 -0.622792
v 0.000000 2.179701 -0.622792
v 0.155041 2.194076 -0.622792
v 0.310083 2.171488 -0.622792
v 0.465124 2.170018 -0.622792
v 0.620166 2.193446 -0.622792
v 0.775207 2.181531 -0.622792
v 0.930249 2.164911 -0.622792
v 1.085290 2.186321 -0.622792
v 1.240332 2.190709 -0.622792
v -1.240332 2.187513 -0.415194
v -1.085290 2.191901 -0.415194
v -0.930249 2.213312 -0.415194
v -0.775207 2.196692 -0.415194
v -0.620166 2.184776 -0.415194
v -0.465124 2.208204 -0.415194
v -0.310083 2.206734 -0.415194
v -0.155041 2.184146 -0.415194
v 0.000000 2.198521 -0.415194
v 0.155041 2.212896 -0.415194
v 0.310083 2.190308 -0.415194
v 0.465124 2.188839 -0.415194
v 0.620166 2.212266 -0.415194
v 0.775207 2.200351 -0.415194
v 0.930249 2.183731 -0.415194
v 1.085290 2.205142 -0.415194
v 1.240332 2.209529 -0.415194
v -1.240332 2.206334 -0.207597
v -1.085290 2.210721 -0.207597
v -0.930249 2.232132 -0.207597
v -0.775207 2.215512 -0.207597
v -0.620166 2.203597 -0.207597
v -0.465124 2.227024 -0.207597
v -0.310083 2.225555 -0.207597
v -0.155041 2.202967 -0.207597
v 0.000000 2.217342 -0.207597
v 0.155041 2.231717 -0.207597
v 0.310083 2.209129 -0.207597
v 0.465124 2.207659 -0.207597
v 0.620166 2.231087 -0.207597
v 0.775207 2.219171 -0.207597
v 0.930249 2.202551 -0.207597
v 1.085290 2.223962 -0.207597
v 1.240332 2.228349 -0.207597
v -1.240332 2.225154 0.000000
v -1.085290 2.229542 0.000000
v -0.930249 2.250952 0.000000
v -0.775207 2.234332 0.000000
v -0.620166 2.222417 0.000000
v -0.465124 2.245845 0.000000
v -0.310083 2.244375 0.000000
v -0.155041 2.221787 0.000000
v 0.000000 2.236162 0.000000
v 0.155041 2.250537 0.000000
v 0.310083 2.227949 0.000000
v 0.465124 2.226479 0.000000
v 0.620166 2.249907 0.000000
v 0.775207 2.237992 0.000000
v 0.930249 2.221372 0.000000
v 1.085290 2.242782 0.000000
v 1.240332 2.247170 0.000000
v -1.240332 2.206334 0.207597
v -1.085290 2.210721 0.207597
v -0.930249 2.232132 0.207597
v -0.775207 2.215512 0.207597
v -0.620166 2.203597 0.207597
v -0.465124 2.227024 0.207597
v -0.310083 2.225555 0.207597
v -0.155041 2.202967 0.207597
v 0.000000 2.217342 0.207597
v 0.155041 2.231717 0.207597
v 0.310083 2.209129 0.207597
v 0.465124 2.207659 0.207597
v 0.620166 2.231087 0.207597
v 0.775207 2.219171 0.207597
v 0.930249 2.202551 0.207597
v 1.085290 2.223962 0.207597
v 1.240332 2.228349 0.207597
v -1.240332 2.187513 0.415194
v -1.085290 2.191901 0.415194
v -0.930249 2.213312 0.415194
v -0.775207 2.196692 0.415194
v -0.620166 2.184776 0.415194
v -0.465124 2.208204 0.415194
v -0.310083 2.206734 0.415194
v -0.155041 2.184146 0.415194
v 0.000000 2.198521 0.415194
v 0.155041 2.212896 0.415194
v 0.310083 2.190308 0.415194
v 0.465124 2.188839 0.415194
v 0.620166 2.212266 0.415194
v 0.775207 2.200351 0.415194
v 0.930249 2.183731 0.415194
v 1.085290 2.205142 0.415194
v 1.240332 2.209529 0.415194
v -1.240332 2.168693 0.622792
v -1.085290 2.173081 0.622792
v -0.930249 2.194491 0.622792
v -0.775207 2.177871 0.622792
v -0.620166 2.165956 0.622792
v -0.465124 2.189384 0.622792
v -0.310083 2.187914 0.622792
v -0.155041 2.165326 0.622792
v 0.000000 2.179701 0.622792
v 0.155041 2.194076 0.622792
v 0.310083 2.171488 0.622792
v 0.465124 2.170018 0.622792
v 0.620166 2.193446 0.622792
v 0.775207 2.181531 0.622792
v 0.930249 2.164911 0.622792
v 1.085290 2.186321 0.622792
v 1.240332 2.190709 0.622792
v -1.240332 2.149873 0.830389
v -1.085290 2.154260 0.830389
v -0.930249 2.175671 0.830389
v -0.775207 2.159051 0.830389
v -0.620166 2.147136 0.830389
v -0.465124 2.170563 0.830389
v -0.310083 2.169094 0.830389
v -0.155041 2.146506 0.830389
v 0.000000 2.160881 0.830389
v 0.155041 2.175256 0.830389
v 0.310083 2.152668 0.830389
v 0.465124 2.151198 0.830389
v 0.620166 2.174626 0.830389
v 0.775207 2.162710 0.830389
v 0.930249 2.146090 0.830389
v 1.085290 2.167501 0.830389
v 1.240332 2.171888 0.830389
vt 0.000000 0.000000
vt 0.125000 0.000000
vt 0.250000 0.000000
vt 0.375000 0.000000
vt 0.500000 0.000000
vt 0.625000 0.000000
vt 0.750000 0.000000
vt 0.875000 0.000000
vt 0.000000 0.000000
vt 0.125000 0.000000
vt 0.250000 0.000000
vt 0.375000 0.000000
vt 0.500000 0.000000
vt 0.625000 0.000000
vt 0.750000 0.000000
vt 0.875000 0.000000
vt 0.000000 2.216162
vt 0.125000 2.216162
vt 0.250000 2.216162
vt 0.375000 2.216162
vt 0.500000 2.216162
vt 0.625000 2.216162
vt 0.750000 2.216162
vt 0.875000 2.216162
vt 0.000000 2.216162
vt 0.125000 2.216162
vt 0.250000 2.216162
vt 0.375000 2.216162
vt 0.500000 2.216162
vt 0.625000 2.216162
vt 0.750000 2.216162
vt 0.875000 2.216162
vt 0.500000 0.500000
vt 0.500000 0.500000
vt 0.000000 0.000000
vt 0.125000 0.000000
vt 0.250000 0.000000
vt 0.375000 0.000000
vt 0.500000 0.000000
vt 0.625000 0.000000
vt 0.750000 0.000000
vt 0.875000 0.000000
vt 0.000000 0.000000
vt 0.125000 0.000000
vt 0.250000 0.000000
vt 0.375000 0.000000
vt 0.500000 0.000000
vt 0.625000 0.000000
vt 0.750000 0.000000
vt 0.875000 0.000000
vt 0.000000 2.216162
vt 0.125000 2.216162
vt 0.250000 2.216162
vt 0.375000 2.216162
vt 0.500000 2.216162
vt 0.625000 2.216162
vt 0.750000 2.216162
vt 0.875000 2.216162
vt 0.000000 2.216162
vt 0.125000 2.216162
vt 0.250000 2.216162
vt 0.375000 2.216162
vt 0.500000 2.216162
vt 0.625000 2.216162
vt 0.750000 2.216162
vt 0.875000 2.216162
vt 0.500000 0.500000
vt 0.500000 0.500000
vt 0.000000 0.000000
vt 0.125000 0.000000
vt 0.250000 0.000000
vt 0.375000 0.000000
vt 0.500000 0.000000
vt 0.625000 0.000000
vt 0.750000 0.000000
vt 0.875000 0.000000
vt 0.000000 0.000000
vt 0.125000 0.000000
vt 0.250000 0.000000
vt 0.375000 0.000000
vt 0.500000 0.000000
vt 0.625000 0.000000
vt 0.750000 0.000000
vt 0.875000 0.000000
vt 0.000000 2.216162
vt 0.125000 2.216162
vt 0.250000 2.216162
vt 0.375000 2.216162
vt 0.500000 2.216162
vt 0.625000 2.216162
vt 0.750000 2.216162
vt 0.875000 2.216162
vt 0.000000 2.216162
vt 0.125000 2.216162
vt 0.250000 2.216162
vt 0.375000 2.216162
vt 0.500000 2.216162
vt 0.625000 2.216162
vt 0.750000 2.216162
vt 0.875000 2.216162
vt 0.500000 0.500000
vt 0.500000 0.500000
vt 0.000000 0.000000
vt 0.125000 0.000000
vt 0.250000 0.000000
vt 0.375000 0.000000
vt 0.500000 0.000000
vt 0.625000 0.000000
vt 0.750000 0.000000
vt 0.875000 0.000000
vt 0.000000 0.000000
vt 0.125000 0.000000
vt 0.250000 0.000000
vt 0.375000 0.000000
vt 0.500000 0.000000
vt 0.625000 0.000000
vt 0.750000 0.000000
vt 0.875000 0.000000
vt 0.000000 2.216162
vt 0.125000 2.216162
vt 0.250000 2.216162
vt 0.375000 2.216162
vt 0.500000 2.216162
vt 0.625000 2.216162
vt 0.750000 2.216162
vt 0.875000 2.216162
vt 0.000000 2.216162
vt 0.125000 2.216162
vt 0.250000 2.216162
vt 0.375000 2.216162
vt 0.500000 2.216162
vt 0.625000 2.216162
vt 0.750000 2.216162
vt 0.875000 2.216162
vt 0.500000 0.500000
vt 0.500000 0.500000
vt 0.000000 0.000000
vt 0.166667 0.000000
vt 0.333333 0.000000
vt 0.500000 0.000000
vt 0.666667 0.000000
vt 0.833333 0.000000
vt 0.000000 0.000000
vt 0.166667 0.000000
vt 0.333333 0.000000
vt 0.500000 0.000000
vt 0.666667 0.000000
vt 0.833333 0.000000
vt 0.000000 2.362537
vt 0.166667 2.362537
vt 0.333333 2.362537
vt 0.500000 2.362537
vt 0.666667 2.362537
vt 0.833333 2.362537
vt 0.000000 2.362537
vt 0.166667 2.362537
vt 0.333333 2.362537
vt 0.500000 2.362537
vt 0.666667 2.362537
vt 0.833333 2.362537
vt 0.500000 0.500000
vt 0.500000 0.500000
vt 0.000000 0.000000
vt 0.166667 0.000000
vt 0.333333 0.000000
vt 0.500000 0.000000
vt 0.666667 0.000000
vt 0.833333 0.000000
vt 0.000000 0.000000
vt 0.166667 0.000000
vt 0.333333 0.000000
vt 0.500000 0.000000
vt 0.666667 0.000000
vt 0.833333 0.000000
vt 0.000000 1.581693
vt 0.166667 1.581693
vt 0.333333 1.581693
vt 0.500000 1.581693
vt 0.666667 1.581693
vt 0.833333 1.581693
vt 0.000000 1.581693
vt 0.166667 1.581693
vt 0.333333 1.581693
vt 0.500000 1.581693
vt 0.666667 1.581693
vt 0.833333 1.581693
vt 0.500000 0.500000
vt 0.500000 0.500000
vt 0.000000 0.000000
vt 0.166667 0.000000
vt 0.333333 0.000000
vt 0.500000 0.000000
vt 0.666667 0.000000
vt 0.833333 0.000000
vt 0.000000 0.000000
vt 0.166667 0.000000
vt 0.333333 0.000000
vt 0.500000 0.000000
vt 0.666667 0.000000
vt 0.833333 0.000000
vt 0.000000 2.362537
vt 0.166667 2.362537
vt 0.333333 2.362537
vt 0.500000 2.362537
vt 0.666667 2.362537
vt 0.833333 2.362537
vt 0.000000 2.362537
vt 0.166667 2.362537
vt 0.333333 2.362537
vt 0.500000 2.362537
vt 0.666667 2.362537
vt 0.833333 2.362537
vt 0.500000 0.500000
vt 0.500000 0.500000
vt 0.000000 0.000000
vt 0.166667 0.000000
vt 0.333333 0.000000
vt 0.500000 0.000000
vt 0.666667 0.000000
vt 0.833333 0.000000
vt 0.000000 0.000000
vt 0.166667 0.000000
vt 0.333333 0.000000
vt 0.500000 0.000000
vt 0.666667 0.000000
vt 0.833333 0.000000
vt 0.000000 1.581693
vt 0.166667 1.581693
vt 0.333333 1.581693
vt 0.500000 1.581693
vt 0.666667 1.581693
vt 0.833333 1.581693
vt 0.000000 1.581693
vt 0.166667 1.581693
vt 0.333333 1.581693
vt 0.500000 1.581693
vt 0.666667 1.581693
vt 0.833333 1.581693
vt 0.500000 0.500000
vt 0.500000 0.500000
vt 0.000000 0.000000
vt 0.166667 0.000000
vt 0.333333 0.000000
vt 0.500000 0.000000
vt 0.666667 0.000000
vt 0.833333 0.000000
vt 0.000000 0.000000
vt 0.166667 0.000000
vt 0.333333 0.000000
vt 0.500000 0.000000
vt 0.666667 0.000000
vt 0.833333 0.000000
vt 0.000000 2.362537
vt 0.166667 2.362537
vt 0.333333 2.362537
vt 0.500000 2.362537
vt 0.666667 2.362537
vt 0.833333 2.362537
vt 0.000000 2.362537
vt 0.166667 2.362537
vt 0.333333 2.362537
vt 0.500000 2.362537
vt 0.666667 2.362537
vt 0.833333 2.362537
vt 0.500000 0.500000
vt 0.500000 0.500000
vt 0.000000 0.000000
vt 0.166667 0.000000
vt 0.333333 0.000000
vt 0.500000 0.000000
vt 0.666667 0.000000
vt 0.833333 0.000000
vt 0.000000 0.000000
vt 0.166667 0.000000
vt 0.333333 0.000000
vt 0.500000 0.000000
vt 0.666667 0.000000
vt 0.833333 0.000000
vt 0.000000 2.362537
vt 0.166667 2.362537
vt 0.333333 2.362537
vt 0.500000 2.362537
vt 0.666667 2.362537
vt 0.833333 2.362537
vt 0.000000 2.362537
vt 0.166667 2.362537
vt 0.333333 2.362537
vt 0.500000 2.362537
vt 0.666667 2.362537
vt 0.833333 2.362537
vt 0.500000 0.500000
vt 0.500000 0.500000
vt 0.000000 0.000000
vt 0.125000 0.000000
vt 0.250000 0.000000
vt 0.375000 0.000000
vt 0.500000 0.000000
vt 0.625000 0.000000
vt 0.750000 0.000000
vt 0.875000 0.000000
vt 1.000000 0.000000
vt 1.125000 0.000000
vt 1.250000 0.000000
vt 1.375000 0.000000
vt 1.500000 0.000000
vt 1.625000 0.000000
vt 1.750000 0.000000
vt 1.875000 0.000000
vt 2.000000 0.000000
vt 0.000000 0.250000
vt 0.125000 0.250000
vt 0.250000 0.250000
vt 0.375000 0.250000
vt 0.500000 0.250000
vt 0.625000 0.250000
vt 0.750000 0.250000
vt 0.875000 0.250000
vt 1.000000 0.250000
vt 1.125000 0.250000
vt 1.250000 0.250000
vt 1.375000 0.250000
vt 1.500000 0.250000
vt 1.625000 0.250000
vt 1.750000 0.250000
vt 1.875000 0.250000
vt 2.000000 0.250000
vt 0.000000 0.500000
vt 0.125000 0.500000
vt 0.250000 0.500000
vt 0.375000 0.500000
vt 0.500000 0.500000
vt 0.625000 0.500000
vt 0.750000 0.500000
vt 0.875000 0.500000
vt 1.000000 0.500000
vt 1.125000 0.500000
vt 1.250000 0.500000
vt 1.375000 0.500000
vt 1.500000 0.500000
vt 1.625000 0.500000
vt 1.750000 0.500000
vt 1.875000 0.500000
vt 2.000000 0.500000
vt 0.000000 0.750000
vt 0.125000 0.750000
vt 0.250000 0.750000
vt 0.375000 0.750000
vt 0.500000 0.750000
vt 0.625000 0.750000
vt 0.750000 0.750000
vt 0.875000 0.750000
vt 1.000000 0.750000
vt 1.125000 0.750000
vt 1.250000 0.750000
vt 1.375000 0.750000
vt 1.500000 0.750000
vt 1.625000 0.750000
vt 1.750000 0.750000
vt 1.875000 0.750000
vt 2.000000 0.750000
vt 0.000000 1.000000
vt 0.125000 1.000000
vt 0.250000 1.000000
vt 0.375000 1.000000
vt 0.500000 1.000000
vt 0.625000 1.000000
vt 0.750000 1.000000
vt 0.875000 1.000000
vt 1.000000 1.000000
vt 1.125000 1.000000
vt 1.250000 1.000000
vt 1.375000 1.000000
vt 1.500000 1.000000
vt 1.625000 1.000000
vt 1.750000 1.000000
vt 1.875000 1.000000
vt 2.000000 1.000000
vt 0.000000 1.250000
vt 0.125000 1.250000
vt 0.250000 1.250000
vt 0.375000 1.250000
vt 0.500000 1.250000
vt 0.625000 1.250000
vt 0.750000 1.250000
vt 0.875000 1.250000
vt 1.000000 1.250000
vt 1.125000 1.250000
vt 1.250000 1.250000
vt 1.375000 1.250000
vt 1.500000 1.250000
vt 1.625000 1.250000
vt 1.750000 1.250000
vt 1.875000 1.250000
vt 2.000000 1.250000
vt 0.000000 1.500000
vt 0.125000 1.500000
vt 0.250000 1.500000
vt 0.375000 1.500000
vt 0.500000 1.500000
vt 0.625000 1.500000
vt 0.750000 1.500000
vt 0.875000 1.500000
vt 1.000000 1.500000
vt 1.125000 1.500000
vt 1.250000 1.500000
vt 1.375000 1.500000
vt 1.500000 1.500000
vt 1.625000 1.500000
vt 1.750000 1.500000
vt 1.875000 1.500000
vt 2.000000 1.500000
vt 0.000000 1.750000
vt 0.125000 1.750000
vt 0.250000 1.750000
vt 0.375000 1.750000
vt 0.500000 1.750000
vt 0.625000 1.750000
vt 0.750000 1.750000
vt 0.875000 1.750000
vt 1.000000 1.750000
vt 1.125000 1.750000
vt 1.250000 1.750000
vt 1.375000 1.750000
vt 1.500000 1.750000
vt 1.625000 1.750000
vt 1.750000 1.750000
vt 1.875000 1.750000
vt 2.000000 1.750000
vt 0.000000 2.000000
vt 0.125000 2.000000
vt 0.250000 2.000000
vt 0.375000 2.000000
vt 0.500000 2.000000
vt 0.625000 2.000000
vt 0.750000 2.000000
vt 0.875000 2.000000
vt 1.000000 2.000000
vt 1.125000 2.000000
vt 1.250000 2.000000
vt 1.375000 2.000000
vt 1.500000 2.000000
vt 1.625000 2.000000
vt 1.750000 2.000000
vt 1.875000 2.000000
vt 2.000000 2.000000
vn 0.000000 0.000000 -1.000000
vn -0.707107 0.000000 -0.707107
vn -1.000000 0.000000 -0.000000
vn -0.707107 0.000000 0.707107
vn -0.000000 0.000000 1.000000
vn 0.707107 -0.000000 0.707107
vn 1.000000 -0.000000 0.000000
vn 0.707107 0.000000 -0.707107
vn 0.000000 0.000000 -1.000000
vn -0.707107 0.000000 -0.707107
vn -1.000000 0.000000 -0.000000
vn -0.707107 0.000000 0.707107
vn -0.000000 0.000000 1.000000
vn 0.707107 -0.000000 0.707107
vn 1.000000 -0.000000 0.000000
vn 0.707107 0.000000 -0.707107
vn 0.000000 0.000000 -1.000000
vn -0.707107 0.000000 -0.707107
vn -1.000000 0.000000 -0.000000
vn -0.707107 0.000000 0.707107
vn -0.000000 0.000000 1.000000
vn 0.707107 -0.000000 0.707107
vn 1.000000 -0.000000 0.000000
vn 0.707107 0.000000 -0.707107
vn 0.000000 0.000000 -1.000000
vn -0.707107 0.000000 -0.707107
vn -1.000000 0.000000 -0.000000
vn -0.707107 0.000000 0.707107
vn -0.000000 0.000000 1.000000
vn 0.707107 -0.000000 0.707107
vn 1.000000 -0.000000 0.000000
vn 0.707107 0.000000 -0.707107
vn -0.000000 -1.000000 -0.000000
vn 0.000000 1.000000 0.000000
vn 0.000000 0.000000 -1.000000
vn -0.707107 0.000000 -0.707107
vn -1.000000 0.000000 -0.000000
vn -0.707107 0.000000 0.707107
vn -0.000000 0.000000 1.000000
vn 0.707107 -0.000000 0.707107
vn 1.000000 -0.000000 0.000000
vn 0.707107 0.000000 -0.707107
vn 0.000000 0.000000 -1.000000
vn -0.707107 0.000000 -0.707107
vn -1.000000 0.000000 -0.000000
vn -0.707107 0.000000 0.707107
vn -0.000000 0.000000 1.000000
vn 0.707107 -0.000000 0.707107
vn 1.000000 -0.000000 0.000000
vn 0.707107 0.000000 -0.707107
vn 0.000000 0.000000 -1.000000
vn -0.707107 0.000000 -0.707107
vn -1.000000 0.000000 -0.000000
vn -0.707107 0.000000 0.707107
vn -0.000000 0.000000 1.000000
vn 0.707107 -0.000000 0.707107
vn 1.000000 -0.000000 0.000000
vn 0.707107 0.000000 -0.707107
vn 0.000000 0.000000 -1.000000
vn -0.707107 0.000000 -0.707107
vn -1.000000 0.000000 -0.000000
vn -0.707107 0.000000 0.707107
vn -0.000000 0.000000 1.000000
vn 0.707107 -0.000000 0.707107
vn 1.000000 -0.000000 0.000000
vn 0.707107 0.000000 -0.707107
vn -0.000000 -1.000000 -0.000000
vn 0.000000 1.000000 0.000000
vn 0.000000 0.000000 -1.000000
vn -0.707107 0.000000 -0.707107
vn -1.000000 0.000000 -0.000000
vn -0.707107 0.000000 0.707107
vn -0.000000 0.000000 1.000000
vn 0.707107 -0.000000 0.707107
vn 1.000000 -0.000000 0.000000
vn 0.707107 0.000000 -0.707107
vn 0.000000 0.000000 -1.000000
vn -0.707107 0.000000 -0.707107
vn -1.000000 0.000000 -0.000000
vn -0.707107 0.000000 0.707107
vn -0.000000 0.000000 1.000000
vn 0.707107 -0.000000 0.707107
vn 1.000000 -0.000000 0.000000
vn 0.707107 0.000000 -0.707107
vn 0.000000 0.000000 -1.000000
vn -0.707107 0.000000 -0.707107
vn -1.000000 0.000000 -0.000000
vn -0.707107 0.000000 0.707107
vn -0.000000 0.000000 1.000000
vn 0.707107 -0.000000 0.707107
vn 1.000000 -0.000000 0.000000
vn 0.707107 0.000000 -0.707107
vn 0.000000 0.000000 -1.000000
vn -0.707107 0.000000 -0.707107
vn -1.000000 0.000000 -0.000000
vn -0.707107 0.000000 0.707107
vn -0.000000 0.000000 1.000000
vn 0.707107 -0.000000 0.707107
vn 1.000000 -0.000000 0.000000
vn 0.707107 0.000000 -0.707107
vn -0.000000 -1.000000 -0.000000
vn 0.000000 1.000000 0.000000
vn 0.000000 0.000000 -1.000000
vn -0.707107 0.000000 -0.707107
vn -1.000000 0.000000 -0.000000
vn -0.707107 0.000000 0.707107
vn -0.000000 0.000000 1.000000
vn 0.707107 -0.000000 0.707107
vn 1.000000 -0.000000 0.000000
vn 0.707107 0.000000 -0.707107
vn 0.000000 0.000000 -1.000000
vn -0.707107 0.000000 -0.707107
vn -1.000000 0.000000 -0.000000
vn -0.707107 0.000000 0.707107
vn -0.000000 0.000000 1.000000
vn 0.707107 -0.000000 0.707107
vn 1.000000 -0.000000 0.000000
vn 0.707107 0.000000 -0.707107
vn 0.000000 0.000000 -1.000000
vn -0.707107 0.000000 -0.707107
vn -1.000000 0.000000 -0.000000
vn -0.707107 0.000000 0.707107
vn -0.000000 0.000000 1.000000
vn 0.707107 -0.000000 0.707107
vn 1.000000 -0.000000 0.000000
vn 0.707107 0.000000 -0.707107
vn 0.000000 0.000000 -1.000000
vn -0.707107 0.000000 -0.707107
vn -1.000000 0.000000 -0.000000
vn -0.707107 0.000000 0.707107
vn -0.000000 0.000000 1.000000
vn 0.707107 -0.000000 0.707107
vn 1.000000 -0.000000 0.000000
vn 0.707107 0.000000 -0.707107
vn -0.000000 -1.000000 -0.000000
vn 0.000000 1.000000 0.000000
vn 0.000000 0.000000 1.000000
vn 0.000000 -0.866025 0.500000
vn 0.000000 -0.866025 -0.500000
vn 0.000000 -0.000000 -1.000000
vn -0.000000 0.866025 -0.500000
vn 0.000000 0.866025 0.500000
vn 0.000000 0.000000 1.000000
vn 0.000000 -0.866025 0.500000
vn 0.000000 -0.866025 -0.500000
vn 0.000000 -0.000000 -1.000000
vn -0.000000 0.866025 -0.500000
vn 0.000000 0.866025 0.500000
vn 0.000000 0.000000 1.000000
vn 0.000000 -0.866025 0.500000
vn 0.000000 -0.866025 -0.500000
vn 0.000000 -0.000000 -1.000000
vn -0.000000 0.866025 -0.500000
vn 0.000000 0.866025 0.500000
vn 0.000000 0.000000 1.000000
vn 0.000000 -0.866025 0.500000
vn 0.000000 -0.866025 -0.500000
vn 0.000000 -0.000000 -1.000000
vn -0.000000 0.866025 -0.500000
vn 0.000000 0.866025 0.500000
vn -1.000000 -0.000000 -0.000000
vn 1.000000 0.000000 0.000000
vn -1.000000 0.000000 0.000000
vn -0.500000 -0.866025 0.000000
vn 0.500000 -0.866025 0.000000
vn 1.000000 -0.000000 0.000000
vn 0.500000 0.866025 -0.000000
vn -0.500000 0.866025 0.000000
vn -1.000000 0.000000 0.000000
vn -0.500000 -0.866025 0.000000
vn 0.500000 -0.866025 0.000000
vn 1.000000 -0.000000 0.000000
vn 0.500000 0.866025 -0.000000
vn -0.500000 0.866025 0.000000
vn -1.000000 0.000000 0.000000
vn -0.500000 -0.866025 0.000000
vn 0.500000 -0.866025 0.000000
vn 1.000000 -0.000000 0.000000
vn 0.500000 0.866025 -0.000000
vn -0.500000 0.866025 0.000000
vn -1.000000 0.000000 0.000000
vn -0.500000 -0.866025 0.000000
vn 0.500000 -0.866025 0.000000
vn 1.000000 -0.000000 0.000000
vn 0.500000 0.866025 -0.000000
vn -0.500000 0.866025 0.000000
vn -0.000000 -0.000000 -1.000000
vn 0.000000 0.000000 1.000000
vn 0.000000 0.000000 -1.000000
vn 0.000000 -0.866025 -0.500000
vn -0.000000 -0.866025 0.500000
vn -0.000000 -0.000000 1.000000
vn 0.000000 0.866025 0.500000
vn 0.000000 0.866025 -0.500000
vn 0.000000 0.000000 -1.000000
vn 0.000000 -0.866025 -0.500000
vn -0.000000 -0.866025 0.500000
vn -0.000000 -0.000000 1.000000
vn 0.000000 0.866025 0.500000
vn 0.000000 0.866025 -0.500000
vn 0.000000 0.000000 -1.000000
vn 0.000000 -0.866025 -0.500000
vn -0.000000 -0.866025 0.500000
vn -0.000000 -0.000000 1.000000
vn 0.000000 0.866025 0.500000
vn 0.000000 0.866025 -0.500000
vn 0.000000 0.000000 -1.000000
vn 0.000000 -0.866025 -0.500000
vn -0.000000 -0.866025 0.500000
vn -0.000000 -0.000000 1.000000
vn 0.000000 0.866025 0.500000
vn 0.000000 0.866025 -0.500000
vn 1.000000 -0.000000 -0.000000
vn -1.000000 0.000000 0.000000
vn 1.000000 -0.000000 0.000000
vn 0.500000 -0.866025 0.000000
vn -0.500000 -0.866025 -0.000000
vn -1.000000 -0.000000 -0.000000
vn -0.500000 0.866025 0.000000
vn 0.500000 0.866025 0.000000
vn 1.000000 -0.000000 0.000000
vn 0.500000 -0.866025 0.000000
vn -0.500000 -0.866025 -0.000000
vn -1.000000 -0.000000 -0.000000
vn -0.500000 0.866025 0.000000
vn 0.500000 0.866025 0.000000
vn 1.000000 -0.000000 0.000000
vn 0.500000 -0.866025 0.000000
vn -0.500000 -0.866025 -0.000000
vn -1.000000 -0.000000 -0.000000
vn -0.500000 0.866025 0.000000
vn 0.500000 0.866025 0.000000
vn 1.000000 -0.000000 0.000000
vn 0.500000 -0.866025 0.000000
vn -0.500000 -0.866025 -0.000000
vn -1.000000 -0.000000 -0.000000
vn -0.500000 0.866025 0.000000
vn 0.500000 0.866025 0.000000
vn -0.000000 -0.000000 1.000000
vn 0.000000 0.000000 -1.000000
vn 0.000000 0.000000 1.000000
vn 0.000000 -0.866025 0.500000
vn 0.000000 -0.866025 -0.500000
vn 0.000000 -0.000000 -1.000000
vn -0.000000 0.866025 -0.500000
vn 0.000000 0.866025 0.500000
vn 0.000000 0.000000 1.000000
vn 0.000000 -0.866025 0.500000
vn 0.000000 -0.866025 -0.500000
vn 0.000000 -0.000000 -1.000000
vn -0.000000 0.866025 -0.500000
vn 0.000000 0.866025 0.500000
vn 0.000000 0.000000 1.000000
vn 0.000000 -0.866025 0.500000
vn 0.000000 -0.866025 -0.500000
vn 0.000000 -0.000000 -1.000000
vn -0.000000 0.866025 -0.500000
vn 0.000000 0.866025 0.500000
vn 0.000000 0.000000 1.000000
vn 0.000000 -0.866025 0.500000
vn 0.000000 -0.866025 -0.500000
vn 0.000000 -0.000000 -1.000000
vn -0.000000 0.866025 -0.500000
vn 0.000000 0.866025 0.500000
vn -1.000000 -0.000000 -0.000000
vn 1.000000 0.000000 0.000000
vn 0.000000 0.000000 1.000000
vn 0.000000 -0.866025 0.500000
vn 0.000000 -0.866025 -0.500000
vn 0.000000 -0.000000 -1.000000
vn -0.000000 0.866025 -0.500000
vn 0.000000 0.866025 0.500000
vn 0.000000 0.000000 1.000000
vn 0.000000 -0.866025 0.500000
vn 0.000000 -0.866025 -0.500000
vn 0.000000 -0.000000 -1.000000
vn -0.000000 0.866025 -0.500000
vn 0.000000 0.866025 0.500000
vn 0.000000 0.000000 1.000000
vn 0.000000 -0.866025 0.500000
vn 0.000000 -0.866025 -0.500000
vn 0.000000 -0.000000 -1.000000
vn -0.000000 0.866025 -0.500000
vn 0.000000 0.866025 0.500000
vn 0.000000 0.000000 1.000000
vn 0.000000 -0.866025 0.500000
vn 0.000000 -0.866025 -0.500000
vn 0.000000 -0.000000 -1.000000
vn -0.000000 0.866025 -0.500000
vn 0.000000 0.866025 0.500000
vn -1.000000 -0.000000 -0.000000
vn 1.000000 0.000000 0.000000
vn 0.000000 0.995916 -0.090288
vn 0.000000 0.995916 -0.090288
vn 0.000000 0.995916 -0.090288
vn 0.000000 0.995916 -0.090288
vn 0.000000 0.995916 -0.090288
vn 0.000000 0.995916 -0.090288
vn 0.000000 0.995916 -0.090288
vn 0.000000 0.995916 -0.090288
vn 0.000000 0.995916 -0.090288
vn 0.000000 0.995916 -0.090288
vn 0.000000 0.995916 -0.090288
vn 0.000000 0.995916 -0.090288
vn 0.000000 0.995916 -0.090288
vn 0.000000 0.995916 -0.090288
vn 0.000000 0.995916 -0.090288
vn 0.000000 0.995916 -0.090288
vn 0.000000 0.995916 -0.090288
vn 0.000000 0.995916 -0.090288
vn 0.000000 0.995916 -0.090288
vn 0.000000 0.995916 -0.090288
vn 0.000000 0.995916 -0.090288
vn 0.000000 0.995916 -0.090288
vn 0.000000 0.995916 -0.090288
vn 0.000000 0.995916 -0.090288
vn 0.000000 0.995916 -0.090288
vn 0.000000 0.995916 -0.090288
vn 0.000000 0.995916 -0.090288
vn 0.000000 0.995916 -0.090288
vn 0.000000 0.995916 -0.090288
vn 0.000000 0.995916 -0.090288
vn 0.000000 0.995916 -0.090288
vn 0.000000 0.995916 -0.090288
vn 0.000000 0.995916 -0.090288
vn 0.000000 0.995916 -0.090288
vn 0.000000 0.995916 -0.090288
vn 0.000000 0.995916 -0.090288
vn 0.000000 0.995916 -0.090288
vn 0.000000 0.995916 -0.090288
vn 0.000000 0.995916 -0.090288
vn 0.000000 0.995916 -0.090288
vn 0.000000 0.995916 -0.090288
vn 0.000000 0.995916 -0.090288
vn 0.000000 0.995916 -0.090288
vn 0.000000 0.995916 -0.090288
vn 0.000000 0.995916 -0.090288
vn 0.000000 0.995916 -0.090288
vn 0.000000 0.995916 -0.090288
vn 0.000000 0.995916 -0.090288
vn 0.000000 0.995916 -0.090288
vn 0.000000 0.995916 -0.090288
vn 0.000000 0.995916 -0.090288
vn 0.000000 0.995916 -0.090288
vn 0.000000 0.995916 -0.090288
vn 0.000000 0.995916 -0.090288
vn 0.000000 0.995916 -0.090288
vn 0.000000 0.995916 -0.090288
vn 0.000000 0.995916 -0.090288
vn 0.000000 0.995916 -0.090288
vn 0.000000 0.995916 -0.090288
vn 0.000000 0.995916 -0.090288
vn 0.000000 0.995916 -0.090288
vn 0.000000 0.995916 -0.090288
vn 0.000000 0.995916 -0.090288
vn 0.000000 0.995916 -0.090288
vn 0.000000 0.995916 -0.090288
vn 0.000000 0.995916 -0.090288
vn 0.000000 0.995916 -0.090288
vn 0.000000 0.995916 -0.090288
vn 0.000000 1.000000 0.000000
vn 0.000000 1.000000 0.000000
vn 0.000000 1.000000 0.000000
vn 0.000000 1.000000 0.000000
vn 0.000000 1.000000 0.000000
vn 0.000000 1.000000 0.000000
vn 0.000000 1.000000 0.000000
vn 0.000000 1.000000 0.000000
vn 0.000000 1.000000 0.000000
vn 0.000000 1.000000 0.000000
vn 0.000000 1.000000 0.000000
vn 0.000000 1.000000 0.000000
vn 0.000000 1.000000 0.000000
vn 0.000000 1.000000 0.000000
vn 0.000000 1.000000 0.000000
vn 0.000000 1.000000 0.000000
vn 0.000000 1.000000 0.000000
vn 0.000000 0.995916 0.090288
vn 0.000000 0.995916 0.090288
vn 0.000000 0.995916 0.090288
vn 0.000000 0.995916 0.090288
vn 0.000000 0.995916 0.090288
vn 0.000000 0.995916 0.090288
vn 0.000000 0.995916 0.090288
vn 0.000000 0.995916 0.090288
vn 0.000000 0.995916 0.090288
vn 0.000000 0.995916 0.090288
vn 0.000000 0.995916 0.090288
vn 0.000000 0.995916 0.090288
vn 0.000000 0.995916 0.090288
vn 0.000000 0.995916 0.090288
vn 0.000000 0.995916 0.090288
vn 0.000000 0.995916 0.090288
vn 0.000000 0.995916 0.090288
vn 0.000000 0.995916 0.090288
vn 0.000000 0.995916 0.090288
vn 0.000000 0.995916 0.090288
vn 0.000000 0.995916 0.090288
vn 0.000000 0.995916 0.090288
vn 0.000000 0.995916 0.090288
vn 0.000000 0.995916 0.090288
vn 0.000000 0.995916 0.090288
vn 0.000000 0.995916 0.090288
vn 0.000000 0.995916 0.090288
vn 0.000000 0.995916 0.090288
vn 0.000000 0.995916 0.090288
vn 0.000000 0.995916 0.090288
vn 0.000000 0.995916 0.090288
vn 0.000000 0.995916 0.090288
vn 0.000000 0.995916 0.090288
vn 0.000000 0.995916 0.090288
vn 0.000000 0.995916 0.090288
vn 0.000000 0.995916 0.090288
vn 0.000000 0.995916 0.090288
vn 0.000000 0.995916 0.090288
vn 0.000000 0.995916 0.090288
vn 0.000000 0.995916 0.090288
vn 0.000000 0.995916 0.090288
vn 0.000000 0.995916 0.090288
vn 0.000000 0.995916 0.090288
vn 0.000000 0.995916 0.090288
vn 0.000000 0.995916 0.090288
vn 0.000000 0.995916 0.090288
vn 0.000000 0.995916 0.090288
vn 0.000000 0.995916 0.090288
vn 0.000000 0.995916 0.090288
vn 0.000000 0.995916 0.090288
vn 0.000000 0.995916 0.090288
vn 0.000000 0.995916 0.090288
vn 0.000000 0.995916 0.090288
vn 0.000000 0.995916 0.090288
vn 0.000000 0.995916 0.090288
vn 0.000000 0.995916 0.090288
vn 0.000000 0.995916 0.090288
vn 0.000000 0.995916 0.090288
vn 0.000000 0.995916 0.090288
vn 0.000000 0.995916 0.090288
vn 0.000000 0.995916 0.090288
vn 0.000000 0.995916 0.090288
vn 0.000000 0.995916 0.090288
vn 0.000000 0.995916 0.090288
vn 0.000000 0.995916 0.090288
vn 0.000000 0.995916 0.090288
vn 0.000000 0.995916 0.090288
vn 0.000000 0.995916 0.090288
f 1/1/1 9/9/9 10/10/10
f 1/1/1 10/10/10 2/2/2
f 2/2/2 10/10/10 11/11/11
f 2/2/2 11/11/11 3/3/3
f 3/3/3 11/11/11 12/12/12
f 3/3/3 12/12/12 4/4/4
f 4/4/4 12/12/12 13/13/13
f 4/4/4 13/13/13 5/5/5
f 5/5/5 13/13/13 14/14/14
f 5/5/5 14/14/14 6/6/6
f 6/6/6 14/14/14 15/15/15
f 6/6/6 15/15/15 7/7/7
f 7/7/7 15/15/15 16/16/16
f 7/7/7 16/16/16 8/8/8
f 8/8/8 16/16/16 9/9/9
f 8/8/8 9/9/9 1/1/1
f 9/9/9 17/17/17 18/18/18
f 9/9/9 18/18/18 10/10/10
f 10/10/10 18/18/18 19/19/19
f 10/10/10 19/19/19 11/11/11
f 11/11/11 19/19/19 20/20/20
f 11/11/11 20/20/20 12/12/12
f 12/12/12 20/20/20 21/21/21
f 12/12/12 21/21/21 13/13/13
f 13/13/13 21/21/21 22/22/22
f 13/13/13 22/22/22 14/14/14
f 14/14/14 22/22/22 23/23/23
f 14/14/14 23/23/23 15/15/15
f 15/15/15 23/23/23 24/24/24
f 15/15/15 24/24/24 16/16/16
f 16/16/16 24/24/24 17/17/17
f 16/16/16 17/17/17 9/9/9
f 17/17/17 25/25/25 26/26/26
f 17/17/17 26/26/26 18/18/18
f 18/18/18 26/26/26 27/27/27
f 18/18/18 27/27/27 19/19/19
f 19/19/19 27/27/27 28/28/28
f 19/19/19 28/28/28 20/20/20
f 20/20/20 28/28/28 29/29/29
f 20/20/20 29/29/29 21/21/21
f 21/21/21 29/29/29 30/30/30
f 21/21/21 30/30/30 22/22/22
f 22/22/22 30/30/30 31/31/31
f 22/22/22 31/31/31 23/23/23
f 23/23/23 31/31/31 32/32/32
f 23/23/23 32/32/32 24/24/24
f 24/24/24 32/32/32 25/25/25
f 24/24/24 25/25/25 17/17/17
f 33/33/33 2/2/2 1/1/1
f 33/33/33 3/3/3 2/2/2
f 33/33/33 4/4/4 3/3/3
f 33/33/33 5/5/5 4/4/4
f 33/33/33 6/6/6 5/5/5
f 33/33/33 7/7/7 6/6/6
f 33/33/33 8/8/8 7/7/7
f 33/33/33 1/1/1 8/8/8
f 34/34/34 25/25/25 26/26/26
f 34/34/34 26/26/26 27/27/27
f 34/34/34 27/27/27 28/28/28
f 34/34/34 28/28/28 29/29/29
f 34/34/34 29/29/29 30/30/30
f 34/34/34 30/30/30 31/31/31
f 34/34/34 31/31/31 32/32/32
f 34/34/34 32/32/32 25/25/25
f 35/35/35 43/43/43 44/44/44
f 35/35/35 44/44/44 36/36/36
f 36/36/36 44/44/44 45/45/45
f 36/36/36 45/45/45 37/37/37
f 37/37/37 45/45/45 46/46/46
f 37/37/37 46/46/46 38/38/38
f 38/38/38 46/46/46 47/47/47
f 38/38/38 47/47/47 39/39/39
f 39/39/39 47/47/47 48/48/48
f 39/39/39 48/48/48 40/40/40
f 40/40/40 48/48/48 49/49/49
f 40/40/40 49/49/49 41/41/41
f 41/41/41 49/49/49 50/50/50
f 41/41/41 50/50/50 42/42/42
f 42/42/42 50/50/50 43/43/43
f 42/42/42 43/43/43 35/35/35
f 43/43/43 51/51/51 52/52/52
f 43/43/43 52/52/52 44/44/44
f 44/44/44 52/52/52 53/53/53
f 44/44/44 53/53/53 45/45/45
f 45/45/45 53/53/53 54/54/54
f 45/45/45 54/54/54 46/46/46
f 46/46/46 54/54/54 55/55/55
f 46/46/46 55/55/55 47/47/47
f 47/47/47 55/55/55 56/56/56
f 47/47/47 56/56/56 48/48/48
f 48/48/48 56/56/56 57/57/57
f 48/48/48 57/57/57 49/49/49
f 49/49/49 57/57/57 58/58/58
f 49/49/49 58/58/58 50/50/50
f 50/50/50 58/58/58 51/51/51
f 50/50/50 51/51/51 43/43/43
f 51/51/51 59/59/59 60/60/60
f 51/51/51 60/60/60 52/52/52
f 52/52/52 60/60/60 61/61/61
f 52/52/52 61/61/61 53/53/53
f 53/53/53 61/61/61 62/62/62
f 53/53/53 62/62/62 54/54/54
f 54/54/54 62/62/62 63/63/63
f 54/54/54 63/63/63 55/55/55
f 55/55/55 63/63/63 64/64/64
f 55/55/55 64/64/64 56/56/56
f 56/56/56 64/64/64 65/65/65
f 56/56/56 65/65/65 57/57/57
f 57/57/57 65/65/65 66/66/66
f 57/57/57 66/66/66 58/58/58
f 58/58/58 66/66/66 59/59/59
f 58/58/58 59/59/59 51/51/51
f 67/67/67 36/36/36 35/35/35
f 67/67/67 37/37/37 36/36/36
f 67/67/67 38/38/38 37/37/37
f 67/67/67 39/39/39 38/38/38
f 67/67/67 40/40/40 39/39/39
f 67/67/67 41/41/41 40/40/40
f 67/67/67 42/42/42 41/41/41
f 67/67/67 35/35/35 42/42/42
f 68/68/68 59/59/59 60/60/60
f 68/68/68 60/60/60 61/61/61
f 68/68/68 61/61/61 62/62/62
f 68/68/68 62/62/62 63/63/63
f 68/68/68 63/63/63 64/64/64
f 68/68/68 64/64/64 65/65/65
f 68/68/68 65/65/65 66/66/66
f 68/68/68 66/66/66 59/59/59
f 69/69/69 77/77/77 78/78/78
f 69/69/69 78/78/78 70/70/70
f 70/70/70 78/78/78 79/79/79
f 70/70/70 79/79/79 71/71/71
f 71/71/71 79/79/79 80/80/80
f 71/71/71 80/80/80 72/72/72
f 72/72/72 80/80/80 81/81/81
f 72/72/72 81/81/81 73/73/73
f 73/73/73 81/81/81 82/82/82
f 73/73/73 82/82/82 74/74/74
f 74/74/74 82/82/82 83/83/83
f 74/74/74 83/83/83 75/75/75
f 75/75/75 83/83/83 84/84/84
f 75/75/75 84/84/84 76/76/76
f 76/76/76 84/84/84 77/77/77
f 76/76/76 77/77/77 69/69/69
f 77/77/77 85/85/85 86/86/86
f 77/77/77 86/86/86 78/78/78
f 78/78/78 86/86/86 87/87/87
f 78/78/78 87/87/87 79/79/79
f 79/79/79 87/87/87 88/88/88
f 79/79/79 88/88/88 80/80/80
f 80/80/80 88/88/88 89/89/89
f 80/80/80 89/89/89 81/81/81
f 81/81/81 89/89/89 90/90/90
f 81/81/81 90/90/90 82/82/82
f 82/82/82 90/90/90 91/91/91
f 82/82/82 91/91/91 83/83/83
f 83/83/83 91/91/91 92/92/92
f 83/83/83 92/92/92 84/84/84
f 84/84/84 92/92/92 85/85/85
f 84/84/84 85/85/85 77/77/77
f 85/85/85 93/93/93 94/94/94
f 85/85/85 94/94/94 86/86/86
f 86/86/86 94/94/94 95/95/95
f 86/86/86 95/95/95 87/87/87
f 87/87/87 95/95/95 96/96/96
f 87/87/87 96/96/96 88/88/88
f 88/88/88 96/96/96 97/97/97
f 88/88/88 97/97/97 89/89/89
f 89/89/89 97/97/97 98/98/98
f 89/89/89 98/98/98 90/90/90
f 90/90/90 98/98/98 99/99/99
f 90/90/90 99/99/99 91/91/91
f 91/91/91 99/99/99 100/100/100
f 91/91/91 100/100/100 92/92/92
f 92/92/92 100/100/100 93/93/93
f 92/92/92 93/93/93 85/85/85
f 101/101/101 70/70/70 69/69/69
f 101/101/101 71/71/71 70/70/70
f 101/101/101 72/72/72 71/71/71
f 101/101/101 73/73/73 72/72/72
f 101/101/101 74/74/74 73/73/73
f 101/101/101 75/75/75 74/74/74
f 101/101/101 76/76/76 75/75/75
f 101/101/101 69/69/69 76/76/76
f 102/102/102 93/93/93 94/94/94
f 102/102/102 94/94/94 95/95/95
f 102/102/102 95/95/95 96/96/96
f 102/102/102 96/96/96 97/97/97
f 102/102/102 97/97/97 98/98/98
f 102/102/102 98/98/98 99/99/99
f 102/102/102 99/99/99 100/100/100
f 102/102/102 100/100/100 93/93/93
f 103/103/103 111/111/111 112/112/112
f 103/103/103 112/112/112 104/104/104
f 104/104/104 112/112/112 113/113/113
f 104/104/104 113/113/113 105/105/105
f 105/105/105 113/113/113 114/114/114
f 105/105/105 114/114/114 106/106/106
f 106/106/106 114/114/114 115/115/115
f 106/106/106 115/115/115 107/107/107
f 107/107/107 115/115/115 116/116/116
f 107/107/107 116/116/116 108/108/108
f 108/108/108 116/116/116 117/117/117
f 108/108/108 117/117/117 109/109/109
f 109/109/109 117/117/117 118/118/118
f 109/109/109 118/118/118 110/110/110
f 110/110/110 118/118/118 111/111/111
f 110/110/110 111/111/111 103/103/103
f 111/111/111 119/119/119 120/120/120
f 111/111/111 120/120/120 112/112/112
f 112/112/112 120/120/120 121/121/121
f 112/112/112 121/121/121 113/113/113
f 113/113/113 121/121/121 122/122/122
f 113/113/113 122/122/122 114/114/114
f 114/114/114 122/122/122 123/123/123
f 114/114/114 123/123/123 115/115/115
f 115/115/115 123/123/123 124/124/124
f 115/115/115 124/124/124 116/116/116
f 116/116/116 124/124/124 125/125/125
f 116/116/116 125/125/125 117/117/117
f 117/117/117 125/125/125 126/126/126
f 117/117/117 126/126/126 118/118/118
f 118/118/118 126/126/126 119/119/119
f 118/118/118 119/119/119 111/111/111
f 119/119/119 127/127/127 128/128/128
f 119/119/119 128/128/128 120/120/120
f 120/120/120 128/128/128 129/129/129
f 120/120/120 129/129/129 121/121/121
f 121/121/121 129/129/129 130/130/130
f 121/121/121 130/130/130 122/122/122
f 122/122/122 130/130/130 131/131/131
f 122/122/122 131/131/131 123/123/123
f 123/123/123 131/131/131 132/132/132
f 123/123/123 132/132/132 124/124/124
f 124/124/124 132/132/132 133/133/133
f 124/124/124 133/133/133 125/125/125
f 125/125/125 133/133/133 134/134/134
f 125/125/125 134/134/134 126/126/126
f 126/126/126 134/134/134 127/127/127
f 126/126/126 127/127/127 119/119/119
f 135/135/135 104/104/104 103/103/103
f 135/135/135 105/105/105 104/104/104
f 135/135/135 106/106/106 105/105/105
f 135/135/135 107/107/107 106/106/106
f 135/135/135 108/108/108 107/107/107
f 135/135/135 109/109/109 108/108/108
f 135/135/135 110/110/110 109/109/109
f 135/135/135 103/103/103 110/110/110
f 136/136/136 127/127/127 128/128/128
f 136/136/136 128/128/128 129/129/129
f 136/136/136 129/129/129 130/130/130
f 136/136/136 130/130/130 131/131/131
f 136/136/136 131/131/131 132/132/132
f 136/136/136 132/132/132 133/133/133
f 136/136/136 133/133/133 134/134/134
f 136/136/136 134/134/134 127/127/127
f 137/137/137 143/143/143 144/144/144
f 137/137/137 144/144/144 138/138/138
f 138/138/138 144/144/144 145/145/145
f 138/138/138 145/145/145 139/139/139
f 139/139/139 145/145/145 146/146/146
f 139/139/139 146/146/146 140/140/140
f 140/140/140 146/146/146 147/147/147
f 140/140/140 147/147/147 141/141/141
f 141/141/141 147/147/147 148/148/148
f 141/141/141 148/148/148 142/142/142
f 142/142/142 148/148/148 143/143/143
f 142/142/142 143/143/143 137/137/137
f 143/143/143 149/149/149 150/150/150
f 143/143/143 150/150/150 144/144/144
f 144/144/144 150/150/150 151/151/151
f 144/144/144 151/151/151 145/145/145
f 145/145/145 151/151/151 152/152/152
f 145/145/145 152/152/152 146/146/146
f 146/146/146 152/152/152 153/153/153
f 146/146/146 153/153/153 147/147/147
f 147/147/147 153/153/153 154/154/154
f 147/147/147 154/154/154 148/148/148
f 148/148/148 154/154/154 149/149/149
f 148/148/148 149/149/149 143/143/143
f 149/149/149 155/155/155 156/156/156
f 149/149/149 156/156/156 150/150/150
f 150/150/150 156/156/156 157/157/157
f 150/150/150 157/157/157 151/151/151
f 151/151/151 157/157/157 158/158/158
f 151/151/151 158/158/158 152/152/152
f 152/152/152 158/158/158 159/159/159
f 152/152/152 159/159/159 153/153/153
f 153/153/153 159/159/159 160/160/160
f 153/153/153 160/160/160 154/154/154
f 154/154/154 160/160/160 155/155/155
f 154/154/154 155/155/155 149/149/149
f 161/161/161 138/138/138 137/137/137
f 161/161/161 139/139/139 138/138/138
f 161/161/161 140/140/140 139/139/139
f 161/161/161 141/141/141 140/140/140
f 161/161/161 142/142/142 141/141/141
f 161/161/161 137/137/137 142/142/142
f 162/162/162 155/155/155 156/156/156
f 162/162/162 156/156/156 157/157/157
f 162/162/162 157/157/157 158/158/158
f 162/162/162 158/158/158 159/159/159
f 162/162/162 159/159/159 160/160/160
f 162/162/162 160/160/160 155/155/155
f 163/163/163 169/169/169 170/170/170
f 163/163/163 170/170/170 164/164/164
f 164/164/164 170/170/170 171/171/171
f 164/164/164 171/171/171 165/165/165
f 165/165/165 171/171/171 172/172/172
f 165/165/165 172/172/172 166/166/166
f 166/166/166 172/172/172 173/173/173
f 166/166/166 173/173/173 167/167/167
f 167/167/167 173/173/173 174/174/174
f 167/167/167 174/174/174 168/168/168
f 168/168/168 174/174/174 169/169/169
f 168/168/168 169/169/169 163/163/163
f 169/169/169 175/175/175 176/176/176
f 169/169/169 176/176/176 170/170/170
f 170/170/170 176/176/176 177/177/177
f 170/170/170 177/177/177 171/171/171
f 171/171/171 177/177/177 178/178/178
f 171/171/171 178/178/178 172/172/172
f 172/172/172 178/178/178 179/179/179
f 172/172/172 179/179/179 173/173/173
f 173/173/173 179/179/179 180/180/180
f 173/173/173 180/180/180 174/174/174
f 174/174/174 180/180/180 175/175/175
f 174/174/174 175/175/175 169/169/169
f 175/175/175 181/181/181 182/182/182
f 175/175/175 182/182/182 176/176/176
f 176/176/176 182/182/182 183/183/183
f 176/176/176 183/183/183 177/177/177
f 177/177/177 183/183/183 184/184/184
f 177/177/177 184/184/184 178/178/178
f 178/178/178 184/184/184 185/185/185
f 178/178/178 185/185/185 179/179/179
f 179/179/179 185/185/185 186/186/186
f 179/179/179 186/186/186 180/180/180
f 180/180/180 186/186/186 181/181/181
f 180/180/180 181/181/181 175/175/175
f 187/187/187 164/164/164 163/163/163
f 187/187/187 165/165/165 164/164/164
f 187/187/187 166/166/166 165/165/165
f 187/187/187 167/167/167 166/166/166
f 187/187/187 168/168/168 167/167/167
f 187/187/187 163/163/163 168/168/168
f 188/188/188 181/181/181 182/182/182
f 188/188/188 182/182/182 183/183/183
f 188/188/188 183/183/183 184/184/184
f 188/188/188 184/184/184 185/185/185
f 188/188/188 185/185/185 186/186/186
f 188/188/188 186/186/186 181/181/181
f 189/189/189 195/195/195 196/196/196
f 189/189/189 196/196/196 190/190/190
f 190/190/190 196/196/196 197/197/197
f 190/190/190 197/197/197 191/191/191
f 191/191/191 197/197/197 198/198/198
f 191/191/191 198/198/198 192/192/192
f 192/192/192 198/198/198 199/199/199
f 192/192/192 199/199/199 193/193/193
f 193/193/193 199/199/199 200/200/200
f 193/193/193 200/200/200 194/194/194
f 194/194/194 200/200/200 195/195/195
f 194/194/194 195/195/195 189/189/189
f 195/195/195 201/201/201 202/202/202
f 195/195/195 202/202/202 196/196/196
f 196/196/196 202/202/202 203/203/203
f 196/196/196 203/203/203 197/197/197
f 197/197/197 203/203/203 204/204/204
f 197/197/197 204/204/204 198/198/198
f 198/198/198 204/204/204 205/205/205
f 198/198/198 205/205/205 199/199/199
f 199/199/199 205/205/205 206/206/206
f 199/199/199 206/206/206 200/200/200
f 200/200/200 206/206/206 201/201/201
f 200/200/200 201/201/201 195/195/195
f 201/201/201 207/207/207 208/208/208
f 201/201/201 208/208/208 202/202/202
f 202/202/202 208/208/208 209/209/209
f 202/202/202 209/209/209 203/203/203
f 203/203/203 209/209/209 210/210/210
f 203/203/203 210/210/210 204/204/204
f 204/204/204 210/210/210 211/211/211
f 204/204/204 211/211/211 205/205/205
f 205/205/205 211/211/211 212/212/212
f 205/205/205 212/212/212 206/206/206
f 206/206/206 212/212/212 207/207/207
f 206/206/206 207/207/207 201/201/201
f 213/213/213 190/190/190 189/189/189
f 213/213/213 191/191/191 190/190/190
f 213/213/213 192/192/192 191/191/191
f 213/213/213 193/193/193 192/192/192
f 213/213/213 194/194/194 193/193/193
f 213/213/213 189/189/189 194/194/194
f 214/214/214 207/207/207 208/208/208
f 214/214/214 208/208/208 209/209/209
f 214/214/214 209/209/209 210/210/210
f 214/214/214 210/210/210 211/211/211
f 214/214/214 211/211/211 212/212/212
f 214/214/214 212/212/212 207/207/207
f 215/215/215 221/221/221 222/222/222
f 215/215/215 222/222/222 216/216/216
f 216/216/216 222/222/222 223/223/223
f 216/216/216 223/223/223 217/217/217
f 217/217/217 223/223/223 224/224/224
f 217/217/217 224/224/224 218/218/218
f 218/218/218 224/224/224 225/225/225
f 218/218/218 225/225/225 219/219/219
f 219/219/219 225/225/225 226/226/226
f 219/219/219 226/226/226 220/220/220
f 220/220/220 226/226/226 221/221/221
f 220/220/220 221/221/221 215/215/215
f 221/221/221 227/227/227 228/228/228
f 221/221/221 228/228/228 222/222/222
f 222/222/222 228/228/228 229/229/229
f 222/222/222 229/229/229 223/223/223
f 223/223/223 229/229/229 230/230/230
f 223/223/223 230/230/230 224/224/224
f 224/224/224 230/230/230 231/231/231
f 224/224/224 231/231/231 225/225/225
f 225/225/225 231/231/231 232/232/232
f 225/225/225 232/232/232 226/226/226
f 226/226/226 232/232/232 227/227/227
f 226/226/226 227/227/227 221/221/221
f 227/227/227 233/233/233 234/234/234
f 227/227/227 234/234/234 228/228/228
f 228/228/228 234/234/234 235/235/235
f 228/228/228 235/235/235 229/229/229
f 229/229/229 235/235/235 236/236/236
f 229/229/229 236/236/236 230/230/230
f 230/230/230 236/236/236 237/237/237
f 230/230/230 237/237/237 231/231/231
f 231/231/231 237/237/237 238/238/238
f 231/231/231 238/238/238 232/232/232
f 232/232/232 238/238/238 233/233/233
f 232/232/232 233/233/233 227/227/227
f 239/239/239 216/216/216 215/215/215
f 239/239/239 217/217/217 216/216/216
f 239/239/239 218/218/218 217/217/217
f 239/239/239 219/219/219 218/218/218
f 239/239/239 220/220/220 219/219/219
f 239/239/239 215/215/215 220/220/220
f 240/240/240 233/233/233 234/234/234
f 240/240/240 234/234/234 235/235/235
f 240/240/240 235/235/235 236/236/236
f 240/240/240 236/236/236 237/237/237
f 240/240/240 237/237/237 238/238/238
f 240/240/240 238/238/238 233/233/233
f 241/241/241 247/247/247 248/248/248
f 241/241/241 248/248/248 242/242/242
f 242/242/242 248/248/248 249/249/249
f 242/242/242 249/249/249 243/243/243
f 243/243/243 249/249/249 250/250/250
f 243/243/243 250/250/250 244/244/244
f 244/244/244 250/250/250 251/251/251
f 244/244/244 251/251/251 245/245/245
f 245/245/245 251/251/251 252/252/252
f 245/245/245 252/252/252 246/246/246
f 246/246/246 252/252/252 247/247/247
f 246/246/246 247/247/247 241/241/241
f 247/247/247 253/253/253 254/254/254
f 247/247/247 254/254/254 248/248/248
f 248/248/248 254/254/254 255/255/255
f 248/248/248 255/255/255 249/249/249
f 249/249/249 255/255/255 256/256/256
f 249/249/249 256/256/256 250/250/250
f 250/250/250 256/256/256 257/257/257
f 250/250/250 257/257/257 251/251/251
f 251/251/251 257/257/257 258/258/258
f 251/251/251 258/258/258 252/252/252
f 252/252/252 258/258/258 253/253/253
f 252/252/252 253/253/253 247/247/247
f 253/253/253 259/259/259 260/260/260
f 253/253/253 260/260/260 254/254/254
f 254/254/254 260/260/260 261/261/261
f 254/254/254 261/261/261 255/255/255
f 255/255/255 261/261/261 262/262/262
f 255/255/255 262/262/262 256/256/256
f 256/256/256 262/262/262 263/263/263
f 256/256/256 263/263/263 257/257/257
f 257/257/257 263/263/263 264/264/264
f 257/257/257 264/264/264 258/258/258
f 258/258/258 264/264/264 259/259/259
f 258/258/258 259/259/259 253/253/253
f 265/265/265 242/242/242 241/241/241
f 265/265/265 243/243/243 242/242/242
f 265/265/265 244/244/244 243/243/243
f 265/265/265 245/245/245 244/244/244
f 265/265/265 246/246/246 245/245/245
f 265/265/265 241/241/241 246/246/246
f 266/266/266 259/259/259 260/260/260
f 266/266/266 260/260/260 261/261/261
f 266/266/266 261/261/261 262/262/262
f 266/266/266 262/262/262 263/263/263
f 266/266/266 263/263/263 264/264/264
f 266/266/266 264/264/264 259/259/259
f 267/267/267 273/273/273 274/274/274
f 267/267/267 274/274/274 268/268/268
f 268/268/268 274/274/274 275/275/275
f 268/268/268 275/275/275 269/269/269
f 269/269/269 275/275/275 276/276/276
f 269/269/269 276/276/276 270/270/270
f 270/270/270 276/276/276 277/277/277
f 270/270/270 277/277/277 271/271/271
f 271/271/271 277/277/277 278/278/278
f 271/271/271 278/278/278 272/272/272
f 272/272/272 278/278/278 273/273/273
f 272/272/272 273/273/273 267/267/267
f 273/273/273 279/279/279 280/280/280
f 273/273/273 280/280/280 274/274/274
f 274/274/274 280/280/280 281/281/281
f 274/274/274 281/281/281 275/275/275
f 275/275/275 281/281/281 282/282/282
f 275/275/275 282/282/282 276/276/276
f 276/276/276 282/282/282 283/283/283
f 276/276/276 283/283/283 277/277/277
f 277/277/277 283/283/283 284/284/284
f 277/277/277 284/284/284 278/278/278
f 278/278/278 284/284/284 279/279/279
f 278/278/278 279/279/279 273/273/273
f 279/279/279 285/285/285 286/286/286
f 279/279/279 286/286/286 280/280/280
f 280/280/280 286/286/286 287/287/287
f 280/280/280 287/287/287 281/281/281
f 281/281/281 287/287/287 288/288/288
f 281/281/281 288/288/288 282/282/282
f 282/282/282 288/288/288 289/289/289
f 282/282/282 289/289/289 283/283/283
f 283/283/283 289/289/289 290/290/290
f 283/283/283 290/290/290 284/284/284
f 284/284/284 290/290/290 285/285/285
f 284/284/284 285/285/285 279/279/279
f 291/291/291 268/268/268 267/267/267
f 291/291/291 269/269/269 268/268/268
f 291/291/291 270/270/270 269/269/269
f 291/291/291 271/271/271 270/270/270
f 291/291/291 272/272/272 271/271/271
f 291/291/291 267/267/267 272/272/272
f 292/292/292 285/285/285 286/286/286
f 292/292/292 286/286/286 287/287/287
f 292/292/292 287/287/287 288/288/288
f 292/292/292 288/288/288 289/289/289
f 292/292/292 289/289/289 290/290/290
f 292/292/292 290/290/290 285/285/285
f 293/293/293 294/294/294 311/311/311
f 293/293/293 311/311/311 310/310/310
f 294/294/294 295/295/295 312/312/312
f 294/294/294 312/312/312 311/311/311
f 295/295/295 296/296/296 313/313/313
f 295/295/295 313/313/313 312/312/312
f 296/296/296 297/297/297 314/314/314
f 296/296/296 314/314/314 313/313/313
f 297/297/297 298/298/298 315/315/315
f 297/297/297 315/315/315 314/314/314
f 298/298/298 299/299/299 316/316/316
f 298/298/298 316/316/316 315/315/315
f 299/299/299 300/300/300 317/317/317
f 299/299/299 317/317/317 316/316/316
f 300/300/300 301/301/301 318/318/318
f 300/300/300 318/318/318 317/317/317
f 301/301/301 302/302/302 319/319/319
f 301/301/301 319/319/319 318/318/318
f 302/302/302 303/303/303 320/320/320
f 302/302/302 320/320/320 319/319/319
f 303/303/303 304/304/304 321/321/321
f 303/303/303 321/321/321 320/320/320
f 304/304/304 305/305/305 322/322/322
f 304/304/304 322/322/322 321/321/321
f 305/305/305 306/306/306 323/323/323
f 305/305/305 323/323/323 322/322/322
f 306/306/306 307/307/307 324/324/324
f 306/306/306 324/324/324 323/323/323
f 307/307/307 308/308/308 325/325/325
f 307/307/307 325/325/325 324/324/324
f 308/308/308 309/309/309 326/326/326
f 308/308/308 326/326/326 325/325/325
f 310/310/310 311/311/311 328/328/328
f 310/310/310 328/328/328 327/327/327
f 311/311/311 312/312/312 329/329/329
f 311/311/311 329/329/329 328/328/328
f 312/312/312 313/313/313 330/330/330
f 312/312/312 330/330/330 329/329/329
f 313/313/313 314/314/314 331/331/331
f 313/313/313 331/331/331 330/330/330
f 314/314/314 315/315/315 332/332/332
f 314/314/314 332/332/332 331/331/331
f 315/315/315 316/316/316 333/333/333
f 315/315/315 333/333/333 332/332/332
f 316/316/316 317/317/317 334/334/334
f 316/316/316 334/334/334 333/333/333
f 317/317/317 318/318/318 335/335/335
f 317/317/317 335/335/335 334/334/334
f 318/318/318 319/319/319 336/336/336
f 318/318/318 336/336/336 335/335/335
f 319/319/319 320/320/320 337/337/337
f 319/319/319 337/337/337 336/336/336
f 320/320/320 321/321/321 338/338/338
f 320/320/320 338/338/338 337/337/337
f 321/321/321 322/322/322 339/339/339
f 321/321/321 339/339/339 338/338/338
f 322/322/322 323/323/323 340/340/340
f 322/322/322 340/340/340 339/339/339
f 323/323/323 324/324/324 341/341/341
f 323/323/323 341/341/341 340/340/340
f 324/324/324 325/325/325 342/342/342
f 324/324/324 342/342/342 341/341/341
f 325/325/325 326/326/326 343/343/343
f 325/325/325 343/343/343 342/342/342
f 327/327/327 328/328/328 345/345/345
f 327/327/327 345/345/345 344/344/344
f 328/328/328 329/329/329 346/346/346
f 328/328/328 346/346/346 345/345/345
f 329/329/329 330/330/330 347/347/347
f 329/329/329 347/347/347 346/346/346
f 330/330/330 331/331/331 348/348/348
f 330/330/330 348/348/348 347/347/347
f 331/331/331 332/332/332 349/349/349
f 331/331/331 349/349/349 348/348/348
f 332/332/332 333/333/333 350/350/350
f 332/332/332 350/350/350 349/349/349
f 333/333/333 334/334/334 351/351/351
f 333/333/333 351/351/351 350/350/350
f 334/334/334 335/335/335 352/352/352
f 334/334/334 352/352/352 351/351/351
f 335/335/335 336/336/336 353/353/353
f 335/335/335 353/353/353 352/352/352
f 336/336/336 337/337/337 354/354/354
f 336/336/336 354/354/354 353/353/353
f 337/337/337 338/338/338 355/355/355
f 337/337/337 355/355/355 354/354/354
f 338/338/338 339/339/339 356/356/356
f 338/338/338 356/356/356 355/355/355
f 339/339/339 340/340/340 357/357/357
f 339/339/339 357/357/357 356/356/356
f 340/340/340 341/341/341 358/358/358
f 340/340/340 358/358/358 357/357/357
f 341/341/341 342/342/342 359/359/359
f 341/341/341 359/359/359 358/358/358
f 342/342/342 343/343/343 360/360/360
f 342/342/342 360/360/360 359/359/359
f 344/344/344 345/345/345 362/362/362
f 344/344/344 362/362/362 361/361/361
f 345/345/345 346/346/346 363/363/363
f 345/345/345 363/363/363 362/362/362
f 346/346/346 347/347/347 364/364/364
f 346/346/346 364/364/364 363/363/363
f 347/347/347 348/348/348 365/365/365
f 347/347/347 365/365/365 364/364/364
f 348/348/348 349/349/349 366/366/366
f 348/348/348 366/366/366 365/365/365
f 349/349/349 350/350/350 367/367/367
f 349/349/349 367/367/367 366/366/366
f 350/350/350 351/351/351 368/368/368
f 350/350/350 368/368/368 367/367/367
f 351/351/351 352/352/352 369/369/369
f 351/351/351 369/369/369 368/368/368
f 352/352/352 353/353/353 370/370/370
f 352/352/352 370/370/370 369/369/369
f 353/353/353 354/354/354 371/371/371
f 353/353/353 371/371/371 370/370/370
f 354/354/354 355/355/355 372/372/372
f 354/354/354 372/372/372 371/371/371
f 355/355/355 356/356/356 373/373/373
f 355/355/355 373/373/373 372/372/372
f 356/356/356 357/357/357 374/374/374
f 356/356/356 374/374/374 373/373/373
f 357/357/357 358/358/358 375/375/375
f 357/357/357 375/375/375 374/374/374
f 358/358/358 359/359/359 376/376/376
f 358/358/358 376/376/376 375/375/375
f 359/359/359 360/360/360 377/377/377
f 359/359/359 377/377/377 376/376/376
f 361/361/361 362/362/362 379/379/379
f 361/361/361 379/379/379 378/378/378
f 362/362/362 363/363/363 380/380/380
f 362/362/362 380/380/380 379/379/379
f 363/363/363 364/364/364 381/381/381
f 363/363/363 381/381/381 380/380/380
f 364/364/364 365/365/365 382/382/382
f 364/364/364 382/382/382 381/381/381
f 365/365/365 366/366/366 383/383/383
f 365/365/365 383/383/383 382/382/382
f 366/366/366 367/367/367 384/384/384
f 366/366/366 384/384/384 383/383/383
f 367/367/367 368/368/368 385/385/385
f 367/367/367 385/385/385 384/384/384
f 368/368/368 369/369/369 386/386/386
f 368/368/368 386/386/386 385/385/385
f 369/369/369 370/370/370 387/387/387
f 369/369/369 387/387/387 386/386/386
f 370/370/370 371/371/371 388/388/388
f 370/370/370 388/388/388 387/387/387
f 371/371/371 372/372/372 389/389/389
f 371/371/371 389/389/389 388/388/388
f 372/372/372 373/373/373 390/390/390
f 372/372/372 390/390/390 389/389/389
f 373/373/373 374/374/374 391/391/391
f 373/373/373 391/391/391 390/390/390
f 374/374/374 375/375/375 392/392/392
f 374/374/374 392/392/392 391/391/391
f 375/375/375 376/376/376 393/393/393
f 375/375/375 393/393/393 392/392/392
f 376/376/376 377/377/377 394/394/394
f 376/376/376 394/394/394 393/393/393
f 378/378/378 379/379/379 396/396/396
f 378/378/378 396/396/396 395/395/395
f 379/379/379 380/380/380 397/397/397
f 379/379/379 397/397/397 396/396/396
f 380/380/380 381/381/381 398/398/398
f 380/380/380 398/398/398 397/397/397
f 381/381/381 382/382/382 399/399/399
f 381/381/381 399/399/399 398/398/398
f 382/382/382 383/383/383 400/400/400
f 382/382/382 400/400/400 399/399/399
f 383/383/383 384/384/384 401/401/401
f 383/383/383 401/401/401 400/400/400
f 384/384/384 385/385/385 402/402/402
f 384/384/384 402/402/402 401/401/401
f 385/385/385 386/386/386 403/403/403
f 385/385/385 403/403/403 402/402/402
f 386/386/386 387/387/387 404/404/404
f 386/386/386 404/404/404 403/403/403
f 387/387/387 388/388/388 405/405/405
f 387/387/387 405/405/405 404/404/404
f 388/388/388 389/389/389 406/406/406
f 388/388/388 406/406/406 405/405/405
f 389/389/389 390/390/390 407/407/407
f 389/389/389 407/407/407 406/406/406
f 390/390/390 391/391/391 408/408/408
f 390/390/390 408/408/408 407/407/407
f 391/391/391 392/392/392 409/409/409
f 391/391/391 409/409/409 408/408/408
f 392/392/392 393/393/393 410/410/410
f 392/392/392 410/410/410 409/409/409
f 393/393/393 394/394/394 411/411/411
f 393/393/393 411/411/411 410/410/410
f 395/395/395 396/396/396 413/413/413
f 395/395/395 413/413/413 412/412/412
f 396/396/396 397/397/397 414/414/414
f 396/396/396 414/414/414 413/413/413
f 397/397/397 398/398/398 415/415/415
f 397/397/397 415/415/415 414/414/414
f 398/398/398 399/399/399 416/416/416
f 398/398/398 416/416/416 415/415/415
f 399/399/399 400/400/400 417/417/417
f 399/399/399 417/417/417 416/416/416
f 400/400/400 401/401/401 418/418/418
f 400/400/400 418/418/418 417/417/417
f 401/401/401 402/402/402 419/419/419
f 401/401/401 419/419/419 418/418/418
f 402/402/402 403/403/403 420/420/420
f 402/402/402 420/420/420 419/419/419
f 403/403/403 404/404/404 421/421/421
f 403/403/403 421/421/421 420/420/420
f 404/404/404 405/405/405 422/422/422
f 404/404/404 422/422/422 421/421/421
f 405/405/405 406/406/406 423/423/423
f 405/405/405 423/423/423 422/422/422
f 406/406/406 407/407/407 424/424/424
f 406/406/406 424/424/424 423/423/423
f 407/407/407 408/408/408 425/425/425
f 407/407/407 425/425/425 424/424/424
f 408/408/408 409/409/409 426/426/426
f 408/408/408 426/426/426 425/425/425
f 409/409/409 410/410/410 427/427/427
f 409/409/409 427/427/427 426/426/426
f 410/410/410 411/411/411 428/428/428
f 410/410/410 428/428/428 427/427/427
f 412/412/412 413/413/413 430/430/430
f 412/412/412 430/430/430 429/429/429
f 413/413/413 414/414/414 431/431/431
f 413/413/413 431/431/431 430/430/430
f 414/414/414 415/415/415 432/432/432
f 414/414/414 432/432/432 431/431/431
f 415/415/415 416/416/416 433/433/433
f 415/415/415 433/433/433 432/432/432
f 416/416/416 417/417/417 434/434/434
f 416/416/416 434/434/434 433/433/433
f 417/417/417 418/418/418 435/435/435
f 417/417/417 435/435/435 434/434/434
f 418/418/418 419/419/419 436/436/436
f 418/418/418 436/436/436 435/435/435
f 419/419/419 420/420/420 437/437/437
f 419/419/419 437/437/437 436/436/436
f 420/420/420 421/421/421 438/438/438
f 420/420/420 438/438/438 437/437/437
f 421/421/421 422/422/422 439/439/439
f 421/421/421 439/439/439 438/438/438
f 422/422/422 423/423/423 440/440/440
f 422/422/422 440/440/440 439/439/439
f 423/423/423 424/424/424 441/441/441
f 423/423/423 441/441/441 440/440/440
f 424/424/424 425/425/425 442/442/442
f 424/424/424 442/442/442 441/441/441
f 425/425/425 426/426/426 443/443/443
f 425/425/425 443/443/443 442/442/442
f 426/426/426 427/427/427 444/444/444
f 426/426/426 444/444/444 443/443/443
f 427/427/427 428/428/428 445/445/445
f 427/427/427 445/445/445 444/444/444
